M48
; DRILL file {KiCad 7.0.11+dfsg-1build4} date Fri Sep 25 14:12:41 2026
; FORMAT={-:-/ absolute / metric / decimal}
; #@! TF.CreationDate,2026-09-25T14:12:41+00:00
; #@! TF.GenerationSoftware,Kicad,Pcbnew,7.0.11+dfsg-1build4
; #@! TF.FileFunction,Plated,1,4,PTH
FMAT,2
METRIC
; #@! TA.AperFunction,Plated,PTH,ViaDrill
T1C0.200
; #@! TA.AperFunction,Plated,PTH,ComponentDrill
T2C0.200
; #@! TA.AperFunction,Plated,PTH,ViaDrill
T3C0.250
; #@! TA.AperFunction,Plated,PTH,ViaDrill
T4C0.300
; #@! TA.AperFunction,Plated,PTH,ViaDrill
T5C0.350
; #@! TA.AperFunction,Plated,PTH,ComponentDrill
T6C0.400
; #@! TA.AperFunction,Plated,PTH,ComponentDrill
T7C0.600
; #@! TA.AperFunction,Plated,PTH,ComponentDrill
T8C2.200
%
G90
G05
T1
X110.522Y-122.879
X112.025Y-118.862
X113.087Y-116.875
X113.954Y-122.341
X114.637Y-116.325
X115.237Y-121.825
X115.498Y-97.135
X115.537Y-111.866
X119.72Y-125.846
X120.17Y-120.146
X120.661Y-121.241
X120.711Y-118.291
X120.825Y-110.3
X121.075Y-109.25
X122.125Y-108.7
X122.22Y-117.691
X122.228Y-119.675
X122.52Y-126.096
X122.737Y-121.525
X123.738Y-124.58
X124.375Y-125.906
X125.3Y-119.212
X126.988Y-125.13
X127.65Y-125.062
X131.562Y-120.7
X132.1Y-119.812
X132.412Y-124.1
X132.806Y-114.596
X136.85Y-88.595
X138.2Y-125.662
X143.333Y-90.704
X144.9Y-88.595
X148.262Y-95.05
T2
X112.425Y-88.0
X113.0Y-87.05
X113.0Y-88.95
X113.575Y-88.0
X132.45Y-120.95
X132.45Y-122.05
X133.55Y-120.95
X133.55Y-122.05
T3
X124.0Y-110.825
X138.729Y-91.726
X142.269Y-102.478
T4
X101.25Y-93.75
X101.313Y-116.563
X102.927Y-113.675
X103.75Y-91.25
X103.75Y-93.75
X106.25Y-93.75
X106.285Y-110.241
X106.652Y-116.563
X106.871Y-101.34
X108.75Y-93.75
X108.75Y-96.25
X109.908Y-97.552
X109.908Y-107.24
X110.825Y-107.352
X110.825Y-115.53
X111.25Y-126.25
X111.775Y-109.582
X111.873Y-99.014
X112.173Y-113.232
X112.425Y-111.541
X112.74Y-119.854
X113.137Y-108.543
X113.599Y-120.034
X113.652Y-99.57
X115.468Y-100.137
X115.623Y-100.917
X115.736Y-95.046
X116.25Y-81.25
X116.25Y-83.75
X116.985Y-108.882
X117.486Y-123.351
X117.526Y-99.667
X117.534Y-117.401
X117.892Y-94.974
X118.27Y-125.325
X118.418Y-106.762
X118.56Y-114.26
X118.75Y-81.25
X118.75Y-83.75
X118.75Y-86.25
X118.767Y-95.389
X118.836Y-101.629
X118.887Y-110.37
X118.967Y-120.235
X119.007Y-115.53
X119.03Y-123.698
X119.349Y-92.483
X120.063Y-102.237
X120.372Y-112.816
X120.396Y-105.551
X120.48Y-108.83
X120.798Y-113.499
X120.807Y-102.929
X122.401Y-96.813
X122.557Y-122.958
X122.663Y-86.412
X122.779Y-128.593
X123.579Y-105.418
X123.595Y-106.521
X123.716Y-103.225
X123.751Y-104.639
X123.903Y-86.654
X124.152Y-108.133
X124.204Y-121.612
X124.447Y-87.773
X124.59Y-115.984
X124.731Y-99.516
X125.111Y-86.706
X125.5Y-109.782
X125.933Y-119.764
X126.021Y-116.204
X126.501Y-123.95
X126.751Y-111.385
X127.0Y-104.527
X127.362Y-116.024
X128.075Y-92.483
X128.155Y-113.985
X129.788Y-122.256
X130.0Y-104.076
X130.246Y-111.419
X130.322Y-117.83
X130.527Y-108.953
X130.608Y-120.649
X130.643Y-122.719
X130.967Y-125.74
X131.156Y-119.298
X131.25Y-81.25
X131.25Y-83.75
X131.5Y-95.389
X132.26Y-95.284
X132.334Y-110.451
X132.889Y-96.071
X133.232Y-111.069
X133.366Y-109.576
X133.532Y-114.044
X133.75Y-81.25
X133.75Y-83.75
X133.75Y-86.25
X133.952Y-117.267
X134.479Y-119.294
X134.925Y-126.483
X135.361Y-106.234
X135.424Y-125.34
X135.531Y-107.156
X135.7Y-108.201
X135.97Y-98.708
X136.111Y-117.148
X136.421Y-101.953
X136.611Y-118.746
X136.954Y-95.284
X138.468Y-96.774
X138.825Y-113.549
X139.113Y-108.936
X139.704Y-103.047
X139.717Y-86.412
X140.4Y-105.127
X140.69Y-106.125
X140.998Y-91.974
X141.822Y-94.194
X141.962Y-86.563
X142.248Y-104.31
X142.329Y-99.827
X143.661Y-99.827
X143.75Y-106.25
X143.75Y-116.25
X143.75Y-121.25
X143.75Y-123.75
X143.75Y-126.25
X143.75Y-128.75
X146.25Y-103.75
X146.25Y-106.25
X146.25Y-108.75
X146.25Y-111.25
X146.25Y-118.75
X146.25Y-121.25
X146.25Y-123.75
X146.25Y-126.25
X146.25Y-128.75
X148.75Y-103.75
X148.75Y-106.25
X148.75Y-108.75
X148.75Y-111.25
X148.75Y-116.25
X148.75Y-118.75
X148.75Y-121.25
X148.75Y-123.75
X148.75Y-126.25
X151.25Y-83.75
X151.25Y-86.25
X151.25Y-106.25
X151.25Y-108.75
X151.25Y-116.25
X151.25Y-118.75
X151.25Y-126.25
X153.633Y-94.194
X153.75Y-86.25
X153.75Y-118.75
X153.762Y-95.775
X156.25Y-88.75
X156.25Y-116.25
X156.25Y-118.75
X156.25Y-121.25
X158.75Y-93.75
X158.75Y-116.25
T5
X106.567Y-104.833
X107.736Y-120.096
X109.063Y-120.619
X109.537Y-115.195
X111.518Y-89.869
X114.808Y-90.416
X116.5Y-92.573
X116.5Y-127.475
X116.875Y-102.13
X120.362Y-114.275
X120.975Y-104.281
X123.603Y-90.5
X124.862Y-103.889
X126.478Y-117.13
X127.317Y-126.419
X129.146Y-120.93
X129.247Y-114.738
X131.707Y-123.679
X133.074Y-117.478
X134.754Y-110.893
X134.761Y-122.939
X135.116Y-117.306
X135.572Y-111.338
X136.325Y-99.946
X136.597Y-124.842
X138.386Y-98.289
X139.778Y-120.015
X141.923Y-111.067
X142.335Y-101.365
X143.366Y-93.573
X145.76Y-100.971
X146.509Y-98.474
X149.662Y-113.062
X154.5Y-117.833
T6
X105.15Y-123.2
X105.55Y-88.8
X105.633Y-122.033
X105.633Y-124.367
X106.033Y-87.633
X106.033Y-89.967
X106.8Y-121.55
X106.8Y-124.85
X107.2Y-87.15
X107.2Y-90.45
X107.967Y-122.033
X107.967Y-124.367
X108.367Y-87.633
X108.367Y-89.967
X108.45Y-123.2
X108.85Y-88.8
X151.15Y-122.8
X151.633Y-121.633
X151.633Y-123.967
X152.8Y-121.15
X152.8Y-124.45
X153.967Y-121.633
X153.967Y-123.967
X154.45Y-122.8
T8
X106.8Y-123.2
X107.2Y-88.8
X152.8Y-122.8
T7
X136.68Y-82.95G85X136.68Y-82.35
G05
X136.68Y-87.38G85X136.68Y-86.28
G05
X145.32Y-82.95G85X145.32Y-82.35
G05
X145.32Y-87.38G85X145.32Y-86.28
G05
M30
