G04 #@! TF.GenerationSoftware,KiCad,Pcbnew,7.0.11+dfsg-1build4*
G04 #@! TF.CreationDate,2026-09-25T14:12:41+00:00*
G04 #@! TF.ProjectId,main-board,6d61696e-2d62-46f6-9172-642e6b696361,A*
G04 #@! TF.SameCoordinates,Original*
G04 #@! TF.FileFunction,Paste,Top*
G04 #@! TF.FilePolarity,Positive*
%FSLAX46Y46*%
G04 Gerber Fmt 4.6, Leading zero omitted, Abs format (unit mm)*
G04 Created by KiCad (PCBNEW 7.0.11+dfsg-1build4) date 2026-09-25 14:12:41*
%MOMM*%
%LPD*%
G01*
G04 APERTURE LIST*
G04 Aperture macros list*
%AMRoundRect*
0 Rectangle with rounded corners*
0 $1 Rounding radius*
0 $2 $3 $4 $5 $6 $7 $8 $9 X,Y pos of 4 corners*
0 Add a 4 corners polygon primitive as box body*
4,1,4,$2,$3,$4,$5,$6,$7,$8,$9,$2,$3,0*
0 Add four circle primitives for the rounded corners*
1,1,$1+$1,$2,$3*
1,1,$1+$1,$4,$5*
1,1,$1+$1,$6,$7*
1,1,$1+$1,$8,$9*
0 Add four rect primitives between the rounded corners*
20,1,$1+$1,$2,$3,$4,$5,0*
20,1,$1+$1,$4,$5,$6,$7,0*
20,1,$1+$1,$6,$7,$8,$9,0*
20,1,$1+$1,$8,$9,$2,$3,0*%
G04 Aperture macros list end*
%ADD10RoundRect,0.075000X-0.725000X-0.075000X0.725000X-0.075000X0.725000X0.075000X-0.725000X0.075000X0*%
%ADD11RoundRect,0.075000X-0.075000X-0.725000X0.075000X-0.725000X0.075000X0.725000X-0.075000X0.725000X0*%
%ADD12RoundRect,0.140000X-0.170000X0.140000X-0.170000X-0.140000X0.170000X-0.140000X0.170000X0.140000X0*%
%ADD13RoundRect,0.135000X-0.135000X-0.185000X0.135000X-0.185000X0.135000X0.185000X-0.135000X0.185000X0*%
%ADD14RoundRect,0.135000X0.135000X0.185000X-0.135000X0.185000X-0.135000X-0.185000X0.135000X-0.185000X0*%
%ADD15RoundRect,0.140000X0.140000X0.170000X-0.140000X0.170000X-0.140000X-0.170000X0.140000X-0.170000X0*%
%ADD16RoundRect,0.150000X-0.625000X0.150000X-0.625000X-0.150000X0.625000X-0.150000X0.625000X0.150000X0*%
%ADD17RoundRect,0.250000X-0.650000X0.350000X-0.650000X-0.350000X0.650000X-0.350000X0.650000X0.350000X0*%
%ADD18RoundRect,0.225000X0.225000X0.250000X-0.225000X0.250000X-0.225000X-0.250000X0.225000X-0.250000X0*%
%ADD19RoundRect,0.135000X-0.185000X0.135000X-0.185000X-0.135000X0.185000X-0.135000X0.185000X0.135000X0*%
%ADD20RoundRect,0.135000X0.185000X-0.135000X0.185000X0.135000X-0.185000X0.135000X-0.185000X-0.135000X0*%
%ADD21RoundRect,0.150000X0.150000X-0.587500X0.150000X0.587500X-0.150000X0.587500X-0.150000X-0.587500X0*%
%ADD22RoundRect,0.140000X0.170000X-0.140000X0.170000X0.140000X-0.170000X0.140000X-0.170000X-0.140000X0*%
%ADD23RoundRect,0.218750X0.218750X0.256250X-0.218750X0.256250X-0.218750X-0.256250X0.218750X-0.256250X0*%
%ADD24RoundRect,0.250000X0.250000X0.475000X-0.250000X0.475000X-0.250000X-0.475000X0.250000X-0.475000X0*%
%ADD25RoundRect,0.250000X1.500000X-0.250000X1.500000X0.250000X-1.500000X0.250000X-1.500000X-0.250000X0*%
%ADD26RoundRect,0.250001X1.449999X-0.499999X1.449999X0.499999X-1.449999X0.499999X-1.449999X-0.499999X0*%
%ADD27RoundRect,0.100000X-0.637500X-0.100000X0.637500X-0.100000X0.637500X0.100000X-0.637500X0.100000X0*%
%ADD28RoundRect,0.225000X0.250000X-0.225000X0.250000X0.225000X-0.250000X0.225000X-0.250000X-0.225000X0*%
%ADD29RoundRect,0.225000X-0.250000X0.225000X-0.250000X-0.225000X0.250000X-0.225000X0.250000X0.225000X0*%
%ADD30RoundRect,0.250000X-0.475000X0.250000X-0.475000X-0.250000X0.475000X-0.250000X0.475000X0.250000X0*%
%ADD31RoundRect,0.140000X-0.140000X-0.170000X0.140000X-0.170000X0.140000X0.170000X-0.140000X0.170000X0*%
%ADD32R,0.650000X1.050000*%
%ADD33RoundRect,0.150000X0.587500X0.150000X-0.587500X0.150000X-0.587500X-0.150000X0.587500X-0.150000X0*%
%ADD34RoundRect,0.150000X-0.150000X-0.625000X0.150000X-0.625000X0.150000X0.625000X-0.150000X0.625000X0*%
%ADD35RoundRect,0.250000X-0.350000X-0.650000X0.350000X-0.650000X0.350000X0.650000X-0.350000X0.650000X0*%
%ADD36RoundRect,0.225000X-0.225000X-0.250000X0.225000X-0.250000X0.225000X0.250000X-0.225000X0.250000X0*%
%ADD37RoundRect,0.150000X-0.512500X-0.150000X0.512500X-0.150000X0.512500X0.150000X-0.512500X0.150000X0*%
%ADD38RoundRect,0.150000X0.625000X-0.150000X0.625000X0.150000X-0.625000X0.150000X-0.625000X-0.150000X0*%
%ADD39RoundRect,0.250000X0.650000X-0.350000X0.650000X0.350000X-0.650000X0.350000X-0.650000X-0.350000X0*%
%ADD40RoundRect,0.100000X0.100000X-0.637500X0.100000X0.637500X-0.100000X0.637500X-0.100000X-0.637500X0*%
%ADD41RoundRect,0.150000X0.150000X0.625000X-0.150000X0.625000X-0.150000X-0.625000X0.150000X-0.625000X0*%
%ADD42RoundRect,0.250000X0.350000X0.650000X-0.350000X0.650000X-0.350000X-0.650000X0.350000X-0.650000X0*%
%ADD43RoundRect,0.218750X-0.218750X-0.256250X0.218750X-0.256250X0.218750X0.256250X-0.218750X0.256250X0*%
%ADD44RoundRect,0.218750X0.256250X-0.218750X0.256250X0.218750X-0.256250X0.218750X-0.256250X-0.218750X0*%
%ADD45R,2.400000X0.740000*%
%ADD46R,0.800000X2.700000*%
%ADD47RoundRect,0.025000X-0.100000X-0.145000X0.100000X-0.145000X0.100000X0.145000X-0.100000X0.145000X0*%
%ADD48RoundRect,0.106000X-0.644000X-0.424000X0.644000X-0.424000X0.644000X0.424000X-0.644000X0.424000X0*%
%ADD49RoundRect,0.060000X-0.240000X-0.060000X0.240000X-0.060000X0.240000X0.060000X-0.240000X0.060000X0*%
%ADD50RoundRect,0.150000X-0.587500X-0.150000X0.587500X-0.150000X0.587500X0.150000X-0.587500X0.150000X0*%
%ADD51RoundRect,0.250000X-0.250000X-0.475000X0.250000X-0.475000X0.250000X0.475000X-0.250000X0.475000X0*%
%ADD52R,1.200000X1.400000*%
%ADD53RoundRect,0.225000X-0.225000X-0.375000X0.225000X-0.375000X0.225000X0.375000X-0.225000X0.375000X0*%
%ADD54R,0.600000X1.450000*%
%ADD55R,0.300000X1.450000*%
%ADD56RoundRect,0.172500X-0.172500X-0.172500X0.172500X-0.172500X0.172500X0.172500X-0.172500X0.172500X0*%
%ADD57RoundRect,0.062500X-0.375000X-0.062500X0.375000X-0.062500X0.375000X0.062500X-0.375000X0.062500X0*%
%ADD58RoundRect,0.062500X-0.062500X-0.375000X0.062500X-0.375000X0.062500X0.375000X-0.062500X0.375000X0*%
%ADD59RoundRect,0.250000X0.625000X-0.375000X0.625000X0.375000X-0.625000X0.375000X-0.625000X-0.375000X0*%
G04 APERTURE END LIST*
D10*
G04 #@! TO.C,U5*
X122325000Y-99000000D03*
X122325000Y-99500000D03*
X122325000Y-100000000D03*
X122325000Y-100500000D03*
X122325000Y-101000000D03*
X122325000Y-101500000D03*
X122325000Y-102000000D03*
X122325000Y-102500000D03*
X122325000Y-103000000D03*
X122325000Y-103500000D03*
X122325000Y-104000000D03*
X122325000Y-104500000D03*
X122325000Y-105000000D03*
X122325000Y-105500000D03*
X122325000Y-106000000D03*
X122325000Y-106500000D03*
X122325000Y-107000000D03*
X122325000Y-107500000D03*
X122325000Y-108000000D03*
X122325000Y-108500000D03*
X122325000Y-109000000D03*
X122325000Y-109500000D03*
X122325000Y-110000000D03*
X122325000Y-110500000D03*
X122325000Y-111000000D03*
D11*
X124000000Y-112675000D03*
X124500000Y-112675000D03*
X125000000Y-112675000D03*
X125500000Y-112675000D03*
X126000000Y-112675000D03*
X126500000Y-112675000D03*
X127000000Y-112675000D03*
X127500000Y-112675000D03*
X128000000Y-112675000D03*
X128500000Y-112675000D03*
X129000000Y-112675000D03*
X129500000Y-112675000D03*
X130000000Y-112675000D03*
X130500000Y-112675000D03*
X131000000Y-112675000D03*
X131500000Y-112675000D03*
X132000000Y-112675000D03*
X132500000Y-112675000D03*
X133000000Y-112675000D03*
X133500000Y-112675000D03*
X134000000Y-112675000D03*
X134500000Y-112675000D03*
X135000000Y-112675000D03*
X135500000Y-112675000D03*
X136000000Y-112675000D03*
D10*
X137675000Y-111000000D03*
X137675000Y-110500000D03*
X137675000Y-110000000D03*
X137675000Y-109500000D03*
X137675000Y-109000000D03*
X137675000Y-108500000D03*
X137675000Y-108000000D03*
X137675000Y-107500000D03*
X137675000Y-107000000D03*
X137675000Y-106500000D03*
X137675000Y-106000000D03*
X137675000Y-105500000D03*
X137675000Y-105000000D03*
X137675000Y-104500000D03*
X137675000Y-104000000D03*
X137675000Y-103500000D03*
X137675000Y-103000000D03*
X137675000Y-102500000D03*
X137675000Y-102000000D03*
X137675000Y-101500000D03*
X137675000Y-101000000D03*
X137675000Y-100500000D03*
X137675000Y-100000000D03*
X137675000Y-99500000D03*
X137675000Y-99000000D03*
D11*
X136000000Y-97325000D03*
X135500000Y-97325000D03*
X135000000Y-97325000D03*
X134500000Y-97325000D03*
X134000000Y-97325000D03*
X133500000Y-97325000D03*
X133000000Y-97325000D03*
X132500000Y-97325000D03*
X132000000Y-97325000D03*
X131500000Y-97325000D03*
X131000000Y-97325000D03*
X130500000Y-97325000D03*
X130000000Y-97325000D03*
X129500000Y-97325000D03*
X129000000Y-97325000D03*
X128500000Y-97325000D03*
X128000000Y-97325000D03*
X127500000Y-97325000D03*
X127000000Y-97325000D03*
X126500000Y-97325000D03*
X126000000Y-97325000D03*
X125500000Y-97325000D03*
X125000000Y-97325000D03*
X124500000Y-97325000D03*
X124000000Y-97325000D03*
G04 #@! TD*
D12*
G04 #@! TO.C,C44*
X110321677Y-123568961D03*
X110321677Y-124528961D03*
G04 #@! TD*
D13*
G04 #@! TO.C,R23*
X117368569Y-118633670D03*
X118388569Y-118633670D03*
G04 #@! TD*
D14*
G04 #@! TO.C,R22*
X115574044Y-122340722D03*
X114554044Y-122340722D03*
G04 #@! TD*
D15*
G04 #@! TO.C,C56*
X114749288Y-97049868D03*
X113789288Y-97049868D03*
G04 #@! TD*
D16*
G04 #@! TO.C,J5*
X105400000Y-97500000D03*
X105400000Y-98500000D03*
X105400000Y-99500000D03*
X105400000Y-100500000D03*
D17*
X101525000Y-96200000D03*
X101525000Y-101800000D03*
G04 #@! TD*
D18*
G04 #@! TO.C,C48*
X124837898Y-124301168D03*
X123287898Y-124301168D03*
G04 #@! TD*
D19*
G04 #@! TO.C,R35*
X113132752Y-121073124D03*
X113132752Y-122093124D03*
G04 #@! TD*
D20*
G04 #@! TO.C,R42*
X120371810Y-112060645D03*
X120371810Y-111040645D03*
G04 #@! TD*
D21*
G04 #@! TO.C,D3*
X118076639Y-100866489D03*
X119976639Y-100866489D03*
X119026639Y-98991489D03*
G04 #@! TD*
D19*
G04 #@! TO.C,R39*
X139928346Y-109138844D03*
X139928346Y-110158844D03*
G04 #@! TD*
D22*
G04 #@! TO.C,C25*
X116147963Y-98094746D03*
X116147963Y-97134746D03*
G04 #@! TD*
D12*
G04 #@! TO.C,C58*
X139832751Y-121075776D03*
X139832751Y-122035776D03*
G04 #@! TD*
D23*
G04 #@! TO.C,FB1*
X124897931Y-95132721D03*
X123322931Y-95132721D03*
G04 #@! TD*
D24*
G04 #@! TO.C,C6*
X119850718Y-96573104D03*
X117950718Y-96573104D03*
G04 #@! TD*
D25*
G04 #@! TO.C,J2*
X152050000Y-101000000D03*
X152050000Y-99000000D03*
D26*
X157800000Y-103350000D03*
X157800000Y-96650000D03*
G04 #@! TD*
D27*
G04 #@! TO.C,U9*
X122137500Y-119025000D03*
X122137500Y-119675000D03*
X122137500Y-120325000D03*
X122137500Y-120975000D03*
X127862500Y-120975000D03*
X127862500Y-120325000D03*
X127862500Y-119675000D03*
X127862500Y-119025000D03*
G04 #@! TD*
D18*
G04 #@! TO.C,C20*
X115220748Y-102342289D03*
X113670748Y-102342289D03*
G04 #@! TD*
D20*
G04 #@! TO.C,R3*
X147205008Y-84501421D03*
X147205008Y-83481421D03*
G04 #@! TD*
D28*
G04 #@! TO.C,C3*
X146190758Y-91731665D03*
X146190758Y-90181665D03*
G04 #@! TD*
G04 #@! TO.C,C8*
X119238762Y-89581872D03*
X119238762Y-88031872D03*
G04 #@! TD*
D29*
G04 #@! TO.C,C61*
X136297052Y-120238750D03*
X136297052Y-121788750D03*
G04 #@! TD*
D13*
G04 #@! TO.C,R15*
X122755245Y-125906062D03*
X123775245Y-125906062D03*
G04 #@! TD*
G04 #@! TO.C,R24*
X109246574Y-103189485D03*
X110266574Y-103189485D03*
G04 #@! TD*
D15*
G04 #@! TO.C,C41*
X111796799Y-122159444D03*
X110836799Y-122159444D03*
G04 #@! TD*
D30*
G04 #@! TO.C,C7*
X115182742Y-104295253D03*
X115182742Y-106195253D03*
G04 #@! TD*
D22*
G04 #@! TO.C,C26*
X114741274Y-99352226D03*
X114741274Y-98392226D03*
G04 #@! TD*
D31*
G04 #@! TO.C,C53*
X128255254Y-126405313D03*
X129215254Y-126405313D03*
G04 #@! TD*
D14*
G04 #@! TO.C,R13*
X117223319Y-93995744D03*
X116203319Y-93995744D03*
G04 #@! TD*
D22*
G04 #@! TO.C,C17*
X116285274Y-100372450D03*
X116285274Y-99412450D03*
G04 #@! TD*
D32*
G04 #@! TO.C,SW2*
X141925000Y-113575000D03*
X141925000Y-109425000D03*
X144075000Y-113575000D03*
X144075000Y-109425000D03*
G04 #@! TD*
D15*
G04 #@! TO.C,C10*
X115832278Y-107851425D03*
X114872278Y-107851425D03*
G04 #@! TD*
D19*
G04 #@! TO.C,R2*
X137972662Y-89949481D03*
X137972662Y-90969481D03*
G04 #@! TD*
D13*
G04 #@! TO.C,R7*
X151292159Y-91675666D03*
X152312159Y-91675666D03*
G04 #@! TD*
D15*
G04 #@! TO.C,C12*
X136105237Y-114639574D03*
X135145237Y-114639574D03*
G04 #@! TD*
D13*
G04 #@! TO.C,R40*
X126676905Y-114728641D03*
X127696905Y-114728641D03*
G04 #@! TD*
D31*
G04 #@! TO.C,C46*
X138084246Y-114664770D03*
X139044246Y-114664770D03*
G04 #@! TD*
D19*
G04 #@! TO.C,R25*
X107769619Y-104875628D03*
X107769619Y-105895628D03*
G04 #@! TD*
D13*
G04 #@! TO.C,R32*
X106623276Y-117804064D03*
X107643276Y-117804064D03*
G04 #@! TD*
D14*
G04 #@! TO.C,R20*
X134479427Y-118398617D03*
X133459427Y-118398617D03*
G04 #@! TD*
D13*
G04 #@! TO.C,R17*
X139549134Y-107279173D03*
X140569134Y-107279173D03*
G04 #@! TD*
D19*
G04 #@! TO.C,R31*
X107683941Y-115331961D03*
X107683941Y-116351961D03*
G04 #@! TD*
D29*
G04 #@! TO.C,C57*
X138193258Y-120038627D03*
X138193258Y-121588627D03*
G04 #@! TD*
D28*
G04 #@! TO.C,C30*
X107848824Y-99771753D03*
X107848824Y-98221753D03*
G04 #@! TD*
D33*
G04 #@! TO.C,Q2*
X124809430Y-116791245D03*
X124809430Y-114891245D03*
X122934430Y-115841245D03*
G04 #@! TD*
D31*
G04 #@! TO.C,C13*
X139664851Y-97790729D03*
X140624851Y-97790729D03*
G04 #@! TD*
D13*
G04 #@! TO.C,R30*
X117865000Y-109122756D03*
X118885000Y-109122756D03*
G04 #@! TD*
D34*
G04 #@! TO.C,J3*
X116500000Y-124900000D03*
X117500000Y-124900000D03*
D35*
X115200000Y-128775000D03*
X118800000Y-128775000D03*
G04 #@! TD*
D36*
G04 #@! TO.C,C18*
X135336033Y-116256634D03*
X136886033Y-116256634D03*
G04 #@! TD*
D13*
G04 #@! TO.C,R9*
X137696773Y-95326143D03*
X138716773Y-95326143D03*
G04 #@! TD*
D34*
G04 #@! TO.C,J8*
X138500000Y-124900000D03*
X139500000Y-124900000D03*
D35*
X137200000Y-128775000D03*
X140800000Y-128775000D03*
G04 #@! TD*
D37*
G04 #@! TO.C,U1*
X139862500Y-89850000D03*
X139862500Y-90800000D03*
X139862500Y-91750000D03*
X142137500Y-91750000D03*
X142137500Y-90800000D03*
X142137500Y-89850000D03*
G04 #@! TD*
D38*
G04 #@! TO.C,J7*
X154500000Y-113000000D03*
X154500000Y-112000000D03*
X154500000Y-111000000D03*
X154500000Y-110000000D03*
X154500000Y-109000000D03*
X154500000Y-108000000D03*
D39*
X158375000Y-114300000D03*
X158375000Y-106700000D03*
G04 #@! TD*
D12*
G04 #@! TO.C,C49*
X118910994Y-121756062D03*
X118910994Y-122716062D03*
G04 #@! TD*
D40*
G04 #@! TO.C,U8*
X109525000Y-118862500D03*
X110175000Y-118862500D03*
X110825000Y-118862500D03*
X111475000Y-118862500D03*
X111475000Y-113137500D03*
X110825000Y-113137500D03*
X110175000Y-113137500D03*
X109525000Y-113137500D03*
G04 #@! TD*
D41*
G04 #@! TO.C,J9*
X127000000Y-85100000D03*
X126000000Y-85100000D03*
X125000000Y-85100000D03*
X124000000Y-85100000D03*
X123000000Y-85100000D03*
X122000000Y-85100000D03*
D42*
X128300000Y-81225000D03*
X120700000Y-81225000D03*
G04 #@! TD*
D14*
G04 #@! TO.C,R28*
X106270276Y-112376527D03*
X105250276Y-112376527D03*
G04 #@! TD*
D28*
G04 #@! TO.C,C42*
X117301000Y-122125887D03*
X117301000Y-120575887D03*
G04 #@! TD*
D14*
G04 #@! TO.C,R34*
X111557072Y-120767629D03*
X110537072Y-120767629D03*
G04 #@! TD*
D36*
G04 #@! TO.C,C34*
X113573586Y-109509113D03*
X115123586Y-109509113D03*
G04 #@! TD*
D13*
G04 #@! TO.C,R10*
X150746211Y-88295938D03*
X151766211Y-88295938D03*
G04 #@! TD*
D43*
G04 #@! TO.C,FB2*
X130364729Y-114971424D03*
X131939729Y-114971424D03*
G04 #@! TD*
D22*
G04 #@! TO.C,C14*
X121769714Y-95441035D03*
X121769714Y-94481035D03*
G04 #@! TD*
D14*
G04 #@! TO.C,R6*
X149148499Y-91745561D03*
X148128499Y-91745561D03*
G04 #@! TD*
D36*
G04 #@! TO.C,C51*
X132148646Y-124776137D03*
X133698646Y-124776137D03*
G04 #@! TD*
D16*
G04 #@! TO.C,J6*
X105400000Y-106000000D03*
X105400000Y-107000000D03*
X105400000Y-108000000D03*
X105400000Y-109000000D03*
D17*
X101525000Y-104700000D03*
X101525000Y-110300000D03*
G04 #@! TD*
D30*
G04 #@! TO.C,C27*
X104813223Y-117241435D03*
X104813223Y-119141435D03*
G04 #@! TD*
D44*
G04 #@! TO.C,D1*
X155000000Y-93287500D03*
X155000000Y-91712500D03*
G04 #@! TD*
D14*
G04 #@! TO.C,R4*
X143578750Y-98012500D03*
X142558750Y-98012500D03*
G04 #@! TD*
D18*
G04 #@! TO.C,C38*
X103696697Y-112628230D03*
X102146697Y-112628230D03*
G04 #@! TD*
D20*
G04 #@! TO.C,R29*
X113136960Y-107781805D03*
X113136960Y-106761805D03*
G04 #@! TD*
D45*
G04 #@! TO.C,J4*
X130050000Y-88460000D03*
X133950000Y-88460000D03*
X130050000Y-89730000D03*
X133950000Y-89730000D03*
X130050000Y-91000000D03*
X133950000Y-91000000D03*
X130050000Y-92270000D03*
X133950000Y-92270000D03*
X130050000Y-93540000D03*
X133950000Y-93540000D03*
G04 #@! TD*
D13*
G04 #@! TO.C,R36*
X114471749Y-120915538D03*
X115491749Y-120915538D03*
G04 #@! TD*
G04 #@! TO.C,R5*
X139915891Y-99305193D03*
X140935891Y-99305193D03*
G04 #@! TD*
D22*
G04 #@! TO.C,C33*
X107639337Y-109925489D03*
X107639337Y-108965489D03*
G04 #@! TD*
D15*
G04 #@! TO.C,C36*
X123265941Y-87740345D03*
X122305941Y-87740345D03*
G04 #@! TD*
D31*
G04 #@! TO.C,C45*
X135891682Y-117941314D03*
X136851682Y-117941314D03*
G04 #@! TD*
D22*
G04 #@! TO.C,C1*
X148619324Y-84481711D03*
X148619324Y-83521711D03*
G04 #@! TD*
D19*
G04 #@! TO.C,R43*
X120260876Y-121339835D03*
X120260876Y-122359835D03*
G04 #@! TD*
D46*
G04 #@! TO.C,L1*
X111850000Y-83600000D03*
X114150000Y-83600000D03*
G04 #@! TD*
D14*
G04 #@! TO.C,R41*
X124364418Y-122668122D03*
X123344418Y-122668122D03*
G04 #@! TD*
D12*
G04 #@! TO.C,C37*
X133531694Y-114891958D03*
X133531694Y-115851958D03*
G04 #@! TD*
D28*
G04 #@! TO.C,C16*
X116131350Y-87520197D03*
X116131350Y-85970197D03*
G04 #@! TD*
D15*
G04 #@! TO.C,C28*
X107736150Y-119228667D03*
X106776150Y-119228667D03*
G04 #@! TD*
D47*
G04 #@! TO.C,U3*
X112750000Y-86470000D03*
X112750000Y-89530000D03*
D48*
X113000000Y-87370000D03*
X113000000Y-88630000D03*
D47*
X113250000Y-86470000D03*
X113250000Y-89530000D03*
D49*
X111600000Y-87000000D03*
X111600000Y-87500000D03*
X111600000Y-88000000D03*
X111600000Y-88500000D03*
X111600000Y-89000000D03*
X114400000Y-89000000D03*
X114400000Y-88500000D03*
X114400000Y-88000000D03*
X114400000Y-87500000D03*
X114400000Y-87000000D03*
G04 #@! TD*
D29*
G04 #@! TO.C,C52*
X121050257Y-123943749D03*
X121050257Y-125493749D03*
G04 #@! TD*
D15*
G04 #@! TO.C,C4*
X118069508Y-107604718D03*
X117109508Y-107604718D03*
G04 #@! TD*
D29*
G04 #@! TO.C,C29*
X112794389Y-126148552D03*
X112794389Y-127698552D03*
G04 #@! TD*
D19*
G04 #@! TO.C,R1*
X143982914Y-89984455D03*
X143982914Y-91004455D03*
G04 #@! TD*
D36*
G04 #@! TO.C,C22*
X128701018Y-124803975D03*
X130251018Y-124803975D03*
G04 #@! TD*
D50*
G04 #@! TO.C,Q1*
X146062500Y-97550000D03*
X146062500Y-99450000D03*
X147937500Y-98500000D03*
G04 #@! TD*
D28*
G04 #@! TO.C,C31*
X109727206Y-100039977D03*
X109727206Y-98489977D03*
G04 #@! TD*
D18*
G04 #@! TO.C,C60*
X133280472Y-128551202D03*
X131730472Y-128551202D03*
G04 #@! TD*
D19*
G04 #@! TO.C,R14*
X120219626Y-119076212D03*
X120219626Y-120096212D03*
G04 #@! TD*
D28*
G04 #@! TO.C,C9*
X125761237Y-89581872D03*
X125761237Y-88031872D03*
G04 #@! TD*
D51*
G04 #@! TO.C,C5*
X111518263Y-91344380D03*
X113418263Y-91344380D03*
G04 #@! TD*
D52*
G04 #@! TO.C,Y1*
X119150000Y-105600000D03*
X119150000Y-103400000D03*
X117450000Y-103400000D03*
X117450000Y-105600000D03*
G04 #@! TD*
D36*
G04 #@! TO.C,C55*
X131596281Y-126676722D03*
X133146281Y-126676722D03*
G04 #@! TD*
D53*
G04 #@! TO.C,D2*
X144350000Y-94000000D03*
X147650000Y-94000000D03*
G04 #@! TD*
D19*
G04 #@! TO.C,R21*
X117361875Y-111446250D03*
X117361875Y-112466250D03*
G04 #@! TD*
D18*
G04 #@! TO.C,C39*
X106049802Y-114498574D03*
X104499802Y-114498574D03*
G04 #@! TD*
D27*
G04 #@! TO.C,U6*
X114637500Y-115025000D03*
X114637500Y-115675000D03*
X114637500Y-116325000D03*
X114637500Y-116975000D03*
X120362500Y-116975000D03*
X120362500Y-116325000D03*
X120362500Y-115675000D03*
X120362500Y-115025000D03*
G04 #@! TD*
D54*
G04 #@! TO.C,J1*
X144250000Y-87745000D03*
X143450000Y-87745000D03*
D55*
X142250000Y-87745000D03*
X141250000Y-87745000D03*
X140750000Y-87745000D03*
X139750000Y-87745000D03*
D54*
X138550000Y-87745000D03*
X137750000Y-87745000D03*
X137750000Y-87745000D03*
X138550000Y-87745000D03*
D55*
X139250000Y-87745000D03*
X140250000Y-87745000D03*
X141750000Y-87745000D03*
X142750000Y-87745000D03*
D54*
X143450000Y-87745000D03*
X144250000Y-87745000D03*
G04 #@! TD*
D22*
G04 #@! TO.C,C23*
X107741399Y-103524352D03*
X107741399Y-102564352D03*
G04 #@! TD*
G04 #@! TO.C,C21*
X113269282Y-105238068D03*
X113269282Y-104278068D03*
G04 #@! TD*
D36*
G04 #@! TO.C,C2*
X151487191Y-89985591D03*
X153037191Y-89985591D03*
G04 #@! TD*
D56*
G04 #@! TO.C,U10*
X132600000Y-121100000D03*
X132600000Y-121900000D03*
X133400000Y-121100000D03*
X133400000Y-121900000D03*
D57*
X131562500Y-120750000D03*
X131562500Y-121250000D03*
X131562500Y-121750000D03*
X131562500Y-122250000D03*
D58*
X132250000Y-122937500D03*
X132750000Y-122937500D03*
X133250000Y-122937500D03*
X133750000Y-122937500D03*
D57*
X134437500Y-122250000D03*
X134437500Y-121750000D03*
X134437500Y-121250000D03*
X134437500Y-120750000D03*
D58*
X133750000Y-120062500D03*
X133250000Y-120062500D03*
X132750000Y-120062500D03*
X132250000Y-120062500D03*
G04 #@! TD*
D12*
G04 #@! TO.C,C43*
X102926788Y-114525808D03*
X102926788Y-115485808D03*
G04 #@! TD*
D19*
G04 #@! TO.C,R38*
X140257885Y-111452833D03*
X140257885Y-112472833D03*
G04 #@! TD*
D59*
G04 #@! TO.C,F1*
X148500000Y-89900000D03*
X148500000Y-87100000D03*
G04 #@! TD*
D19*
G04 #@! TO.C,R12*
X139618638Y-104827615D03*
X139618638Y-105847615D03*
G04 #@! TD*
D22*
G04 #@! TO.C,C15*
X110069735Y-85503060D03*
X110069735Y-84543060D03*
G04 #@! TD*
G04 #@! TO.C,C35*
X111601622Y-103120708D03*
X111601622Y-102160708D03*
G04 #@! TD*
D40*
G04 #@! TO.C,U7*
X109525000Y-110862500D03*
X110175000Y-110862500D03*
X110825000Y-110862500D03*
X111475000Y-110862500D03*
X111475000Y-105137500D03*
X110825000Y-105137500D03*
X110175000Y-105137500D03*
X109525000Y-105137500D03*
G04 #@! TD*
D31*
G04 #@! TO.C,C11*
X131195805Y-116745664D03*
X132155805Y-116745664D03*
G04 #@! TD*
D13*
G04 #@! TO.C,R33*
X113160541Y-118730952D03*
X114180541Y-118730952D03*
G04 #@! TD*
D37*
G04 #@! TO.C,U4*
X121362500Y-89550000D03*
X121362500Y-90500000D03*
X121362500Y-91450000D03*
X123637500Y-91450000D03*
X123637500Y-89550000D03*
G04 #@! TD*
D24*
G04 #@! TO.C,C62*
X114392059Y-95205492D03*
X112492059Y-95205492D03*
G04 #@! TD*
D20*
G04 #@! TO.C,R37*
X118875000Y-113199743D03*
X118875000Y-112179743D03*
G04 #@! TD*
D12*
G04 #@! TO.C,C47*
X138488146Y-116357107D03*
X138488146Y-117317107D03*
G04 #@! TD*
D36*
G04 #@! TO.C,C50*
X126877026Y-122930447D03*
X128427026Y-122930447D03*
G04 #@! TD*
D37*
G04 #@! TO.C,U2*
X149362500Y-93550000D03*
X149362500Y-94500000D03*
X149362500Y-95450000D03*
X151637500Y-95450000D03*
X151637500Y-93550000D03*
G04 #@! TD*
D20*
G04 #@! TO.C,R18*
X129849999Y-120253750D03*
X129849999Y-119233750D03*
G04 #@! TD*
D13*
G04 #@! TO.C,R26*
X114039774Y-113211161D03*
X115059774Y-113211161D03*
G04 #@! TD*
D19*
G04 #@! TO.C,R8*
X142340625Y-94861875D03*
X142340625Y-95881875D03*
G04 #@! TD*
D29*
G04 #@! TO.C,C19*
X141294308Y-100928117D03*
X141294308Y-102478117D03*
G04 #@! TD*
D28*
G04 #@! TO.C,C59*
X140091603Y-118861616D03*
X140091603Y-117311616D03*
G04 #@! TD*
D19*
G04 #@! TO.C,R11*
X139670926Y-100657600D03*
X139670926Y-101677600D03*
G04 #@! TD*
D13*
G04 #@! TO.C,R16*
X119377404Y-107649153D03*
X120397404Y-107649153D03*
G04 #@! TD*
D20*
G04 #@! TO.C,R27*
X107822820Y-112348738D03*
X107822820Y-111328738D03*
G04 #@! TD*
D13*
G04 #@! TO.C,R19*
X131156018Y-118277417D03*
X132176018Y-118277417D03*
G04 #@! TD*
D31*
G04 #@! TO.C,C32*
X113836404Y-111810673D03*
X114796404Y-111810673D03*
G04 #@! TD*
D15*
G04 #@! TO.C,C24*
X114879071Y-100731126D03*
X113919071Y-100731126D03*
G04 #@! TD*
D22*
G04 #@! TO.C,C40*
X115678016Y-119573629D03*
X115678016Y-118613629D03*
G04 #@! TD*
D36*
G04 #@! TO.C,C54*
X127942740Y-117000667D03*
X129492740Y-117000667D03*
G04 #@! TD*
M02*
