G04 #@! TF.GenerationSoftware,KiCad,Pcbnew,7.0.11+dfsg-1build4*
G04 #@! TF.CreationDate,2026-09-25T14:12:41+00:00*
G04 #@! TF.ProjectId,main-board,6d61696e-2d62-46f6-9172-642e6b696361,A*
G04 #@! TF.SameCoordinates,Original*
G04 #@! TF.FileFunction,Copper,L3,Inr*
G04 #@! TF.FilePolarity,Positive*
%FSLAX46Y46*%
G04 Gerber Fmt 4.6, Leading zero omitted, Abs format (unit mm)*
G04 Created by KiCad (PCBNEW 7.0.11+dfsg-1build4) date 2026-09-25 14:12:41*
%MOMM*%
%LPD*%
G01*
G04 APERTURE LIST*
G04 #@! TA.AperFunction,ComponentPad*
%ADD10C,0.700000*%
G04 #@! TD*
G04 #@! TA.AperFunction,ComponentPad*
%ADD11C,4.400000*%
G04 #@! TD*
G04 #@! TA.AperFunction,ComponentPad*
%ADD12C,0.500000*%
G04 #@! TD*
G04 #@! TA.AperFunction,ComponentPad*
%ADD13O,1.000000X2.100000*%
G04 #@! TD*
G04 #@! TA.AperFunction,ComponentPad*
%ADD14O,1.000000X1.600000*%
G04 #@! TD*
G04 #@! TA.AperFunction,HeatsinkPad*
%ADD15C,0.500000*%
G04 #@! TD*
G04 #@! TA.AperFunction,ViaPad*
%ADD16C,0.600000*%
G04 #@! TD*
G04 #@! TA.AperFunction,ViaPad*
%ADD17C,0.500000*%
G04 #@! TD*
G04 #@! TA.AperFunction,ViaPad*
%ADD18C,0.450000*%
G04 #@! TD*
G04 #@! TA.AperFunction,ViaPad*
%ADD19C,0.700000*%
G04 #@! TD*
G04 #@! TA.AperFunction,Conductor*
%ADD20C,0.150000*%
G04 #@! TD*
G04 #@! TA.AperFunction,Conductor*
%ADD21C,0.300000*%
G04 #@! TD*
G04 #@! TA.AperFunction,Conductor*
%ADD22C,0.200000*%
G04 #@! TD*
G04 APERTURE END LIST*
D10*
G04 #@! TO.N,GND*
G04 #@! TO.C,H2*
X151150000Y-122800000D03*
X151633274Y-121633274D03*
X151633274Y-123966726D03*
X152800000Y-121150000D03*
D11*
X152800000Y-122800000D03*
D10*
X152800000Y-124450000D03*
X153966726Y-121633274D03*
X153966726Y-123966726D03*
X154450000Y-122800000D03*
G04 #@! TD*
D12*
G04 #@! TO.N,GND*
G04 #@! TO.C,U3*
X112425000Y-88000000D03*
X113000000Y-87050000D03*
X113000000Y-88950000D03*
X113575000Y-88000000D03*
G04 #@! TD*
D10*
G04 #@! TO.N,GND*
G04 #@! TO.C,H1*
X105550000Y-88800000D03*
X106033274Y-87633274D03*
X106033274Y-89966726D03*
X107200000Y-87150000D03*
D11*
X107200000Y-88800000D03*
D10*
X107200000Y-90450000D03*
X108366726Y-87633274D03*
X108366726Y-89966726D03*
X108850000Y-88800000D03*
G04 #@! TD*
D13*
G04 #@! TO.N,SHIELD*
G04 #@! TO.C,J1*
X145320000Y-86830000D03*
D14*
X145320000Y-82650000D03*
D13*
X136680000Y-86830000D03*
D14*
X136680000Y-82650000D03*
G04 #@! TD*
D15*
G04 #@! TO.N,GND*
G04 #@! TO.C,U10*
X132450000Y-120950000D03*
X132450000Y-122050000D03*
X133550000Y-120950000D03*
X133550000Y-122050000D03*
G04 #@! TD*
D10*
G04 #@! TO.N,GND*
G04 #@! TO.C,H3*
X105150000Y-123200000D03*
X105633274Y-122033274D03*
X105633274Y-124366726D03*
X106800000Y-121550000D03*
D11*
X106800000Y-123200000D03*
D10*
X106800000Y-124850000D03*
X107966726Y-122033274D03*
X107966726Y-124366726D03*
X108450000Y-123200000D03*
G04 #@! TD*
D16*
G04 #@! TO.N,GND*
X148750000Y-106250000D03*
X148750000Y-121250000D03*
X116250000Y-81250000D03*
X115735726Y-95045744D03*
X146250000Y-108750000D03*
D17*
X124000000Y-110825000D03*
D16*
X146250000Y-103750000D03*
X146250000Y-123750000D03*
D18*
X136850000Y-88595000D03*
D16*
X131250000Y-83750000D03*
X113651622Y-99569541D03*
X108750000Y-93750000D03*
X151250000Y-118750000D03*
X148750000Y-108750000D03*
X106871500Y-101340476D03*
D18*
X143332914Y-90704455D03*
D16*
X148750000Y-103750000D03*
X148750000Y-111250000D03*
D18*
X113954044Y-122340722D03*
D16*
X146250000Y-128750000D03*
X118750000Y-81250000D03*
X146250000Y-118750000D03*
X151250000Y-106250000D03*
X103750000Y-91250000D03*
D18*
X148262500Y-95050000D03*
D16*
X143750000Y-106250000D03*
X143750000Y-126250000D03*
X133750000Y-81250000D03*
X148750000Y-126250000D03*
X153762499Y-95775500D03*
D18*
X124375244Y-125906062D03*
D16*
X131250000Y-81250000D03*
D18*
X144900000Y-88595000D03*
D16*
X151250000Y-126250000D03*
X151250000Y-83750000D03*
X133750000Y-83750000D03*
X143750000Y-123750000D03*
D17*
X138729266Y-91726085D03*
D16*
X158750000Y-116250000D03*
X118750000Y-83750000D03*
X153750000Y-118750000D03*
X106250000Y-93750000D03*
X143750000Y-116250000D03*
X156250000Y-88750000D03*
D18*
X112024999Y-118862500D03*
D16*
X146250000Y-106250000D03*
X153750000Y-86250000D03*
X120807500Y-102929158D03*
D18*
X122737500Y-121524999D03*
D16*
X156250000Y-116250000D03*
X151250000Y-108750000D03*
X148750000Y-118750000D03*
X148750000Y-116250000D03*
D18*
X113087500Y-116875000D03*
D16*
X143750000Y-121250000D03*
X148750000Y-123750000D03*
X140689597Y-106125500D03*
X119030229Y-123697825D03*
X112425493Y-111540534D03*
X118750000Y-86250000D03*
D18*
X110521677Y-122878960D03*
D16*
X111250000Y-126250000D03*
X146250000Y-126250000D03*
X146250000Y-121250000D03*
X117892500Y-94973545D03*
X151250000Y-86250000D03*
X151250000Y-116250000D03*
D17*
X142269308Y-102478117D03*
D16*
X158750000Y-93750000D03*
X103750000Y-93750000D03*
X138468499Y-96774113D03*
X156250000Y-118750000D03*
D18*
X132805804Y-114595664D03*
X121075000Y-109250000D03*
X115497963Y-97134746D03*
D16*
X108750000Y-96250000D03*
X133750000Y-86250000D03*
X143750000Y-128750000D03*
X146250000Y-111250000D03*
X101250000Y-93750000D03*
X116250000Y-83750000D03*
X122401217Y-96813318D03*
X156250000Y-121250000D03*
G04 #@! TO.N,USB_DP*
X139717000Y-86412500D03*
X135970000Y-98707800D03*
G04 #@! TO.N,USB_DM*
X136421000Y-101953000D03*
X140998000Y-91973900D03*
X141962000Y-86562700D03*
D19*
G04 #@! TO.N,VBUS_F*
X146509000Y-98474100D03*
X145760000Y-100971000D03*
D16*
G04 #@! TO.N,VBUS_SNS*
X143661000Y-99827300D03*
X142329300Y-99827300D03*
G04 #@! TO.N,CHG_STAT_RAW*
X153633000Y-94193500D03*
X141822000Y-94193500D03*
G04 #@! TO.N,CHG_STAT*
X136954000Y-95284100D03*
X132260000Y-95284100D03*
D19*
G04 #@! TO.N,VSYS*
X114808000Y-90415600D03*
X116500000Y-92573200D03*
X116500000Y-127475000D03*
X143366000Y-93573100D03*
X111518000Y-89869300D03*
D16*
G04 #@! TO.N,VBAT_SNS*
X139704000Y-103047000D03*
X140400000Y-105127000D03*
X118418000Y-106762000D03*
X123595000Y-106521000D03*
G04 #@! TO.N,BTN_HI*
X118270000Y-125325000D03*
X118836000Y-101629000D03*
X118967000Y-120235000D03*
G04 #@! TO.N,PWR_HOLD*
X118767000Y-95389400D03*
X131500000Y-95389400D03*
D18*
G04 #@! TO.N,BTN_B*
X122219626Y-117691245D03*
X122519626Y-126096212D03*
X119719626Y-125846212D03*
X120169626Y-120146211D03*
D16*
G04 #@! TO.N,BTN*
X120480000Y-108830000D03*
X124152000Y-108133000D03*
D19*
G04 #@! TO.N,3V3*
X116875000Y-102130000D03*
X135572000Y-111338000D03*
X141923000Y-111067000D03*
X124862000Y-103889000D03*
X129247000Y-114738000D03*
X138386000Y-98289500D03*
X120975000Y-104281000D03*
G04 #@! TO.N,2V8A*
X123603000Y-90500000D03*
X126478000Y-117130000D03*
X154500000Y-117833000D03*
D18*
X122125000Y-108700000D03*
D19*
X109537000Y-115195000D03*
X129146000Y-120930000D03*
X127317000Y-126419000D03*
X109063000Y-120619000D03*
X107736000Y-120096000D03*
X120362000Y-114275000D03*
X106567000Y-104833000D03*
D18*
X120825000Y-110300000D03*
D16*
G04 #@! TO.N,REF_L*
X126501000Y-123950000D03*
X133532000Y-114044000D03*
X128155000Y-113985000D03*
X118887000Y-110370000D03*
G04 #@! TO.N,ERR_L*
X126751000Y-111385000D03*
X122779000Y-128593000D03*
X136111000Y-117148000D03*
X118560000Y-114260000D03*
G04 #@! TO.N,REF_R*
X132334000Y-110451000D03*
X138825000Y-113549000D03*
G04 #@! TO.N,DAC_R*
X120372000Y-112816000D03*
X125500000Y-109782000D03*
G04 #@! TO.N,HSE_IN*
X123716000Y-103225000D03*
X120063000Y-102237000D03*
X120396000Y-105551000D03*
G04 #@! TO.N,HSE_OUT*
X115468000Y-100137000D03*
X124731000Y-99516500D03*
X123751000Y-104639000D03*
X117526000Y-99667200D03*
G04 #@! TO.N,LED_R*
X130322000Y-117830000D03*
X130246000Y-111419000D03*
G04 #@! TO.N,LED_B*
X133232000Y-111069000D03*
X133952000Y-117267000D03*
G04 #@! TO.N,AMP_EN*
X133366000Y-109576000D03*
X136611000Y-118746000D03*
G04 #@! TO.N,AMP_G0*
X130527000Y-108953000D03*
X135424000Y-125340000D03*
G04 #@! TO.N,AMP_G1*
X134925000Y-126483000D03*
X130000000Y-104076000D03*
G04 #@! TO.N,BLE_TX*
X125111000Y-86705700D03*
X135700000Y-108201000D03*
G04 #@! TO.N,BLE_RX*
X135531000Y-107156000D03*
X124447000Y-87773400D03*
G04 #@! TO.N,BLE_EN*
X123903000Y-86654300D03*
X135361000Y-106234000D03*
G04 #@! TO.N,BLE_STATE*
X139113000Y-108936000D03*
X122663000Y-86411700D03*
G04 #@! TO.N,I2C1_SCL*
X119349000Y-92482600D03*
X128075000Y-92482600D03*
G04 #@! TO.N,NRST*
X123579000Y-105418000D03*
X132889000Y-96071100D03*
X115623000Y-100917000D03*
D19*
G04 #@! TO.N,VCAP*
X136325000Y-99946100D03*
X142335000Y-101365000D03*
X134754000Y-110893000D03*
X135116000Y-117306000D03*
D16*
G04 #@! TO.N,BOOT0*
X142248000Y-104310000D03*
X127000000Y-104527000D03*
G04 #@! TO.N,LED_R_K*
X130608000Y-120649000D03*
G04 #@! TO.N,LED_G_K*
X131156000Y-119298000D03*
G04 #@! TO.N,LED_B_K*
X134479000Y-119294000D03*
G04 #@! TO.N,VMID*
X120798000Y-113499000D03*
X112740000Y-119854000D03*
X117486000Y-123351000D03*
X117534000Y-117401000D03*
D18*
G04 #@! TO.N,DACL_OUT*
X123737898Y-124580447D03*
X126987898Y-125130447D03*
X122227703Y-119675000D03*
G04 #@! TO.N,VMID_DIV*
X115237500Y-121825000D03*
X115537500Y-111866250D03*
X114637500Y-116325000D03*
D16*
G04 #@! TO.N,REFL_AN*
X109908000Y-97552300D03*
X109908000Y-107240000D03*
G04 #@! TO.N,REFL_P*
X111873000Y-99014000D03*
X111775000Y-109582000D03*
G04 #@! TO.N,REFL_SKA*
X113137000Y-108543000D03*
X106285000Y-110241000D03*
G04 #@! TO.N,REFL_OUT*
X110825000Y-107352000D03*
X116985000Y-108882000D03*
G04 #@! TO.N,ERRL_AP*
X106652000Y-116563000D03*
X101313000Y-116563000D03*
G04 #@! TO.N,ERRL_SKB*
X112173000Y-113232000D03*
X102927000Y-113675000D03*
X113599000Y-120034000D03*
G04 #@! TO.N,ERRL_OUT*
X119007000Y-115530000D03*
X110825000Y-115530000D03*
D19*
G04 #@! TO.N,SPK_R*
X149662000Y-113062000D03*
X131707000Y-123679000D03*
D16*
G04 #@! TO.N,DACL_A*
X124590000Y-115984000D03*
X124204000Y-121612000D03*
D18*
G04 #@! TO.N,AMP_INLN*
X131562500Y-120700000D03*
X132412500Y-124100000D03*
G04 #@! TO.N,DACR_A*
X120710876Y-118290645D03*
X120660876Y-121240645D03*
D16*
G04 #@! TO.N,DACR_OUT*
X126021000Y-116204000D03*
X122557000Y-122958000D03*
X125933000Y-119764000D03*
G04 #@! TO.N,AMP_INRP*
X127362000Y-116024000D03*
X129788000Y-122256000D03*
G04 #@! TO.N,AMP_INRN*
X130967000Y-125740000D03*
X130643000Y-122719000D03*
D19*
G04 #@! TO.N,3V3_AMP*
X139778000Y-120015000D03*
X133074000Y-117478000D03*
D18*
G04 #@! TO.N,SPK_L*
X125300000Y-119212500D03*
X132100000Y-119812500D03*
X138200000Y-125662500D03*
X127650000Y-125062500D03*
D19*
G04 #@! TO.N,HPVSS*
X134761000Y-122939000D03*
X136597000Y-124842000D03*
G04 #@! TD*
D20*
G04 #@! TO.N,USB_DP*
X135970000Y-90159500D02*
X139717000Y-86412500D01*
X135970000Y-98707800D02*
X135970000Y-90159500D01*
G04 #@! TO.N,USB_DM*
X137722000Y-100651000D02*
X136421000Y-101953000D01*
X137722000Y-95249900D02*
X137722000Y-100651000D01*
X140998000Y-91973900D02*
X141962000Y-91009800D01*
X140998000Y-91973900D02*
X137722000Y-95249900D01*
X141962000Y-91009800D02*
X141962000Y-86562700D01*
G04 #@! TO.N,SHIELD*
X136680000Y-82650000D02*
X136680000Y-86830000D01*
D21*
G04 #@! TO.N,VBUS_F*
X146509000Y-100222000D02*
X145760000Y-100971000D01*
X146509000Y-98474100D02*
X146509000Y-100222000D01*
G04 #@! TO.N,VSYS*
X116500000Y-92107600D02*
X114808000Y-90415600D01*
X116112000Y-101928000D02*
X116112000Y-127087000D01*
X116500000Y-101541000D02*
X116112000Y-101928000D01*
X116500000Y-92573200D02*
X116500000Y-101541000D01*
X116112000Y-127087000D02*
X116500000Y-127475000D01*
X116500000Y-92573200D02*
X116500000Y-92107600D01*
D20*
G04 #@! TO.N,VBAT_SNS*
X139704000Y-103047000D02*
X139704000Y-104431000D01*
X139704000Y-104431000D02*
X140400000Y-105127000D01*
G04 #@! TO.N,BTN_HI*
X117890000Y-102575000D02*
X117890000Y-106980000D01*
X118003000Y-107094000D02*
X118003000Y-117083000D01*
X118270000Y-120235000D02*
X118967000Y-120235000D01*
X118836000Y-101629000D02*
X117890000Y-102575000D01*
X118270000Y-117350000D02*
X118270000Y-120235000D01*
X118003000Y-117083000D02*
X118270000Y-117350000D01*
X118270000Y-120235000D02*
X118270000Y-125325000D01*
X117890000Y-106980000D02*
X118003000Y-107094000D01*
G04 #@! TO.N,BTN_B*
X120169626Y-120146211D02*
X120169626Y-125396211D01*
X120169626Y-125396211D02*
X119719626Y-125846212D01*
D21*
G04 #@! TO.N,3V3*
X141923000Y-110853000D02*
X138386000Y-107315000D01*
X141923000Y-111067000D02*
X141923000Y-110853000D01*
X138386000Y-107315000D02*
X138386000Y-98289500D01*
X129247000Y-108274000D02*
X129247000Y-114738000D01*
X124862000Y-103889000D02*
X129247000Y-108274000D01*
G04 #@! TO.N,2V8A*
X121625000Y-109450000D02*
X121625000Y-109350000D01*
X120825000Y-110300000D02*
X121575000Y-109550000D01*
X121175000Y-112150000D02*
X121125000Y-112100000D01*
X121575000Y-109500000D02*
X121625000Y-109450000D01*
X121175000Y-112850000D02*
X121175000Y-112150000D01*
X121675000Y-108309000D02*
X122075000Y-108709000D01*
X121625000Y-109350000D02*
X121675000Y-109300000D01*
X121575000Y-109550000D02*
X121575000Y-109500000D01*
X121675000Y-109300000D02*
X121675000Y-109150000D01*
X121694000Y-92408700D02*
X123603000Y-90500000D01*
X121694000Y-113497000D02*
X121675000Y-113350000D01*
X121675000Y-113350000D02*
X121175000Y-112850000D01*
X109063000Y-120619000D02*
X109537000Y-120144000D01*
X120916000Y-114275000D02*
X121694000Y-113497000D01*
X109537000Y-115195000D02*
X109537000Y-107803000D01*
X121675000Y-109150000D02*
X122125000Y-108700000D01*
X121694000Y-92409000D02*
X121675000Y-108309000D01*
X109537000Y-120144000D02*
X109537000Y-115195000D01*
X120362000Y-114275000D02*
X120916000Y-114275000D01*
X121125000Y-112100000D02*
X121125000Y-110550000D01*
X109537000Y-107803000D02*
X106567000Y-104833000D01*
X121125000Y-110550000D02*
X120875000Y-110300000D01*
D22*
G04 #@! TO.N,REF_L*
X126501000Y-123950000D02*
X128155000Y-122296000D01*
X128155000Y-122296000D02*
X128155000Y-113985000D01*
G04 #@! TO.N,ERR_L*
X121705000Y-116320000D02*
X126641000Y-111385000D01*
X126641000Y-111385000D02*
X126751000Y-111385000D01*
X120620000Y-116320000D02*
X121705000Y-116320000D01*
X118560000Y-114260000D02*
X120620000Y-116320000D01*
X122779000Y-128593000D02*
X121542000Y-127357000D01*
X121542000Y-127357000D02*
X121542000Y-122353000D01*
X121542000Y-122353000D02*
X121705000Y-122191000D01*
X121705000Y-122191000D02*
X121705000Y-116320000D01*
G04 #@! TO.N,REF_R*
X138825000Y-113549000D02*
X135531000Y-110255000D01*
X135531000Y-110255000D02*
X132531000Y-110255000D01*
X132531000Y-110255000D02*
X132334000Y-110451000D01*
D20*
G04 #@! TO.N,HSE_IN*
X120396000Y-105551000D02*
X120063000Y-105218000D01*
X120063000Y-105218000D02*
X120063000Y-102237000D01*
G04 #@! TO.N,HSE_OUT*
X123751000Y-104141000D02*
X124731000Y-103162000D01*
X123751000Y-104639000D02*
X123751000Y-104141000D01*
X124731000Y-103162000D02*
X124731000Y-99516500D01*
G04 #@! TO.N,LED_R*
X130322000Y-117830000D02*
X130246000Y-117754000D01*
X130246000Y-117754000D02*
X130246000Y-111419000D01*
G04 #@! TO.N,LED_B*
X134113000Y-111950000D02*
X133232000Y-111069000D01*
X134113000Y-117106000D02*
X134113000Y-111950000D01*
X133952000Y-117267000D02*
X134113000Y-117106000D01*
G04 #@! TO.N,AMP_EN*
X131769000Y-117080000D02*
X131769000Y-110199000D01*
X133434000Y-118746000D02*
X131769000Y-117080000D01*
X136611000Y-118746000D02*
X133434000Y-118746000D01*
X132392000Y-109576000D02*
X133366000Y-109576000D01*
X131769000Y-110199000D02*
X132392000Y-109576000D01*
G04 #@! TO.N,AMP_G0*
X134057000Y-123973000D02*
X134057000Y-120311000D01*
X131467000Y-117721000D02*
X131467000Y-109892000D01*
X131467000Y-109892000D02*
X130527000Y-108953000D01*
X135424000Y-125340000D02*
X134057000Y-123973000D01*
X134057000Y-120311000D02*
X131467000Y-117721000D01*
G04 #@! TO.N,AMP_G1*
X130773000Y-110295000D02*
X130000000Y-109522000D01*
X133043000Y-124600000D02*
X133043000Y-119724000D01*
X134925000Y-126483000D02*
X133043000Y-124600000D01*
X133043000Y-119724000D02*
X130773000Y-117454000D01*
X130000000Y-109522000D02*
X130000000Y-104076000D01*
X130773000Y-117454000D02*
X130773000Y-110295000D01*
G04 #@! TO.N,BLE_TX*
X136081000Y-106106000D02*
X126247000Y-96271500D01*
X136081000Y-107819000D02*
X136081000Y-106106000D01*
X135700000Y-108201000D02*
X136081000Y-107819000D01*
X126247000Y-87841900D02*
X125111000Y-86705700D01*
X126247000Y-96271500D02*
X126247000Y-87841900D01*
G04 #@! TO.N,BLE_RX*
X132394000Y-103960000D02*
X124447000Y-96012800D01*
X132394000Y-104019000D02*
X132394000Y-103960000D01*
X135531000Y-107156000D02*
X132394000Y-104019000D01*
X124447000Y-96012800D02*
X124447000Y-87773400D01*
G04 #@! TO.N,BLE_EN*
X135361000Y-106234000D02*
X124981000Y-95854300D01*
X124981000Y-95854300D02*
X124981000Y-87488300D01*
X124981000Y-87488300D02*
X124147000Y-86654300D01*
X124147000Y-86654300D02*
X123903000Y-86654300D01*
G04 #@! TO.N,BLE_STATE*
X127433000Y-97030200D02*
X127433000Y-88277400D01*
X122947000Y-86127300D02*
X122663000Y-86411700D01*
X127433000Y-88277400D02*
X125283000Y-86127300D01*
X139113000Y-108936000D02*
X139113000Y-108710000D01*
X139113000Y-108710000D02*
X127433000Y-97030200D01*
X125283000Y-86127300D02*
X122947000Y-86127300D01*
D21*
G04 #@! TO.N,VCAP*
X138592000Y-115379000D02*
X135116000Y-115379000D01*
X135116000Y-115379000D02*
X134754000Y-115017000D01*
X134754000Y-115017000D02*
X134754000Y-110893000D01*
X142886000Y-111085000D02*
X138592000Y-115379000D01*
X135116000Y-115379000D02*
X135116000Y-117306000D01*
X142335000Y-101365000D02*
X142886000Y-101916000D01*
X142886000Y-101916000D02*
X142886000Y-111085000D01*
D22*
G04 #@! TO.N,VMID*
X117534000Y-123303000D02*
X117486000Y-123351000D01*
X117534000Y-117401000D02*
X117534000Y-123303000D01*
G04 #@! TO.N,DACL_OUT*
X126987898Y-125130447D02*
X124287898Y-125130447D01*
X124287898Y-125130447D02*
X123737898Y-124580447D01*
G04 #@! TO.N,VMID_DIV*
X114637500Y-116325000D02*
X114637500Y-121225000D01*
X115537500Y-115416250D02*
X114637500Y-116316250D01*
X115537500Y-111866250D02*
X115537500Y-115416250D01*
X114637500Y-121225000D02*
X115237500Y-121825000D01*
G04 #@! TO.N,REFL_AN*
X109908000Y-97552300D02*
X109908000Y-107240000D01*
G04 #@! TO.N,REFL_P*
X111873000Y-99014000D02*
X111775000Y-99112400D01*
X111775000Y-99112400D02*
X111775000Y-109582000D01*
G04 #@! TO.N,ERRL_SKB*
X113599000Y-114658000D02*
X113599000Y-120034000D01*
X112173000Y-113232000D02*
X113599000Y-114658000D01*
D21*
G04 #@! TO.N,SPK_R*
X149662000Y-113062000D02*
X135581000Y-127143000D01*
X134666000Y-127143000D02*
X131707000Y-124184000D01*
X135581000Y-127143000D02*
X134666000Y-127143000D01*
X131707000Y-124184000D02*
X131707000Y-123679000D01*
D22*
G04 #@! TO.N,DACL_A*
X124590000Y-115984000D02*
X124204000Y-116370000D01*
X124204000Y-116370000D02*
X124204000Y-121612000D01*
D20*
G04 #@! TO.N,AMP_INLN*
X132312500Y-124000000D02*
X132412500Y-124100000D01*
X131562500Y-120700000D02*
X131562500Y-122650000D01*
X132262499Y-123350000D02*
X132262499Y-123400000D01*
X132262499Y-123400000D02*
X132312500Y-123450000D01*
X131562500Y-122650000D02*
X132262499Y-123350000D01*
X132312500Y-123450000D02*
X132312500Y-124000000D01*
D22*
G04 #@! TO.N,DACR_A*
X120660876Y-120290645D02*
X120710876Y-120240645D01*
X120660876Y-121240645D02*
X120660876Y-120290645D01*
X120710876Y-120240645D02*
X120710876Y-118290645D01*
G04 #@! TO.N,DACR_OUT*
X125846000Y-119678000D02*
X125846000Y-116378000D01*
X125933000Y-120708000D02*
X123683000Y-122958000D01*
X125933000Y-119764000D02*
X125846000Y-119678000D01*
X125933000Y-119764000D02*
X125933000Y-120708000D01*
X123683000Y-122958000D02*
X122557000Y-122958000D01*
X125846000Y-116378000D02*
X126021000Y-116204000D01*
G04 #@! TO.N,AMP_INRP*
X127362000Y-121152000D02*
X127362000Y-116024000D01*
X127470000Y-124574000D02*
X126303000Y-124574000D01*
X126303000Y-124574000D02*
X125906000Y-124178000D01*
X125906000Y-124178000D02*
X125906000Y-122608000D01*
X125906000Y-122608000D02*
X127362000Y-121152000D01*
X129788000Y-122256000D02*
X127470000Y-124574000D01*
G04 #@! TO.N,AMP_INRN*
X130967000Y-125740000D02*
X130643000Y-125417000D01*
X130643000Y-125417000D02*
X130643000Y-122719000D01*
D21*
G04 #@! TO.N,3V3_AMP*
X139778000Y-120015000D02*
X137752000Y-117989000D01*
X137752000Y-117989000D02*
X133585000Y-117989000D01*
X133585000Y-117989000D02*
X133074000Y-117478000D01*
D22*
G04 #@! TO.N,SPK_L*
X127650000Y-125062500D02*
X129449999Y-125062500D01*
X130699999Y-126262500D02*
X130750000Y-126312500D01*
X129750000Y-117962500D02*
X129699999Y-117912500D01*
X128750000Y-113712500D02*
X128550000Y-113512500D01*
X128650000Y-115012500D02*
X128650000Y-114962500D01*
X128699999Y-115062500D02*
X128650000Y-115012500D01*
X128250000Y-113412500D02*
X128199999Y-113362500D01*
X129449999Y-125062500D02*
X130650000Y-126262500D01*
X128500000Y-113512500D02*
X128400000Y-113412500D01*
X132100000Y-119412500D02*
X131449999Y-118762500D01*
X131400000Y-118762500D02*
X131350000Y-118712500D01*
X134550000Y-127562500D02*
X134600000Y-127612500D01*
X125400000Y-119112500D02*
X125300000Y-119212500D01*
X134450000Y-127562500D02*
X134550000Y-127562500D01*
X129699999Y-116112500D02*
X128699999Y-115112500D01*
X130350000Y-118712500D02*
X129800000Y-118162500D01*
X130900000Y-126362500D02*
X133250000Y-126362500D01*
X132100000Y-119812500D02*
X132100000Y-119412500D01*
X133250000Y-126362500D02*
X134450000Y-127562500D01*
X129699999Y-117912500D02*
X129699999Y-116112500D01*
X131449999Y-118762500D02*
X131400000Y-118762500D01*
X125450000Y-115962500D02*
X125450000Y-116062500D01*
X125550000Y-115812500D02*
X125550000Y-115862500D01*
X128699999Y-114262500D02*
X128699999Y-114212500D01*
X131350000Y-118712500D02*
X130350000Y-118712500D01*
X127600000Y-113762500D02*
X125550000Y-115812500D01*
X130650000Y-126262500D02*
X130699999Y-126262500D01*
X130850000Y-126312500D02*
X130900000Y-126362500D01*
X127950000Y-113362500D02*
X127600000Y-113712500D01*
X125550000Y-115862500D02*
X125450000Y-115962500D01*
X128650000Y-114962500D02*
X128600000Y-114912500D01*
X127600000Y-113712500D02*
X127600000Y-113762500D01*
X130750000Y-126312500D02*
X130850000Y-126312500D01*
X129750000Y-118062500D02*
X129750000Y-117962500D01*
X136250000Y-127612500D02*
X138200000Y-125662500D01*
X128750000Y-114162500D02*
X128750000Y-113712500D01*
X129800000Y-118112500D02*
X129750000Y-118062500D01*
X128400000Y-113412500D02*
X128250000Y-113412500D01*
X128699999Y-114212500D02*
X128750000Y-114162500D01*
X129800000Y-118162500D02*
X129800000Y-118112500D01*
X128600000Y-114912500D02*
X128600000Y-114362500D01*
X134600000Y-127612500D02*
X136250000Y-127612500D01*
X125400000Y-116112500D02*
X125400000Y-119112500D01*
X128600000Y-114362500D02*
X128699999Y-114262500D01*
X128199999Y-113362500D02*
X127950000Y-113362500D01*
X125450000Y-116062500D02*
X125400000Y-116112500D01*
X128550000Y-113512500D02*
X128500000Y-113512500D01*
X128699999Y-115112500D02*
X128699999Y-115062500D01*
D21*
G04 #@! TO.N,HPVSS*
X134761000Y-122939000D02*
X136597000Y-124774000D01*
X136597000Y-124774000D02*
X136597000Y-124842000D01*
G04 #@! TD*
M02*
