G04 #@! TF.GenerationSoftware,KiCad,Pcbnew,7.0.11+dfsg-1build4*
G04 #@! TF.CreationDate,2026-09-25T14:12:41+00:00*
G04 #@! TF.ProjectId,main-board,6d61696e-2d62-46f6-9172-642e6b696361,A*
G04 #@! TF.SameCoordinates,Original*
G04 #@! TF.FileFunction,Soldermask,Bot*
G04 #@! TF.FilePolarity,Negative*
%FSLAX46Y46*%
G04 Gerber Fmt 4.6, Leading zero omitted, Abs format (unit mm)*
G04 Created by KiCad (PCBNEW 7.0.11+dfsg-1build4) date 2026-09-25 14:12:41*
%MOMM*%
%LPD*%
G01*
G04 APERTURE LIST*
G04 Aperture macros list*
%AMRoundRect*
0 Rectangle with rounded corners*
0 $1 Rounding radius*
0 $2 $3 $4 $5 $6 $7 $8 $9 X,Y pos of 4 corners*
0 Add a 4 corners polygon primitive as box body*
4,1,4,$2,$3,$4,$5,$6,$7,$8,$9,$2,$3,0*
0 Add four circle primitives for the rounded corners*
1,1,$1+$1,$2,$3*
1,1,$1+$1,$4,$5*
1,1,$1+$1,$6,$7*
1,1,$1+$1,$8,$9*
0 Add four rect primitives between the rounded corners*
20,1,$1+$1,$2,$3,$4,$5,0*
20,1,$1+$1,$4,$5,$6,$7,0*
20,1,$1+$1,$6,$7,$8,$9,0*
20,1,$1+$1,$8,$9,$2,$3,0*%
G04 Aperture macros list end*
%ADD10C,0.700000*%
%ADD11C,4.400000*%
%ADD12C,0.650000*%
%ADD13O,1.000000X2.100000*%
%ADD14O,1.000000X1.600000*%
%ADD15RoundRect,0.218750X-0.256250X0.218750X-0.256250X-0.218750X0.256250X-0.218750X0.256250X0.218750X0*%
%ADD16R,1.050000X0.650000*%
G04 APERTURE END LIST*
D10*
G04 #@! TO.C,H2*
X151150000Y-122800000D03*
X151633274Y-121633274D03*
X151633274Y-123966726D03*
X152800000Y-121150000D03*
D11*
X152800000Y-122800000D03*
D10*
X152800000Y-124450000D03*
X153966726Y-121633274D03*
X153966726Y-123966726D03*
X154450000Y-122800000D03*
G04 #@! TD*
G04 #@! TO.C,H1*
X105550000Y-88800000D03*
X106033274Y-87633274D03*
X106033274Y-89966726D03*
X107200000Y-87150000D03*
D11*
X107200000Y-88800000D03*
D10*
X107200000Y-90450000D03*
X108366726Y-87633274D03*
X108366726Y-89966726D03*
X108850000Y-88800000D03*
G04 #@! TD*
D12*
G04 #@! TO.C,J1*
X143890000Y-86300000D03*
X138110000Y-86300000D03*
D13*
X145320000Y-86830000D03*
D14*
X145320000Y-82650000D03*
D13*
X136680000Y-86830000D03*
D14*
X136680000Y-82650000D03*
G04 #@! TD*
D10*
G04 #@! TO.C,H3*
X105150000Y-123200000D03*
X105633274Y-122033274D03*
X105633274Y-124366726D03*
X106800000Y-121550000D03*
D11*
X106800000Y-123200000D03*
D10*
X106800000Y-124850000D03*
X107966726Y-122033274D03*
X107966726Y-124366726D03*
X108450000Y-123200000D03*
G04 #@! TD*
D15*
G04 #@! TO.C,D4*
X129199999Y-126812500D03*
X129199999Y-128387500D03*
G04 #@! TD*
G04 #@! TO.C,D5*
X131199999Y-126812500D03*
X131199999Y-128387500D03*
G04 #@! TD*
D16*
G04 #@! TO.C,SW1*
X121725000Y-127475000D03*
X125875000Y-127475000D03*
X121725000Y-125325000D03*
X125875000Y-125325000D03*
G04 #@! TD*
D15*
G04 #@! TO.C,D6*
X133199999Y-126812500D03*
X133199999Y-128387500D03*
G04 #@! TD*
M02*
