G04 #@! TF.GenerationSoftware,KiCad,Pcbnew,7.0.11+dfsg-1build4*
G04 #@! TF.CreationDate,2026-09-25T14:12:41+00:00*
G04 #@! TF.ProjectId,main-board,6d61696e-2d62-46f6-9172-642e6b696361,A*
G04 #@! TF.SameCoordinates,Original*
G04 #@! TF.FileFunction,Legend,Top*
G04 #@! TF.FilePolarity,Positive*
%FSLAX46Y46*%
G04 Gerber Fmt 4.6, Leading zero omitted, Abs format (unit mm)*
G04 Created by KiCad (PCBNEW 7.0.11+dfsg-1build4) date 2026-09-25 14:12:41*
%MOMM*%
%LPD*%
G01*
G04 APERTURE LIST*
%ADD10C,0.120000*%
G04 APERTURE END LIST*
D10*
G04 #@! TO.C,TP5*
X112955145Y-124029287D02*
G75*
G03*
X111555145Y-124029287I-700000J0D01*
G01*
X111555145Y-124029287D02*
G75*
G03*
X112955145Y-124029287I700000J0D01*
G01*
G04 #@! TO.C,U5*
X122890000Y-97890000D02*
X122890000Y-98590000D01*
X122890000Y-112110000D02*
X122890000Y-111410000D01*
X123590000Y-97890000D02*
X122890000Y-97890000D01*
X123590000Y-112110000D02*
X122890000Y-112110000D01*
X136410000Y-97890000D02*
X137110000Y-97890000D01*
X136410000Y-112110000D02*
X137110000Y-112110000D01*
X137110000Y-97890000D02*
X137110000Y-98590000D01*
X137110000Y-112110000D02*
X137110000Y-111410000D01*
X122262500Y-98590000D02*
X121922500Y-98120000D01*
X122602500Y-98120000D01*
X122262500Y-98590000D01*
G36*
X122262500Y-98590000D02*
G01*
X121922500Y-98120000D01*
X122602500Y-98120000D01*
X122262500Y-98590000D01*
G37*
G04 #@! TO.C,C44*
X110681677Y-123941125D02*
X110681677Y-124156797D01*
X109961677Y-123941125D02*
X109961677Y-124156797D01*
G04 #@! TO.C,R23*
X117724928Y-118253670D02*
X118032210Y-118253670D01*
X117724928Y-119013670D02*
X118032210Y-119013670D01*
G04 #@! TO.C,R22*
X115217685Y-122720722D02*
X114910403Y-122720722D01*
X115217685Y-121960722D02*
X114910403Y-121960722D01*
G04 #@! TO.C,C56*
X114377124Y-97409868D02*
X114161452Y-97409868D01*
X114377124Y-96689868D02*
X114161452Y-96689868D01*
G04 #@! TO.C,J5*
X105185000Y-95890000D02*
X105185000Y-96940000D01*
X102685000Y-95890000D02*
X105185000Y-95890000D01*
X105185000Y-96940000D02*
X106175000Y-96940000D01*
X100715000Y-97060000D02*
X100715000Y-100940000D01*
X105185000Y-102110000D02*
X105185000Y-101060000D01*
X102685000Y-102110000D02*
X105185000Y-102110000D01*
G04 #@! TO.C,C48*
X124203478Y-124811168D02*
X123922318Y-124811168D01*
X124203478Y-123791168D02*
X123922318Y-123791168D01*
G04 #@! TO.C,R35*
X113512752Y-121429483D02*
X113512752Y-121736765D01*
X112752752Y-121429483D02*
X112752752Y-121736765D01*
G04 #@! TO.C,R42*
X119991810Y-111704286D02*
X119991810Y-111397004D01*
X120751810Y-111704286D02*
X120751810Y-111397004D01*
G04 #@! TO.C,D3*
X117466639Y-99928989D02*
X117466639Y-100578989D01*
X117466639Y-99928989D02*
X117466639Y-99278989D01*
X120586639Y-99928989D02*
X120586639Y-100578989D01*
X120586639Y-99928989D02*
X120586639Y-99278989D01*
X117516639Y-101091489D02*
X117186639Y-101331489D01*
X117186639Y-100851489D01*
X117516639Y-101091489D01*
G36*
X117516639Y-101091489D02*
G01*
X117186639Y-101331489D01*
X117186639Y-100851489D01*
X117516639Y-101091489D01*
G37*
G04 #@! TO.C,R39*
X140308346Y-109495203D02*
X140308346Y-109802485D01*
X139548346Y-109495203D02*
X139548346Y-109802485D01*
G04 #@! TO.C,C25*
X115787963Y-97722582D02*
X115787963Y-97506910D01*
X116507963Y-97722582D02*
X116507963Y-97506910D01*
G04 #@! TO.C,C58*
X140192751Y-121447940D02*
X140192751Y-121663612D01*
X139472751Y-121447940D02*
X139472751Y-121663612D01*
G04 #@! TO.C,FB1*
X124273210Y-95642721D02*
X123947652Y-95642721D01*
X124273210Y-94622721D02*
X123947652Y-94622721D01*
G04 #@! TO.C,C6*
X119161970Y-97308104D02*
X118639466Y-97308104D01*
X119161970Y-95838104D02*
X118639466Y-95838104D01*
G04 #@! TO.C,J2*
X151590000Y-104060000D02*
X151590000Y-103040000D01*
X155840000Y-104060000D02*
X151590000Y-104060000D01*
X151590000Y-103040000D02*
X153190000Y-103040000D01*
X153190000Y-103040000D02*
X153190000Y-101760000D01*
X159410000Y-102340000D02*
X159410000Y-97660000D01*
X153190000Y-101760000D02*
X150300000Y-101760000D01*
X151590000Y-96960000D02*
X153190000Y-96960000D01*
X153190000Y-96960000D02*
X153190000Y-98240000D01*
X151590000Y-95940000D02*
X151590000Y-96960000D01*
X155840000Y-95940000D02*
X151590000Y-95940000D01*
G04 #@! TO.C,U9*
X125000000Y-118390000D02*
X122800000Y-118390000D01*
X125000000Y-118390000D02*
X127200000Y-118390000D01*
X125000000Y-121610000D02*
X122800000Y-121610000D01*
X125000000Y-121610000D02*
X127200000Y-121610000D01*
X122100000Y-118565000D02*
X121860000Y-118235000D01*
X122340000Y-118235000D01*
X122100000Y-118565000D01*
G36*
X122100000Y-118565000D02*
G01*
X121860000Y-118235000D01*
X122340000Y-118235000D01*
X122100000Y-118565000D01*
G37*
G04 #@! TO.C,C20*
X114586328Y-102852289D02*
X114305168Y-102852289D01*
X114586328Y-101832289D02*
X114305168Y-101832289D01*
G04 #@! TO.C,R3*
X146825008Y-84145062D02*
X146825008Y-83837780D01*
X147585008Y-84145062D02*
X147585008Y-83837780D01*
G04 #@! TO.C,C3*
X145680758Y-91097245D02*
X145680758Y-90816085D01*
X146700758Y-91097245D02*
X146700758Y-90816085D01*
G04 #@! TO.C,C8*
X118728762Y-88947452D02*
X118728762Y-88666292D01*
X119748762Y-88947452D02*
X119748762Y-88666292D01*
G04 #@! TO.C,C61*
X136807052Y-120873170D02*
X136807052Y-121154330D01*
X135787052Y-120873170D02*
X135787052Y-121154330D01*
G04 #@! TO.C,TP7*
X142249332Y-104994759D02*
G75*
G03*
X140849332Y-104994759I-700000J0D01*
G01*
X140849332Y-104994759D02*
G75*
G03*
X142249332Y-104994759I700000J0D01*
G01*
G04 #@! TO.C,R15*
X123111604Y-125526062D02*
X123418886Y-125526062D01*
X123111604Y-126286062D02*
X123418886Y-126286062D01*
G04 #@! TO.C,R24*
X109602933Y-102809485D02*
X109910215Y-102809485D01*
X109602933Y-103569485D02*
X109910215Y-103569485D01*
G04 #@! TO.C,C41*
X111424635Y-122519444D02*
X111208963Y-122519444D01*
X111424635Y-121799444D02*
X111208963Y-121799444D01*
G04 #@! TO.C,C7*
X115917742Y-104984001D02*
X115917742Y-105506505D01*
X114447742Y-104984001D02*
X114447742Y-105506505D01*
G04 #@! TO.C,C26*
X114381274Y-98980062D02*
X114381274Y-98764390D01*
X115101274Y-98980062D02*
X115101274Y-98764390D01*
G04 #@! TO.C,C53*
X128627418Y-126045313D02*
X128843090Y-126045313D01*
X128627418Y-126765313D02*
X128843090Y-126765313D01*
G04 #@! TO.C,R13*
X116866960Y-94375744D02*
X116559678Y-94375744D01*
X116866960Y-93615744D02*
X116559678Y-93615744D01*
G04 #@! TO.C,C17*
X115925274Y-100000286D02*
X115925274Y-99784614D01*
X116645274Y-100000286D02*
X116645274Y-99784614D01*
G04 #@! TO.C,SW2*
X141300000Y-113700000D02*
X141420000Y-113700000D01*
X142430000Y-113700000D02*
X143570000Y-113700000D01*
X144580000Y-113700000D02*
X144700000Y-113700000D01*
X144700000Y-113700000D02*
X144700000Y-109300000D01*
X141300000Y-109300000D02*
X141300000Y-113700000D01*
X141420000Y-109300000D02*
X141300000Y-109300000D01*
X143570000Y-109300000D02*
X142430000Y-109300000D01*
X144700000Y-109300000D02*
X144580000Y-109300000D01*
G04 #@! TO.C,C10*
X115460114Y-108211425D02*
X115244442Y-108211425D01*
X115460114Y-107491425D02*
X115244442Y-107491425D01*
G04 #@! TO.C,R2*
X138352662Y-90305840D02*
X138352662Y-90613122D01*
X137592662Y-90305840D02*
X137592662Y-90613122D01*
G04 #@! TO.C,R7*
X151648518Y-91295666D02*
X151955800Y-91295666D01*
X151648518Y-92055666D02*
X151955800Y-92055666D01*
G04 #@! TO.C,TP8*
X126980888Y-126431642D02*
G75*
G03*
X125580888Y-126431642I-700000J0D01*
G01*
X125580888Y-126431642D02*
G75*
G03*
X126980888Y-126431642I700000J0D01*
G01*
G04 #@! TO.C,C12*
X135733073Y-114999574D02*
X135517401Y-114999574D01*
X135733073Y-114279574D02*
X135517401Y-114279574D01*
G04 #@! TO.C,R40*
X127033264Y-114348641D02*
X127340546Y-114348641D01*
X127033264Y-115108641D02*
X127340546Y-115108641D01*
G04 #@! TO.C,C46*
X138456410Y-114304770D02*
X138672082Y-114304770D01*
X138456410Y-115024770D02*
X138672082Y-115024770D01*
G04 #@! TO.C,R25*
X108149619Y-105231987D02*
X108149619Y-105539269D01*
X107389619Y-105231987D02*
X107389619Y-105539269D01*
G04 #@! TO.C,TP3*
X120505183Y-94115969D02*
G75*
G03*
X119105183Y-94115969I-700000J0D01*
G01*
X119105183Y-94115969D02*
G75*
G03*
X120505183Y-94115969I700000J0D01*
G01*
G04 #@! TO.C,R32*
X106979635Y-117424064D02*
X107286917Y-117424064D01*
X106979635Y-118184064D02*
X107286917Y-118184064D01*
G04 #@! TO.C,R20*
X134123068Y-118778617D02*
X133815786Y-118778617D01*
X134123068Y-118018617D02*
X133815786Y-118018617D01*
G04 #@! TO.C,R17*
X139905493Y-106899173D02*
X140212775Y-106899173D01*
X139905493Y-107659173D02*
X140212775Y-107659173D01*
G04 #@! TO.C,R31*
X108063941Y-115688320D02*
X108063941Y-115995602D01*
X107303941Y-115688320D02*
X107303941Y-115995602D01*
G04 #@! TO.C,C57*
X138703258Y-120673047D02*
X138703258Y-120954207D01*
X137683258Y-120673047D02*
X137683258Y-120954207D01*
G04 #@! TO.C,C30*
X107338824Y-99137333D02*
X107338824Y-98856173D01*
X108358824Y-99137333D02*
X108358824Y-98856173D01*
G04 #@! TO.C,Q2*
X123871930Y-117401245D02*
X124521930Y-117401245D01*
X123871930Y-117401245D02*
X123221930Y-117401245D01*
X123871930Y-114281245D02*
X124521930Y-114281245D01*
X123871930Y-114281245D02*
X123221930Y-114281245D01*
X125274430Y-117681245D02*
X124794430Y-117681245D01*
X125034430Y-117351245D01*
X125274430Y-117681245D01*
G36*
X125274430Y-117681245D02*
G01*
X124794430Y-117681245D01*
X125034430Y-117351245D01*
X125274430Y-117681245D01*
G37*
G04 #@! TO.C,C13*
X140037015Y-97430729D02*
X140252687Y-97430729D01*
X140037015Y-98150729D02*
X140252687Y-98150729D01*
G04 #@! TO.C,R30*
X118221359Y-108742756D02*
X118528641Y-108742756D01*
X118221359Y-109502756D02*
X118528641Y-109502756D01*
G04 #@! TO.C,J3*
X114890000Y-125115000D02*
X115940000Y-125115000D01*
X114890000Y-127615000D02*
X114890000Y-125115000D01*
X115940000Y-125115000D02*
X115940000Y-124125000D01*
X116060000Y-129585000D02*
X117940000Y-129585000D01*
X119110000Y-125115000D02*
X118060000Y-125115000D01*
X119110000Y-127615000D02*
X119110000Y-125115000D01*
G04 #@! TO.C,C18*
X135970453Y-115746634D02*
X136251613Y-115746634D01*
X135970453Y-116766634D02*
X136251613Y-116766634D01*
G04 #@! TO.C,R9*
X138053132Y-94946143D02*
X138360414Y-94946143D01*
X138053132Y-95706143D02*
X138360414Y-95706143D01*
G04 #@! TO.C,J8*
X136890000Y-125115000D02*
X137940000Y-125115000D01*
X136890000Y-127615000D02*
X136890000Y-125115000D01*
X137940000Y-125115000D02*
X137940000Y-124125000D01*
X138060000Y-129585000D02*
X139940000Y-129585000D01*
X141110000Y-125115000D02*
X140060000Y-125115000D01*
X141110000Y-127615000D02*
X141110000Y-125115000D01*
G04 #@! TO.C,U1*
X141000000Y-89240000D02*
X140200000Y-89240000D01*
X141000000Y-89240000D02*
X141800000Y-89240000D01*
X141000000Y-92360000D02*
X140200000Y-92360000D01*
X141000000Y-92360000D02*
X141800000Y-92360000D01*
X139700000Y-89290000D02*
X139460000Y-88960000D01*
X139940000Y-88960000D01*
X139700000Y-89290000D01*
G36*
X139700000Y-89290000D02*
G01*
X139460000Y-88960000D01*
X139940000Y-88960000D01*
X139700000Y-89290000D01*
G37*
G04 #@! TO.C,J7*
X154715000Y-114610000D02*
X154715000Y-113560000D01*
X157215000Y-114610000D02*
X154715000Y-114610000D01*
X154715000Y-113560000D02*
X153725000Y-113560000D01*
X159185000Y-113440000D02*
X159185000Y-107560000D01*
X154715000Y-106390000D02*
X154715000Y-107440000D01*
X157215000Y-106390000D02*
X154715000Y-106390000D01*
G04 #@! TO.C,TP4*
X148369834Y-101671273D02*
G75*
G03*
X146969834Y-101671273I-700000J0D01*
G01*
X146969834Y-101671273D02*
G75*
G03*
X148369834Y-101671273I700000J0D01*
G01*
G04 #@! TO.C,TP11*
X118668587Y-91701765D02*
G75*
G03*
X117268587Y-91701765I-700000J0D01*
G01*
X117268587Y-91701765D02*
G75*
G03*
X118668587Y-91701765I700000J0D01*
G01*
G04 #@! TO.C,C49*
X119270994Y-122128226D02*
X119270994Y-122343898D01*
X118550994Y-122128226D02*
X118550994Y-122343898D01*
G04 #@! TO.C,U8*
X108890000Y-116000000D02*
X108890000Y-118200000D01*
X108890000Y-116000000D02*
X108890000Y-113800000D01*
X112110000Y-116000000D02*
X112110000Y-118200000D01*
X112110000Y-116000000D02*
X112110000Y-113800000D01*
X109065000Y-118900000D02*
X108735000Y-119140000D01*
X108735000Y-118660000D01*
X109065000Y-118900000D01*
G36*
X109065000Y-118900000D02*
G01*
X108735000Y-119140000D01*
X108735000Y-118660000D01*
X109065000Y-118900000D01*
G37*
G04 #@! TO.C,J9*
X128610000Y-84885000D02*
X127560000Y-84885000D01*
X128610000Y-82385000D02*
X128610000Y-84885000D01*
X127560000Y-84885000D02*
X127560000Y-85875000D01*
X127440000Y-80415000D02*
X121560000Y-80415000D01*
X120390000Y-84885000D02*
X121440000Y-84885000D01*
X120390000Y-82385000D02*
X120390000Y-84885000D01*
G04 #@! TO.C,R28*
X105913917Y-112756527D02*
X105606635Y-112756527D01*
X105913917Y-111996527D02*
X105606635Y-111996527D01*
G04 #@! TO.C,C42*
X116791000Y-121491467D02*
X116791000Y-121210307D01*
X117811000Y-121491467D02*
X117811000Y-121210307D01*
G04 #@! TO.C,R34*
X111200713Y-121147629D02*
X110893431Y-121147629D01*
X111200713Y-120387629D02*
X110893431Y-120387629D01*
G04 #@! TO.C,C34*
X114208006Y-108999113D02*
X114489166Y-108999113D01*
X114208006Y-110019113D02*
X114489166Y-110019113D01*
G04 #@! TO.C,R10*
X151102570Y-87915938D02*
X151409852Y-87915938D01*
X151102570Y-88675938D02*
X151409852Y-88675938D01*
G04 #@! TO.C,FB2*
X130989450Y-114461424D02*
X131315008Y-114461424D01*
X130989450Y-115481424D02*
X131315008Y-115481424D01*
G04 #@! TO.C,C14*
X121409714Y-95068871D02*
X121409714Y-94853199D01*
X122129714Y-95068871D02*
X122129714Y-94853199D01*
G04 #@! TO.C,R6*
X148792140Y-92125561D02*
X148484858Y-92125561D01*
X148792140Y-91365561D02*
X148484858Y-91365561D01*
G04 #@! TO.C,C51*
X132783066Y-124266137D02*
X133064226Y-124266137D01*
X132783066Y-125286137D02*
X133064226Y-125286137D01*
G04 #@! TO.C,J6*
X105185000Y-104390000D02*
X105185000Y-105440000D01*
X102685000Y-104390000D02*
X105185000Y-104390000D01*
X105185000Y-105440000D02*
X106175000Y-105440000D01*
X100715000Y-105560000D02*
X100715000Y-109440000D01*
X105185000Y-110610000D02*
X105185000Y-109560000D01*
X102685000Y-110610000D02*
X105185000Y-110610000D01*
G04 #@! TO.C,C27*
X105548223Y-117930183D02*
X105548223Y-118452687D01*
X104078223Y-117930183D02*
X104078223Y-118452687D01*
G04 #@! TO.C,D1*
X154265000Y-93985000D02*
X155735000Y-93985000D01*
X155735000Y-93985000D02*
X155735000Y-91700000D01*
X154265000Y-91700000D02*
X154265000Y-93985000D01*
G04 #@! TO.C,R4*
X143222391Y-98392500D02*
X142915109Y-98392500D01*
X143222391Y-97632500D02*
X142915109Y-97632500D01*
G04 #@! TO.C,C38*
X103062277Y-113138230D02*
X102781117Y-113138230D01*
X103062277Y-112118230D02*
X102781117Y-112118230D01*
G04 #@! TO.C,R29*
X112756960Y-107425446D02*
X112756960Y-107118164D01*
X113516960Y-107425446D02*
X113516960Y-107118164D01*
G04 #@! TO.C,J4*
X128910000Y-87830000D02*
X130235000Y-87830000D01*
X130235000Y-87765000D02*
X130235000Y-87830000D01*
X130235000Y-87765000D02*
X133765000Y-87765000D01*
X130235000Y-94170000D02*
X130235000Y-94235000D01*
X130235000Y-94235000D02*
X133765000Y-94235000D01*
X133765000Y-87765000D02*
X133765000Y-87830000D01*
X133765000Y-94170000D02*
X133765000Y-94235000D01*
G04 #@! TO.C,R36*
X114828108Y-120535538D02*
X115135390Y-120535538D01*
X114828108Y-121295538D02*
X115135390Y-121295538D01*
G04 #@! TO.C,R5*
X140272250Y-98925193D02*
X140579532Y-98925193D01*
X140272250Y-99685193D02*
X140579532Y-99685193D01*
G04 #@! TO.C,C33*
X107279337Y-109553325D02*
X107279337Y-109337653D01*
X107999337Y-109553325D02*
X107999337Y-109337653D01*
G04 #@! TO.C,TP10*
X122027703Y-128100396D02*
G75*
G03*
X120627703Y-128100396I-700000J0D01*
G01*
X120627703Y-128100396D02*
G75*
G03*
X122027703Y-128100396I700000J0D01*
G01*
G04 #@! TO.C,C36*
X122893777Y-88100345D02*
X122678105Y-88100345D01*
X122893777Y-87380345D02*
X122678105Y-87380345D01*
G04 #@! TO.C,TP12*
X131717109Y-85851990D02*
G75*
G03*
X130317109Y-85851990I-700000J0D01*
G01*
X130317109Y-85851990D02*
G75*
G03*
X131717109Y-85851990I700000J0D01*
G01*
G04 #@! TO.C,C45*
X136263846Y-117581314D02*
X136479518Y-117581314D01*
X136263846Y-118301314D02*
X136479518Y-118301314D01*
G04 #@! TO.C,C1*
X148259324Y-84109547D02*
X148259324Y-83893875D01*
X148979324Y-84109547D02*
X148979324Y-83893875D01*
G04 #@! TO.C,R43*
X120640876Y-121696194D02*
X120640876Y-122003476D01*
X119880876Y-121696194D02*
X119880876Y-122003476D01*
G04 #@! TO.C,L1*
X111240000Y-81840000D02*
X111240000Y-81990000D01*
X111240000Y-81840000D02*
X114760000Y-81840000D01*
X111240000Y-85360000D02*
X111240000Y-85210000D01*
X111240000Y-85360000D02*
X114760000Y-85360000D01*
X114760000Y-81840000D02*
X114760000Y-81990000D01*
X114760000Y-85360000D02*
X114760000Y-85210000D01*
G04 #@! TO.C,R41*
X124008059Y-123048122D02*
X123700777Y-123048122D01*
X124008059Y-122288122D02*
X123700777Y-122288122D01*
G04 #@! TO.C,C37*
X133891694Y-115264122D02*
X133891694Y-115479794D01*
X133171694Y-115264122D02*
X133171694Y-115479794D01*
G04 #@! TO.C,C16*
X115621350Y-86885777D02*
X115621350Y-86604617D01*
X116641350Y-86885777D02*
X116641350Y-86604617D01*
G04 #@! TO.C,C28*
X107363986Y-119588667D02*
X107148314Y-119588667D01*
X107363986Y-118868667D02*
X107148314Y-118868667D01*
G04 #@! TO.C,U3*
X111390000Y-89380000D02*
X111390000Y-89610000D01*
X111390000Y-89610000D02*
X112365000Y-89610000D01*
X111680000Y-86390000D02*
X112365000Y-86390000D01*
X113635000Y-86390000D02*
X114610000Y-86390000D01*
X113635000Y-89610000D02*
X114610000Y-89610000D01*
X114610000Y-86390000D02*
X114610000Y-86620000D01*
X114610000Y-89380000D02*
X114610000Y-89610000D01*
X111360000Y-86390000D02*
X111080000Y-86390000D01*
X111360000Y-86110000D01*
X111360000Y-86390000D01*
G36*
X111360000Y-86390000D02*
G01*
X111080000Y-86390000D01*
X111360000Y-86110000D01*
X111360000Y-86390000D01*
G37*
G04 #@! TO.C,C52*
X121560257Y-124578169D02*
X121560257Y-124859329D01*
X120540257Y-124578169D02*
X120540257Y-124859329D01*
G04 #@! TO.C,C4*
X117697344Y-107964718D02*
X117481672Y-107964718D01*
X117697344Y-107244718D02*
X117481672Y-107244718D01*
G04 #@! TO.C,C29*
X113304389Y-126782972D02*
X113304389Y-127064132D01*
X112284389Y-126782972D02*
X112284389Y-127064132D01*
G04 #@! TO.C,TP2*
X112754053Y-100004678D02*
G75*
G03*
X111354053Y-100004678I-700000J0D01*
G01*
X111354053Y-100004678D02*
G75*
G03*
X112754053Y-100004678I700000J0D01*
G01*
G04 #@! TO.C,R1*
X144362914Y-90340814D02*
X144362914Y-90648096D01*
X143602914Y-90340814D02*
X143602914Y-90648096D01*
G04 #@! TO.C,C22*
X129335438Y-124293975D02*
X129616598Y-124293975D01*
X129335438Y-125313975D02*
X129616598Y-125313975D01*
G04 #@! TO.C,Q1*
X147000000Y-96940000D02*
X146350000Y-96940000D01*
X147000000Y-96940000D02*
X147650000Y-96940000D01*
X147000000Y-100060000D02*
X146350000Y-100060000D01*
X147000000Y-100060000D02*
X147650000Y-100060000D01*
X145837500Y-96990000D02*
X145597500Y-96660000D01*
X146077500Y-96660000D01*
X145837500Y-96990000D01*
G36*
X145837500Y-96990000D02*
G01*
X145597500Y-96660000D01*
X146077500Y-96660000D01*
X145837500Y-96990000D01*
G37*
G04 #@! TO.C,C31*
X109217206Y-99405557D02*
X109217206Y-99124397D01*
X110237206Y-99405557D02*
X110237206Y-99124397D01*
G04 #@! TO.C,C60*
X132646052Y-129061202D02*
X132364892Y-129061202D01*
X132646052Y-128041202D02*
X132364892Y-128041202D01*
G04 #@! TO.C,R14*
X120599626Y-119432571D02*
X120599626Y-119739853D01*
X119839626Y-119432571D02*
X119839626Y-119739853D01*
G04 #@! TO.C,C9*
X125251237Y-88947452D02*
X125251237Y-88666292D01*
X126271237Y-88947452D02*
X126271237Y-88666292D01*
G04 #@! TO.C,C5*
X112207011Y-90609380D02*
X112729515Y-90609380D01*
X112207011Y-92079380D02*
X112729515Y-92079380D01*
G04 #@! TO.C,Y1*
X116650000Y-106500000D02*
X119950000Y-106500000D01*
X119950000Y-106500000D02*
X119950000Y-102500000D01*
G04 #@! TO.C,TP1*
X126843087Y-92937093D02*
G75*
G03*
X125443087Y-92937093I-700000J0D01*
G01*
X125443087Y-92937093D02*
G75*
G03*
X126843087Y-92937093I700000J0D01*
G01*
G04 #@! TO.C,C55*
X132230701Y-126166722D02*
X132511861Y-126166722D01*
X132230701Y-127186722D02*
X132511861Y-127186722D01*
G04 #@! TO.C,D2*
X143640000Y-93000000D02*
X143640000Y-95000000D01*
X143640000Y-93000000D02*
X147650000Y-93000000D01*
X143640000Y-95000000D02*
X147650000Y-95000000D01*
G04 #@! TO.C,R21*
X117741875Y-111802609D02*
X117741875Y-112109891D01*
X116981875Y-111802609D02*
X116981875Y-112109891D01*
G04 #@! TO.C,C39*
X105415382Y-115008574D02*
X105134222Y-115008574D01*
X105415382Y-113988574D02*
X105134222Y-113988574D01*
G04 #@! TO.C,U6*
X117500000Y-114390000D02*
X115300000Y-114390000D01*
X117500000Y-114390000D02*
X119700000Y-114390000D01*
X117500000Y-117610000D02*
X115300000Y-117610000D01*
X117500000Y-117610000D02*
X119700000Y-117610000D01*
X114600000Y-114565000D02*
X114360000Y-114235000D01*
X114840000Y-114235000D01*
X114600000Y-114565000D01*
G36*
X114600000Y-114565000D02*
G01*
X114360000Y-114235000D01*
X114840000Y-114235000D01*
X114600000Y-114565000D01*
G37*
G04 #@! TO.C,J1*
X145700000Y-85600000D02*
X145700000Y-83600000D01*
X145700000Y-81700000D02*
X145700000Y-79800000D01*
X145700000Y-79800000D02*
X136300000Y-79800000D01*
X136300000Y-85600000D02*
X136300000Y-83600000D01*
X136300000Y-81700000D02*
X136300000Y-79800000D01*
G04 #@! TO.C,C23*
X107381399Y-103152188D02*
X107381399Y-102936516D01*
X108101399Y-103152188D02*
X108101399Y-102936516D01*
G04 #@! TO.C,C21*
X112909282Y-104865904D02*
X112909282Y-104650232D01*
X113629282Y-104865904D02*
X113629282Y-104650232D01*
G04 #@! TO.C,TP6*
X144175003Y-102263803D02*
G75*
G03*
X142775003Y-102263803I-700000J0D01*
G01*
X142775003Y-102263803D02*
G75*
G03*
X144175003Y-102263803I700000J0D01*
G01*
G04 #@! TO.C,C2*
X152121611Y-89475591D02*
X152402771Y-89475591D01*
X152121611Y-90495591D02*
X152402771Y-90495591D01*
G04 #@! TO.C,U10*
X131390000Y-120365000D02*
X131390000Y-120130000D01*
X131390000Y-123110000D02*
X131390000Y-122635000D01*
X131865000Y-119890000D02*
X131690000Y-119890000D01*
X131865000Y-123110000D02*
X131390000Y-123110000D01*
X134135000Y-119890000D02*
X134610000Y-119890000D01*
X134135000Y-123110000D02*
X134610000Y-123110000D01*
X134610000Y-119890000D02*
X134610000Y-120365000D01*
X134610000Y-123110000D02*
X134610000Y-122635000D01*
X131390000Y-119890000D02*
X131150000Y-119560000D01*
X131630000Y-119560000D01*
X131390000Y-119890000D01*
G36*
X131390000Y-119890000D02*
G01*
X131150000Y-119560000D01*
X131630000Y-119560000D01*
X131390000Y-119890000D01*
G37*
G04 #@! TO.C,C43*
X103286788Y-114897972D02*
X103286788Y-115113644D01*
X102566788Y-114897972D02*
X102566788Y-115113644D01*
G04 #@! TO.C,R38*
X140637885Y-111809192D02*
X140637885Y-112116474D01*
X139877885Y-111809192D02*
X139877885Y-112116474D01*
G04 #@! TO.C,F1*
X147590000Y-89102064D02*
X147590000Y-87897936D01*
X149410000Y-89102064D02*
X149410000Y-87897936D01*
G04 #@! TO.C,TP9*
X124450790Y-127906019D02*
G75*
G03*
X123050790Y-127906019I-700000J0D01*
G01*
X123050790Y-127906019D02*
G75*
G03*
X124450790Y-127906019I700000J0D01*
G01*
G04 #@! TO.C,R12*
X139998638Y-105183974D02*
X139998638Y-105491256D01*
X139238638Y-105183974D02*
X139238638Y-105491256D01*
G04 #@! TO.C,C15*
X109709735Y-85130896D02*
X109709735Y-84915224D01*
X110429735Y-85130896D02*
X110429735Y-84915224D01*
G04 #@! TO.C,C35*
X111241622Y-102748544D02*
X111241622Y-102532872D01*
X111961622Y-102748544D02*
X111961622Y-102532872D01*
G04 #@! TO.C,U7*
X108890000Y-108000000D02*
X108890000Y-110200000D01*
X108890000Y-108000000D02*
X108890000Y-105800000D01*
X112110000Y-108000000D02*
X112110000Y-110200000D01*
X112110000Y-108000000D02*
X112110000Y-105800000D01*
X109065000Y-110900000D02*
X108735000Y-111140000D01*
X108735000Y-110660000D01*
X109065000Y-110900000D01*
G36*
X109065000Y-110900000D02*
G01*
X108735000Y-111140000D01*
X108735000Y-110660000D01*
X109065000Y-110900000D01*
G37*
G04 #@! TO.C,C11*
X131567969Y-116385664D02*
X131783641Y-116385664D01*
X131567969Y-117105664D02*
X131783641Y-117105664D01*
G04 #@! TO.C,R33*
X113516900Y-118350952D02*
X113824182Y-118350952D01*
X113516900Y-119110952D02*
X113824182Y-119110952D01*
G04 #@! TO.C,U4*
X122500000Y-88940000D02*
X121700000Y-88940000D01*
X122500000Y-88940000D02*
X123300000Y-88940000D01*
X122500000Y-92060000D02*
X121700000Y-92060000D01*
X122500000Y-92060000D02*
X123300000Y-92060000D01*
X121200000Y-88990000D02*
X120960000Y-88660000D01*
X121440000Y-88660000D01*
X121200000Y-88990000D01*
G36*
X121200000Y-88990000D02*
G01*
X120960000Y-88660000D01*
X121440000Y-88660000D01*
X121200000Y-88990000D01*
G37*
G04 #@! TO.C,C62*
X113703311Y-95940492D02*
X113180807Y-95940492D01*
X113703311Y-94470492D02*
X113180807Y-94470492D01*
G04 #@! TO.C,R37*
X118495000Y-112843384D02*
X118495000Y-112536102D01*
X119255000Y-112843384D02*
X119255000Y-112536102D01*
G04 #@! TO.C,C47*
X138848146Y-116729271D02*
X138848146Y-116944943D01*
X138128146Y-116729271D02*
X138128146Y-116944943D01*
G04 #@! TO.C,C50*
X127511446Y-122420447D02*
X127792606Y-122420447D01*
X127511446Y-123440447D02*
X127792606Y-123440447D01*
G04 #@! TO.C,U2*
X150500000Y-92940000D02*
X149700000Y-92940000D01*
X150500000Y-92940000D02*
X151300000Y-92940000D01*
X150500000Y-96060000D02*
X149700000Y-96060000D01*
X150500000Y-96060000D02*
X151300000Y-96060000D01*
X149200000Y-92990000D02*
X148960000Y-92660000D01*
X149440000Y-92660000D01*
X149200000Y-92990000D01*
G36*
X149200000Y-92990000D02*
G01*
X148960000Y-92660000D01*
X149440000Y-92660000D01*
X149200000Y-92990000D01*
G37*
G04 #@! TO.C,R18*
X129469999Y-119897391D02*
X129469999Y-119590109D01*
X130229999Y-119897391D02*
X130229999Y-119590109D01*
G04 #@! TO.C,R26*
X114396133Y-112831161D02*
X114703415Y-112831161D01*
X114396133Y-113591161D02*
X114703415Y-113591161D01*
G04 #@! TO.C,R8*
X142720625Y-95218234D02*
X142720625Y-95525516D01*
X141960625Y-95218234D02*
X141960625Y-95525516D01*
G04 #@! TO.C,C19*
X141804308Y-101562537D02*
X141804308Y-101843697D01*
X140784308Y-101562537D02*
X140784308Y-101843697D01*
G04 #@! TO.C,C59*
X139581603Y-118227196D02*
X139581603Y-117946036D01*
X140601603Y-118227196D02*
X140601603Y-117946036D01*
G04 #@! TO.C,R11*
X140050926Y-101013959D02*
X140050926Y-101321241D01*
X139290926Y-101013959D02*
X139290926Y-101321241D01*
G04 #@! TO.C,R16*
X119733763Y-107269153D02*
X120041045Y-107269153D01*
X119733763Y-108029153D02*
X120041045Y-108029153D01*
G04 #@! TO.C,R27*
X107442820Y-111992379D02*
X107442820Y-111685097D01*
X108202820Y-111992379D02*
X108202820Y-111685097D01*
G04 #@! TO.C,R19*
X131512377Y-117897417D02*
X131819659Y-117897417D01*
X131512377Y-118657417D02*
X131819659Y-118657417D01*
G04 #@! TO.C,C32*
X114208568Y-111450673D02*
X114424240Y-111450673D01*
X114208568Y-112170673D02*
X114424240Y-112170673D01*
G04 #@! TO.C,C24*
X114506907Y-101091126D02*
X114291235Y-101091126D01*
X114506907Y-100371126D02*
X114291235Y-100371126D01*
G04 #@! TO.C,C40*
X115318016Y-119201465D02*
X115318016Y-118985793D01*
X116038016Y-119201465D02*
X116038016Y-118985793D01*
G04 #@! TO.C,C54*
X128577160Y-116490667D02*
X128858320Y-116490667D01*
X128577160Y-117510667D02*
X128858320Y-117510667D01*
G04 #@! TD*
M02*
