G04 #@! TF.GenerationSoftware,KiCad,Pcbnew,7.0.11+dfsg-1build4*
G04 #@! TF.CreationDate,2026-09-25T10:16:31+00:00*
G04 #@! TF.ProjectId,mic-board,6d69632d-626f-4617-9264-2e6b69636164,A*
G04 #@! TF.SameCoordinates,Original*
G04 #@! TF.FileFunction,Copper,L2,Bot*
G04 #@! TF.FilePolarity,Positive*
%FSLAX46Y46*%
G04 Gerber Fmt 4.6, Leading zero omitted, Abs format (unit mm)*
G04 Created by KiCad (PCBNEW 7.0.11+dfsg-1build4) date 2026-09-25 10:16:31*
%MOMM*%
%LPD*%
G01*
G04 APERTURE LIST*
G04 #@! TA.AperFunction,ViaPad*
%ADD10C,0.600000*%
G04 #@! TD*
G04 #@! TA.AperFunction,Conductor*
%ADD11C,0.150000*%
G04 #@! TD*
G04 APERTURE END LIST*
D10*
G04 #@! TO.N,OUT_P*
X105062000Y-86198200D03*
X103118000Y-83269800D03*
G04 #@! TO.N,GND*
X108800000Y-82400000D03*
X108800000Y-85600000D03*
X108800000Y-84000000D03*
G04 #@! TD*
D11*
G04 #@! TO.N,OUT_P*
X103118000Y-84254000D02*
X105062000Y-86198200D01*
X103118000Y-83269800D02*
X103118000Y-84254000D01*
G04 #@! TD*
G04 #@! TA.AperFunction,Conductor*
G04 #@! TO.N,GND*
G36*
X109503874Y-80300805D02*
G01*
X109531912Y-80303011D01*
X109679881Y-80314657D01*
X109695210Y-80317084D01*
X109863095Y-80357390D01*
X109877865Y-80362190D01*
X110037369Y-80428258D01*
X110051201Y-80435306D01*
X110198408Y-80525515D01*
X110210967Y-80534639D01*
X110342254Y-80646768D01*
X110353231Y-80657745D01*
X110465356Y-80789027D01*
X110474487Y-80801595D01*
X110564689Y-80948791D01*
X110571742Y-80962633D01*
X110637809Y-81122134D01*
X110642610Y-81136908D01*
X110682913Y-81304781D01*
X110685343Y-81320124D01*
X110699195Y-81496124D01*
X110699500Y-81503892D01*
X110699500Y-91696107D01*
X110699195Y-91703875D01*
X110685343Y-91879875D01*
X110682913Y-91895218D01*
X110642610Y-92063091D01*
X110637809Y-92077865D01*
X110571742Y-92237366D01*
X110564689Y-92251208D01*
X110474487Y-92398404D01*
X110465356Y-92410972D01*
X110353235Y-92542250D01*
X110342250Y-92553235D01*
X110210972Y-92665356D01*
X110198404Y-92674487D01*
X110051208Y-92764689D01*
X110037366Y-92771742D01*
X109877865Y-92837809D01*
X109863091Y-92842610D01*
X109695218Y-92882913D01*
X109679875Y-92885343D01*
X109503875Y-92899195D01*
X109496107Y-92899500D01*
X101503893Y-92899500D01*
X101496125Y-92899195D01*
X101320124Y-92885343D01*
X101304781Y-92882913D01*
X101136908Y-92842610D01*
X101122134Y-92837809D01*
X100962633Y-92771742D01*
X100948791Y-92764689D01*
X100847226Y-92702450D01*
X100801593Y-92674485D01*
X100789027Y-92665356D01*
X100657745Y-92553231D01*
X100646768Y-92542254D01*
X100534639Y-92410967D01*
X100525515Y-92398408D01*
X100435306Y-92251201D01*
X100428257Y-92237366D01*
X100362190Y-92077865D01*
X100357389Y-92063091D01*
X100354730Y-92052014D01*
X100317084Y-91895210D01*
X100314657Y-91879881D01*
X100300805Y-91703874D01*
X100300500Y-91696107D01*
X100300500Y-83269800D01*
X102562750Y-83269800D01*
X102581669Y-83413508D01*
X102581670Y-83413509D01*
X102637139Y-83547425D01*
X102725379Y-83662421D01*
X102725383Y-83662424D01*
X102725384Y-83662425D01*
X102753767Y-83684204D01*
X102788423Y-83734628D01*
X102792500Y-83762746D01*
X102792500Y-84235455D01*
X102792123Y-84244088D01*
X102788735Y-84282787D01*
X102788735Y-84282792D01*
X102798793Y-84320336D01*
X102800661Y-84328761D01*
X102807412Y-84367046D01*
X102808159Y-84368340D01*
X102818049Y-84392217D01*
X102818436Y-84393663D01*
X102818439Y-84393669D01*
X102840732Y-84425510D01*
X102845362Y-84432778D01*
X102864806Y-84466455D01*
X102894567Y-84491427D01*
X102900928Y-84497256D01*
X104458002Y-86054491D01*
X104483278Y-86079769D01*
X104511053Y-86134287D01*
X104511424Y-86162689D01*
X104506750Y-86198197D01*
X104506750Y-86198200D01*
X104525669Y-86341908D01*
X104525670Y-86341909D01*
X104581139Y-86475825D01*
X104669379Y-86590821D01*
X104784375Y-86679061D01*
X104918291Y-86734530D01*
X105062000Y-86753450D01*
X105205709Y-86734530D01*
X105339625Y-86679061D01*
X105454621Y-86590821D01*
X105542861Y-86475825D01*
X105598330Y-86341909D01*
X105617250Y-86198200D01*
X105598330Y-86054491D01*
X105542861Y-85920575D01*
X105454621Y-85805579D01*
X105339625Y-85717339D01*
X105339621Y-85717337D01*
X105205709Y-85661870D01*
X105205708Y-85661869D01*
X105062000Y-85642950D01*
X105061998Y-85642950D01*
X105026551Y-85647616D01*
X104966391Y-85636465D01*
X104943626Y-85619464D01*
X103472493Y-84148179D01*
X103444718Y-84093661D01*
X103443500Y-84078179D01*
X103443500Y-83762746D01*
X103462407Y-83704555D01*
X103482233Y-83684204D01*
X103483043Y-83683582D01*
X103510621Y-83662421D01*
X103529421Y-83637921D01*
X105625619Y-83637921D01*
X105656406Y-83786079D01*
X105656406Y-83786081D01*
X105656407Y-83786084D01*
X105656408Y-83786085D01*
X105726029Y-83920447D01*
X105829320Y-84031044D01*
X105958618Y-84109672D01*
X106104335Y-84150500D01*
X106104336Y-84150500D01*
X106217652Y-84150500D01*
X106217658Y-84150500D01*
X106329920Y-84135070D01*
X106468720Y-84074780D01*
X106586108Y-83979278D01*
X106673377Y-83855647D01*
X106724054Y-83713056D01*
X106734381Y-83562079D01*
X106718767Y-83486943D01*
X106703593Y-83413920D01*
X106703593Y-83413918D01*
X106703592Y-83413916D01*
X106703592Y-83413915D01*
X106633971Y-83279553D01*
X106530680Y-83168956D01*
X106401382Y-83090328D01*
X106401381Y-83090327D01*
X106401380Y-83090327D01*
X106255665Y-83049500D01*
X106142342Y-83049500D01*
X106030079Y-83064929D01*
X105891281Y-83125219D01*
X105773889Y-83220724D01*
X105686623Y-83344352D01*
X105635945Y-83486943D01*
X105625619Y-83637921D01*
X103529421Y-83637921D01*
X103598861Y-83547425D01*
X103654330Y-83413509D01*
X103673250Y-83269800D01*
X103654330Y-83126091D01*
X103598861Y-82992175D01*
X103510621Y-82877179D01*
X103395625Y-82788939D01*
X103395621Y-82788937D01*
X103261709Y-82733470D01*
X103261708Y-82733469D01*
X103118000Y-82714550D01*
X102974291Y-82733469D01*
X102974290Y-82733470D01*
X102840378Y-82788937D01*
X102840374Y-82788939D01*
X102725381Y-82877177D01*
X102725377Y-82877181D01*
X102637139Y-82992174D01*
X102637137Y-82992178D01*
X102581670Y-83126090D01*
X102581669Y-83126091D01*
X102562750Y-83269799D01*
X102562750Y-83269800D01*
X100300500Y-83269800D01*
X100300500Y-81503892D01*
X100300805Y-81496125D01*
X100304921Y-81443827D01*
X100314657Y-81320116D01*
X100317084Y-81304791D01*
X100357391Y-81136900D01*
X100362190Y-81122134D01*
X100428260Y-80962625D01*
X100435303Y-80948803D01*
X100525519Y-80801584D01*
X100534635Y-80789037D01*
X100646774Y-80657738D01*
X100657738Y-80646774D01*
X100789037Y-80534635D01*
X100801584Y-80525519D01*
X100948803Y-80435303D01*
X100962625Y-80428260D01*
X101122137Y-80362188D01*
X101136900Y-80357391D01*
X101304791Y-80317084D01*
X101320116Y-80314657D01*
X101471053Y-80302778D01*
X101496126Y-80300805D01*
X101503893Y-80300500D01*
X101547595Y-80300500D01*
X109452405Y-80300500D01*
X109496107Y-80300500D01*
X109503874Y-80300805D01*
G37*
G04 #@! TD.AperFunction*
G04 #@! TD*
M02*
