M48
; DRILL file {KiCad 7.0.11+dfsg-1build4} date Fri Sep 25 10:12:30 2026
; FORMAT={-:-/ absolute / metric / decimal}
; #@! TF.CreationDate,2026-09-25T10:12:30+00:00
; #@! TF.GenerationSoftware,Kicad,Pcbnew,7.0.11+dfsg-1build4
; #@! TF.FileFunction,Plated,1,2,PTH
FMAT,2
METRIC
; #@! TA.AperFunction,Plated,PTH,ViaDrill
T1C0.300
; #@! TA.AperFunction,Plated,PTH,ViaDrill
T2C0.350
; #@! TA.AperFunction,Plated,PTH,ComponentDrill
T3C0.400
; #@! TA.AperFunction,Plated,PTH,ComponentDrill
T4C2.200
%
G90
G05
T1
X103.75Y-83.75
X103.75Y-103.75
X106.25Y-81.25
X106.25Y-83.75
X111.25Y-98.75
X113.14Y-95.976
X113.305Y-97.589
X113.75Y-81.25
X114.57Y-93.145
X115.219Y-99.223
X116.127Y-93.231
X116.25Y-81.25
X117.165Y-99.113
X117.819Y-98.166
X118.563Y-93.115
X118.75Y-81.25
X119.215Y-98.32
X119.792Y-99.113
X119.993Y-87.876
X120.337Y-92.512
X120.583Y-100.489
X120.739Y-96.159
X121.25Y-81.25
X123.315Y-99.837
X123.75Y-81.25
X124.421Y-85.394
X126.25Y-81.25
X126.25Y-83.75
X126.25Y-86.25
X126.25Y-103.75
X126.989Y-99.432
X128.75Y-81.25
X128.75Y-83.75
X131.25Y-83.75
X131.25Y-93.75
X131.25Y-96.25
X131.25Y-98.75
T2
X109.453Y-87.947
X115.573Y-85.134
X116.584Y-95.129
X118.501Y-97.645
X119.496Y-102.576
X127.043Y-101.011
X128.8Y-92.828
T3
X107.85Y-83.5
X108.333Y-82.333
X108.333Y-84.667
X109.5Y-81.85
X109.5Y-85.15
X110.667Y-82.333
X110.667Y-84.667
X111.15Y-83.5
X128.35Y-102.0
X128.833Y-100.833
X128.833Y-103.167
X130.0Y-100.35
X130.0Y-103.65
X131.167Y-100.833
X131.167Y-103.167
X131.65Y-102.0
T4
X109.5Y-83.5
X130.0Y-102.0
M30
