G04 #@! TF.GenerationSoftware,KiCad,Pcbnew,7.0.11+dfsg-1build4*
G04 #@! TF.CreationDate,2026-09-25T10:12:30+00:00*
G04 #@! TF.ProjectId,satellite-board,73617465-6c6c-4697-9465-2d626f617264,A*
G04 #@! TF.SameCoordinates,Original*
G04 #@! TF.FileFunction,Copper,L1,Top*
G04 #@! TF.FilePolarity,Positive*
%FSLAX46Y46*%
G04 Gerber Fmt 4.6, Leading zero omitted, Abs format (unit mm)*
G04 Created by KiCad (PCBNEW 7.0.11+dfsg-1build4) date 2026-09-25 10:12:30*
%MOMM*%
%LPD*%
G01*
G04 APERTURE LIST*
G04 Aperture macros list*
%AMRoundRect*
0 Rectangle with rounded corners*
0 $1 Rounding radius*
0 $2 $3 $4 $5 $6 $7 $8 $9 X,Y pos of 4 corners*
0 Add a 4 corners polygon primitive as box body*
4,1,4,$2,$3,$4,$5,$6,$7,$8,$9,$2,$3,0*
0 Add four circle primitives for the rounded corners*
1,1,$1+$1,$2,$3*
1,1,$1+$1,$4,$5*
1,1,$1+$1,$6,$7*
1,1,$1+$1,$8,$9*
0 Add four rect primitives between the rounded corners*
20,1,$1+$1,$2,$3,$4,$5,0*
20,1,$1+$1,$4,$5,$6,$7,0*
20,1,$1+$1,$6,$7,$8,$9,0*
20,1,$1+$1,$8,$9,$2,$3,0*%
G04 Aperture macros list end*
G04 #@! TA.AperFunction,SMDPad,CuDef*
%ADD10RoundRect,0.135000X0.135000X0.185000X-0.135000X0.185000X-0.135000X-0.185000X0.135000X-0.185000X0*%
G04 #@! TD*
G04 #@! TA.AperFunction,SMDPad,CuDef*
%ADD11RoundRect,0.140000X0.140000X0.170000X-0.140000X0.170000X-0.140000X-0.170000X0.140000X-0.170000X0*%
G04 #@! TD*
G04 #@! TA.AperFunction,SMDPad,CuDef*
%ADD12RoundRect,0.135000X-0.135000X-0.185000X0.135000X-0.185000X0.135000X0.185000X-0.135000X0.185000X0*%
G04 #@! TD*
G04 #@! TA.AperFunction,SMDPad,CuDef*
%ADD13RoundRect,0.100000X0.100000X-0.637500X0.100000X0.637500X-0.100000X0.637500X-0.100000X-0.637500X0*%
G04 #@! TD*
G04 #@! TA.AperFunction,SMDPad,CuDef*
%ADD14RoundRect,0.135000X-0.185000X0.135000X-0.185000X-0.135000X0.185000X-0.135000X0.185000X0.135000X0*%
G04 #@! TD*
G04 #@! TA.AperFunction,SMDPad,CuDef*
%ADD15RoundRect,0.150000X0.625000X-0.150000X0.625000X0.150000X-0.625000X0.150000X-0.625000X-0.150000X0*%
G04 #@! TD*
G04 #@! TA.AperFunction,SMDPad,CuDef*
%ADD16RoundRect,0.250000X0.650000X-0.350000X0.650000X0.350000X-0.650000X0.350000X-0.650000X-0.350000X0*%
G04 #@! TD*
G04 #@! TA.AperFunction,SMDPad,CuDef*
%ADD17RoundRect,0.135000X0.185000X-0.135000X0.185000X0.135000X-0.185000X0.135000X-0.185000X-0.135000X0*%
G04 #@! TD*
G04 #@! TA.AperFunction,SMDPad,CuDef*
%ADD18RoundRect,0.140000X-0.140000X-0.170000X0.140000X-0.170000X0.140000X0.170000X-0.140000X0.170000X0*%
G04 #@! TD*
G04 #@! TA.AperFunction,SMDPad,CuDef*
%ADD19RoundRect,0.225000X0.250000X-0.225000X0.250000X0.225000X-0.250000X0.225000X-0.250000X-0.225000X0*%
G04 #@! TD*
G04 #@! TA.AperFunction,SMDPad,CuDef*
%ADD20RoundRect,0.150000X-0.512500X-0.150000X0.512500X-0.150000X0.512500X0.150000X-0.512500X0.150000X0*%
G04 #@! TD*
G04 #@! TA.AperFunction,SMDPad,CuDef*
%ADD21RoundRect,0.225000X-0.250000X0.225000X-0.250000X-0.225000X0.250000X-0.225000X0.250000X0.225000X0*%
G04 #@! TD*
G04 #@! TA.AperFunction,SMDPad,CuDef*
%ADD22RoundRect,0.225000X-0.225000X-0.250000X0.225000X-0.250000X0.225000X0.250000X-0.225000X0.250000X0*%
G04 #@! TD*
G04 #@! TA.AperFunction,ComponentPad*
%ADD23C,0.700000*%
G04 #@! TD*
G04 #@! TA.AperFunction,ComponentPad*
%ADD24C,4.400000*%
G04 #@! TD*
G04 #@! TA.AperFunction,SMDPad,CuDef*
%ADD25RoundRect,0.150000X-0.625000X0.150000X-0.625000X-0.150000X0.625000X-0.150000X0.625000X0.150000X0*%
G04 #@! TD*
G04 #@! TA.AperFunction,SMDPad,CuDef*
%ADD26RoundRect,0.250000X-0.650000X0.350000X-0.650000X-0.350000X0.650000X-0.350000X0.650000X0.350000X0*%
G04 #@! TD*
G04 #@! TA.AperFunction,SMDPad,CuDef*
%ADD27RoundRect,0.250000X-0.250000X-0.475000X0.250000X-0.475000X0.250000X0.475000X-0.250000X0.475000X0*%
G04 #@! TD*
G04 #@! TA.AperFunction,SMDPad,CuDef*
%ADD28RoundRect,0.150000X-0.150000X-0.625000X0.150000X-0.625000X0.150000X0.625000X-0.150000X0.625000X0*%
G04 #@! TD*
G04 #@! TA.AperFunction,SMDPad,CuDef*
%ADD29RoundRect,0.250000X-0.350000X-0.650000X0.350000X-0.650000X0.350000X0.650000X-0.350000X0.650000X0*%
G04 #@! TD*
G04 #@! TA.AperFunction,SMDPad,CuDef*
%ADD30RoundRect,0.140000X-0.170000X0.140000X-0.170000X-0.140000X0.170000X-0.140000X0.170000X0.140000X0*%
G04 #@! TD*
G04 #@! TA.AperFunction,SMDPad,CuDef*
%ADD31RoundRect,0.250000X0.475000X-0.250000X0.475000X0.250000X-0.475000X0.250000X-0.475000X-0.250000X0*%
G04 #@! TD*
G04 #@! TA.AperFunction,ViaPad*
%ADD32C,0.700000*%
G04 #@! TD*
G04 #@! TA.AperFunction,ViaPad*
%ADD33C,0.600000*%
G04 #@! TD*
G04 #@! TA.AperFunction,Conductor*
%ADD34C,0.400000*%
G04 #@! TD*
G04 #@! TA.AperFunction,Conductor*
%ADD35C,0.200000*%
G04 #@! TD*
G04 APERTURE END LIST*
D10*
G04 #@! TO.P,R14,1*
G04 #@! TO.N,ERRR_N*
X122478033Y-93764613D03*
G04 #@! TO.P,R14,2*
G04 #@! TO.N,ERRR_S1*
X121458033Y-93764613D03*
G04 #@! TD*
D11*
G04 #@! TO.P,C8,1*
G04 #@! TO.N,REFR_N*
X111611836Y-93789794D03*
G04 #@! TO.P,C8,2*
G04 #@! TO.N,REFR_S1*
X110651836Y-93789794D03*
G04 #@! TD*
D12*
G04 #@! TO.P,R1,1*
G04 #@! TO.N,2V8A*
X118795208Y-95452083D03*
G04 #@! TO.P,R1,2*
G04 #@! TO.N,VMID_DIV*
X119815208Y-95452083D03*
G04 #@! TD*
D13*
G04 #@! TO.P,U3,1*
G04 #@! TO.N,ERRR_S1*
X121025000Y-91862500D03*
G04 #@! TO.P,U3,2*
G04 #@! TO.N,ERRR_N*
X121675000Y-91862500D03*
G04 #@! TO.P,U3,3*
G04 #@! TO.N,ERRR_P*
X122325000Y-91862500D03*
G04 #@! TO.P,U3,4*
G04 #@! TO.N,GND*
X122975000Y-91862500D03*
G04 #@! TO.P,U3,5*
G04 #@! TO.N,ERRR_SKB*
X122975000Y-86137500D03*
G04 #@! TO.P,U3,6*
G04 #@! TO.N,ERRR_OUT*
X122325000Y-86137500D03*
G04 #@! TO.P,U3,7*
X121675000Y-86137500D03*
G04 #@! TO.P,U3,8*
G04 #@! TO.N,2V8A*
X121025000Y-86137500D03*
G04 #@! TD*
D10*
G04 #@! TO.P,R13,1*
G04 #@! TO.N,ERRR_P*
X122183961Y-95266083D03*
G04 #@! TO.P,R13,2*
G04 #@! TO.N,VMID*
X121163961Y-95266083D03*
G04 #@! TD*
G04 #@! TO.P,R17,1*
G04 #@! TO.N,ERRR_OUT*
X119368050Y-92312754D03*
G04 #@! TO.P,R17,2*
G04 #@! TO.N,ERR_R_CBL*
X118348050Y-92312754D03*
G04 #@! TD*
D12*
G04 #@! TO.P,R16,1*
G04 #@! TO.N,ERRR_SKA*
X118354721Y-87139545D03*
G04 #@! TO.P,R16,2*
G04 #@! TO.N,ERRR_SKB*
X119374721Y-87139545D03*
G04 #@! TD*
D11*
G04 #@! TO.P,C15,1*
G04 #@! TO.N,ERRR_N*
X120111836Y-93789794D03*
G04 #@! TO.P,C15,2*
G04 #@! TO.N,ERRR_S1*
X119151836Y-93789794D03*
G04 #@! TD*
D14*
G04 #@! TO.P,R10,1*
G04 #@! TO.N,REFR_OUT*
X115309016Y-93959806D03*
G04 #@! TO.P,R10,2*
G04 #@! TO.N,REF_R_CBL*
X115309016Y-94979806D03*
G04 #@! TD*
D12*
G04 #@! TO.P,R11,1*
G04 #@! TO.N,ERRR_AP*
X114976393Y-96437824D03*
G04 #@! TO.P,R11,2*
G04 #@! TO.N,ERRR_P*
X115996393Y-96437824D03*
G04 #@! TD*
D15*
G04 #@! TO.P,J2,1*
G04 #@! TO.N,SPK_R*
X128800000Y-89500000D03*
G04 #@! TO.P,J2,2*
G04 #@! TO.N,GND*
X128800000Y-88500000D03*
D16*
G04 #@! TO.P,J2,MP*
G04 #@! TO.N,N/C*
X132675000Y-90800000D03*
X132675000Y-87200000D03*
G04 #@! TD*
D17*
G04 #@! TO.P,R9,1*
G04 #@! TO.N,REFR_SKA*
X116126834Y-90418696D03*
G04 #@! TO.P,R9,2*
G04 #@! TO.N,REFR_SKB*
X116126834Y-89398696D03*
G04 #@! TD*
D18*
G04 #@! TO.P,C10,1*
G04 #@! TO.N,REFR_SKB*
X114613033Y-84235386D03*
G04 #@! TO.P,C10,2*
G04 #@! TO.N,GND*
X115573033Y-84235386D03*
G04 #@! TD*
D10*
G04 #@! TO.P,R7,1*
G04 #@! TO.N,REFR_N*
X113978033Y-93764613D03*
G04 #@! TO.P,R7,2*
G04 #@! TO.N,REFR_S1*
X112958033Y-93764613D03*
G04 #@! TD*
D12*
G04 #@! TO.P,R6,1*
G04 #@! TO.N,REFR_P*
X118972867Y-96821186D03*
G04 #@! TO.P,R6,2*
G04 #@! TO.N,VMID*
X119992867Y-96821186D03*
G04 #@! TD*
D10*
G04 #@! TO.P,R3,1*
G04 #@! TO.N,VMID_BUF*
X125089081Y-100091217D03*
G04 #@! TO.P,R3,2*
G04 #@! TO.N,VMID*
X124069081Y-100091217D03*
G04 #@! TD*
D19*
G04 #@! TO.P,C12,1*
G04 #@! TO.N,MICR_ERR_P*
X107848824Y-99271753D03*
G04 #@! TO.P,C12,2*
G04 #@! TO.N,ERRR_AP*
X107848824Y-97721753D03*
G04 #@! TD*
D12*
G04 #@! TO.P,R8,1*
G04 #@! TO.N,REFR_S1*
X112511194Y-95166148D03*
G04 #@! TO.P,R8,2*
G04 #@! TO.N,REFR_SKA*
X113531194Y-95166148D03*
G04 #@! TD*
D20*
G04 #@! TO.P,U1,1*
G04 #@! TO.N,VMID_BUF*
X124362500Y-96550000D03*
G04 #@! TO.P,U1,2*
G04 #@! TO.N,GND*
X124362500Y-97500000D03*
G04 #@! TO.P,U1,3*
G04 #@! TO.N,VMID_DIV*
X124362500Y-98450000D03*
G04 #@! TO.P,U1,4*
G04 #@! TO.N,VMID_BUF*
X126637500Y-98450000D03*
G04 #@! TO.P,U1,5*
G04 #@! TO.N,2V8A*
X126637500Y-96550000D03*
G04 #@! TD*
D21*
G04 #@! TO.P,C6,1*
G04 #@! TO.N,MICR_REF_N*
X107889644Y-92314059D03*
G04 #@! TO.P,C6,2*
G04 #@! TO.N,REFR_AN*
X107889644Y-93864059D03*
G04 #@! TD*
D22*
G04 #@! TO.P,C4,1*
G04 #@! TO.N,VMID*
X124054824Y-94458855D03*
G04 #@! TO.P,C4,2*
G04 #@! TO.N,GND*
X125604824Y-94458855D03*
G04 #@! TD*
D14*
G04 #@! TO.P,R4,1*
G04 #@! TO.N,REFR_AP*
X110813930Y-91094035D03*
G04 #@! TO.P,R4,2*
G04 #@! TO.N,REFR_P*
X110813930Y-92114035D03*
G04 #@! TD*
D10*
G04 #@! TO.P,R15,1*
G04 #@! TO.N,ERRR_S1*
X117865876Y-93765283D03*
G04 #@! TO.P,R15,2*
G04 #@! TO.N,ERRR_SKA*
X116845876Y-93765283D03*
G04 #@! TD*
D23*
G04 #@! TO.P,H1,1*
G04 #@! TO.N,GND*
X107850000Y-83500000D03*
X108333274Y-82333274D03*
X108333274Y-84666726D03*
X109500000Y-81850000D03*
D24*
X109500000Y-83500000D03*
D23*
X109500000Y-85150000D03*
X110666726Y-82333274D03*
X110666726Y-84666726D03*
X111150000Y-83500000D03*
G04 #@! TD*
D22*
G04 #@! TO.P,C16,1*
G04 #@! TO.N,ERRR_SKA*
X117350422Y-85519939D03*
G04 #@! TO.P,C16,2*
G04 #@! TO.N,ERRR_OUT*
X118900422Y-85519939D03*
G04 #@! TD*
D18*
G04 #@! TO.P,C18,1*
G04 #@! TO.N,2V8A*
X128656263Y-98210174D03*
G04 #@! TO.P,C18,2*
G04 #@! TO.N,GND*
X129616263Y-98210174D03*
G04 #@! TD*
D25*
G04 #@! TO.P,J4,1*
G04 #@! TO.N,2V8A*
X105400000Y-97000000D03*
G04 #@! TO.P,J4,2*
G04 #@! TO.N,GND*
X105400000Y-98000000D03*
G04 #@! TO.P,J4,3*
G04 #@! TO.N,MICR_ERR_P*
X105400000Y-99000000D03*
G04 #@! TO.P,J4,4*
G04 #@! TO.N,MICR_ERR_N*
X105400000Y-100000000D03*
D26*
G04 #@! TO.P,J4,MP*
G04 #@! TO.N,N/C*
X101525000Y-95700000D03*
X101525000Y-101300000D03*
G04 #@! TD*
D10*
G04 #@! TO.P,R2,1*
G04 #@! TO.N,VMID_DIV*
X122535542Y-98199437D03*
G04 #@! TO.P,R2,2*
G04 #@! TO.N,GND*
X121515542Y-98199437D03*
G04 #@! TD*
D12*
G04 #@! TO.P,R12,1*
G04 #@! TO.N,ERRR_AN*
X114145633Y-98001514D03*
G04 #@! TO.P,R12,2*
G04 #@! TO.N,ERRR_N*
X115165633Y-98001514D03*
G04 #@! TD*
D21*
G04 #@! TO.P,C13,1*
G04 #@! TO.N,MICR_ERR_N*
X107889644Y-101314059D03*
G04 #@! TO.P,C13,2*
G04 #@! TO.N,ERRR_AN*
X107889644Y-102864059D03*
G04 #@! TD*
D27*
G04 #@! TO.P,C2,1*
G04 #@! TO.N,VMID_DIV*
X123601986Y-101944866D03*
G04 #@! TO.P,C2,2*
G04 #@! TO.N,GND*
X125501986Y-101944866D03*
G04 #@! TD*
D25*
G04 #@! TO.P,J3,1*
G04 #@! TO.N,2V8A*
X105400000Y-88000000D03*
G04 #@! TO.P,J3,2*
G04 #@! TO.N,GND*
X105400000Y-89000000D03*
G04 #@! TO.P,J3,3*
G04 #@! TO.N,MICR_REF_P*
X105400000Y-90000000D03*
G04 #@! TO.P,J3,4*
G04 #@! TO.N,MICR_REF_N*
X105400000Y-91000000D03*
D26*
G04 #@! TO.P,J3,MP*
G04 #@! TO.N,N/C*
X101525000Y-86700000D03*
X101525000Y-92300000D03*
G04 #@! TD*
D28*
G04 #@! TO.P,J1,1*
G04 #@! TO.N,2V8A*
X114500000Y-100900000D03*
G04 #@! TO.P,J1,2*
G04 #@! TO.N,GND*
X115500000Y-100900000D03*
G04 #@! TO.P,J1,3*
G04 #@! TO.N,REF_R_CBL*
X116500000Y-100900000D03*
G04 #@! TO.P,J1,4*
G04 #@! TO.N,ERR_R_CBL*
X117500000Y-100900000D03*
G04 #@! TO.P,J1,5*
G04 #@! TO.N,SPK_R*
X118500000Y-100900000D03*
G04 #@! TO.P,J1,6*
G04 #@! TO.N,GND*
X119500000Y-100900000D03*
D29*
G04 #@! TO.P,J1,MP*
G04 #@! TO.N,N/C*
X113200000Y-104775000D03*
X120800000Y-104775000D03*
G04 #@! TD*
D30*
G04 #@! TO.P,C7,1*
G04 #@! TO.N,REFR_P*
X117506820Y-95538519D03*
G04 #@! TO.P,C7,2*
G04 #@! TO.N,VMID*
X117506820Y-96498519D03*
G04 #@! TD*
D13*
G04 #@! TO.P,U2,1*
G04 #@! TO.N,REFR_S1*
X112525000Y-91862500D03*
G04 #@! TO.P,U2,2*
G04 #@! TO.N,REFR_N*
X113175000Y-91862500D03*
G04 #@! TO.P,U2,3*
G04 #@! TO.N,REFR_P*
X113825000Y-91862500D03*
G04 #@! TO.P,U2,4*
G04 #@! TO.N,GND*
X114475000Y-91862500D03*
G04 #@! TO.P,U2,5*
G04 #@! TO.N,REFR_SKB*
X114475000Y-86137500D03*
G04 #@! TO.P,U2,6*
G04 #@! TO.N,REFR_OUT*
X113825000Y-86137500D03*
G04 #@! TO.P,U2,7*
X113175000Y-86137500D03*
G04 #@! TO.P,U2,8*
G04 #@! TO.N,2V8A*
X112525000Y-86137500D03*
G04 #@! TD*
D11*
G04 #@! TO.P,C14,1*
G04 #@! TO.N,ERRR_P*
X122264850Y-96833104D03*
G04 #@! TO.P,C14,2*
G04 #@! TO.N,VMID*
X121304850Y-96833104D03*
G04 #@! TD*
D31*
G04 #@! TO.P,C1,1*
G04 #@! TO.N,2V8A*
X128934894Y-96514110D03*
G04 #@! TO.P,C1,2*
G04 #@! TO.N,GND*
X128934894Y-94614110D03*
G04 #@! TD*
D18*
G04 #@! TO.P,C11,1*
G04 #@! TO.N,2V8A*
X121163033Y-84235386D03*
G04 #@! TO.P,C11,2*
G04 #@! TO.N,GND*
X122123033Y-84235386D03*
G04 #@! TD*
D30*
G04 #@! TO.P,C3,1*
G04 #@! TO.N,2V8A*
X110765879Y-87060352D03*
G04 #@! TO.P,C3,2*
G04 #@! TO.N,GND*
X110765879Y-88020352D03*
G04 #@! TD*
D23*
G04 #@! TO.P,H2,1*
G04 #@! TO.N,GND*
X128350000Y-102000000D03*
X128833274Y-100833274D03*
X128833274Y-103166726D03*
X130000000Y-100350000D03*
D24*
X130000000Y-102000000D03*
D23*
X130000000Y-103650000D03*
X131166726Y-100833274D03*
X131166726Y-103166726D03*
X131650000Y-102000000D03*
G04 #@! TD*
D12*
G04 #@! TO.P,R5,1*
G04 #@! TO.N,REFR_AN*
X109577769Y-95222403D03*
G04 #@! TO.P,R5,2*
G04 #@! TO.N,REFR_N*
X110597769Y-95222403D03*
G04 #@! TD*
D30*
G04 #@! TO.P,C17,1*
G04 #@! TO.N,ERRR_SKB*
X124650801Y-86161673D03*
G04 #@! TO.P,C17,2*
G04 #@! TO.N,GND*
X124650801Y-87121673D03*
G04 #@! TD*
D19*
G04 #@! TO.P,C5,1*
G04 #@! TO.N,MICR_REF_P*
X107848824Y-90271753D03*
G04 #@! TO.P,C5,2*
G04 #@! TO.N,REFR_AP*
X107848824Y-88721753D03*
G04 #@! TD*
G04 #@! TO.P,C9,1*
G04 #@! TO.N,REFR_SKA*
X117740287Y-90307107D03*
G04 #@! TO.P,C9,2*
G04 #@! TO.N,REFR_OUT*
X117740287Y-88757107D03*
G04 #@! TD*
D32*
G04 #@! TO.N,2V8A*
X127042800Y-101011200D03*
X116584500Y-95128900D03*
X119496100Y-102576200D03*
G04 #@! TO.N,GND*
X109452700Y-87946600D03*
D33*
X123750000Y-81250000D03*
X118750000Y-81250000D03*
X131250000Y-98750000D03*
X126250000Y-86250000D03*
X103750000Y-83750000D03*
X113750000Y-81250000D03*
X131250000Y-96250000D03*
X121250000Y-81250000D03*
X126250000Y-81250000D03*
X126250000Y-103750000D03*
X103750000Y-103750000D03*
X128750000Y-83750000D03*
D32*
X115573000Y-85133700D03*
D33*
X111250000Y-98750000D03*
X106250000Y-83750000D03*
X128750000Y-81250000D03*
X131250000Y-83750000D03*
X106250000Y-81250000D03*
X126250000Y-83750000D03*
X116250000Y-81250000D03*
X131250000Y-93750000D03*
G04 #@! TO.N,ERR_R_CBL*
X118562700Y-93115200D03*
X117819100Y-98166000D03*
D32*
G04 #@! TO.N,SPK_R*
X118501000Y-97644900D03*
X128800000Y-92828500D03*
D33*
G04 #@! TO.N,VMID_DIV*
X126989300Y-99432400D03*
X120739300Y-96158900D03*
G04 #@! TO.N,VMID*
X123315100Y-99836500D03*
X117165100Y-99112900D03*
X119792200Y-99112900D03*
G04 #@! TO.N,REFR_P*
X119215400Y-98320100D03*
X114569900Y-93144800D03*
G04 #@! TO.N,REFR_SKA*
X116126800Y-93230600D03*
X113140300Y-95976300D03*
G04 #@! TO.N,ERRR_P*
X120582800Y-100488800D03*
X115218800Y-99223200D03*
G04 #@! TO.N,ERRR_N*
X120337300Y-92511600D03*
X113305300Y-97588900D03*
G04 #@! TO.N,ERRR_SKB*
X124421500Y-85393600D03*
X119992800Y-87876000D03*
G04 #@! TD*
D34*
G04 #@! TO.N,2V8A*
X111761100Y-103733100D02*
X107352500Y-103733100D01*
X119381400Y-102690900D02*
X119496100Y-102576200D01*
X114500000Y-100900000D02*
X113422800Y-101977200D01*
X128656300Y-98210200D02*
X128656300Y-99397700D01*
X113422800Y-101977200D02*
X113422800Y-102071400D01*
X104204200Y-100584800D02*
X104204200Y-97000000D01*
X106339600Y-87060400D02*
X105400000Y-88000000D01*
X121025000Y-86137500D02*
X121025000Y-84373400D01*
X110765900Y-87060400D02*
X106339600Y-87060400D01*
X107352500Y-103733100D02*
X104204200Y-100584800D01*
X118197200Y-94854100D02*
X116859300Y-94854100D01*
X105400000Y-88000000D02*
X104833100Y-88000000D01*
X128656300Y-99397700D02*
X127042800Y-101011200D01*
X113422800Y-102071400D02*
X114042300Y-102690900D01*
X113422800Y-102071400D02*
X111761100Y-103733100D01*
X104833100Y-88000000D02*
X103622300Y-89210800D01*
X112525000Y-86137500D02*
X112525000Y-85268000D01*
X112525000Y-86137500D02*
X111602100Y-87060400D01*
X128656300Y-98210200D02*
X126996100Y-96550000D01*
X118795200Y-95452100D02*
X118197200Y-94854100D01*
X111602100Y-87060400D02*
X110765900Y-87060400D01*
X103622300Y-96418100D02*
X104204200Y-97000000D01*
X112525000Y-85268000D02*
X114267900Y-83525100D01*
X104204200Y-97000000D02*
X105400000Y-97000000D01*
X114267900Y-83525100D02*
X120176700Y-83525100D01*
X128934900Y-96514100D02*
X128934900Y-97931600D01*
X121025000Y-84373400D02*
X121163000Y-84235400D01*
X120176700Y-83525100D02*
X121025000Y-84373400D01*
X103622300Y-89210800D02*
X103622300Y-96418100D01*
X116859300Y-94854100D02*
X116584500Y-95128900D01*
X114042300Y-102690900D02*
X119381400Y-102690900D01*
X128934900Y-97931600D02*
X128656300Y-98210200D01*
X126996100Y-96550000D02*
X126637500Y-96550000D01*
G04 #@! TO.N,GND*
X110765900Y-88020400D02*
X110692100Y-87946600D01*
X128934900Y-94614100D02*
X126601600Y-94614100D01*
X126446400Y-94458900D02*
X126446400Y-88500000D01*
X119500000Y-100900000D02*
X119500000Y-101493600D01*
X128294900Y-101944900D02*
X128350000Y-102000000D01*
X116109000Y-102087000D02*
X115500000Y-101478000D01*
X124886100Y-88500000D02*
X124886100Y-89951400D01*
X121515500Y-101170700D02*
X121515500Y-98199400D01*
X124886100Y-89951400D02*
X122975000Y-91862500D01*
X125502000Y-101944900D02*
X124379400Y-103067500D01*
X107281300Y-87889000D02*
X106170300Y-89000000D01*
X124886100Y-88500000D02*
X124886100Y-87357000D01*
X104871900Y-89000000D02*
X105400000Y-89000000D01*
X124275900Y-84235400D02*
X122123000Y-84235400D01*
X126446400Y-94458900D02*
X125604800Y-94458900D01*
X111733000Y-82917000D02*
X120923600Y-82917000D01*
X106575300Y-97358600D02*
X106575300Y-94492300D01*
X106575300Y-94492300D02*
X104204200Y-92121200D01*
X114475000Y-91072600D02*
X114475000Y-91862500D01*
X110765900Y-88020400D02*
X111422800Y-88020400D01*
X108333300Y-84666700D02*
X107850000Y-84183400D01*
X130082200Y-95761400D02*
X128934900Y-94614100D01*
X104204200Y-92121200D02*
X104204200Y-89667700D01*
X125373700Y-85333200D02*
X124275900Y-84235400D01*
X129616300Y-98210200D02*
X130082200Y-97744300D01*
X106170300Y-89000000D02*
X105400000Y-89000000D01*
X109452700Y-87946600D02*
X109395100Y-87889000D01*
X125500000Y-96905300D02*
X124905300Y-97500000D01*
X126446400Y-88500000D02*
X125373700Y-88500000D01*
X109395100Y-87889000D02*
X107281300Y-87889000D01*
X115573000Y-84235400D02*
X115573000Y-85133700D01*
X119500000Y-100900000D02*
X119770700Y-101170700D01*
X130000000Y-103650000D02*
X130000000Y-102000000D01*
X125500000Y-94563700D02*
X125500000Y-96905300D01*
X111150000Y-83500000D02*
X111733000Y-82917000D01*
X130000000Y-100350000D02*
X130000000Y-102000000D01*
X107850000Y-84183400D02*
X107850000Y-83500000D01*
X111422800Y-88020400D02*
X114475000Y-91072600D01*
X125373700Y-88500000D02*
X124886100Y-88500000D01*
X105933900Y-98000000D02*
X106575300Y-97358600D01*
X120923600Y-82917000D02*
X122123000Y-84116400D01*
X130000000Y-98593900D02*
X130000000Y-100350000D01*
X125502000Y-101944900D02*
X128294900Y-101944900D01*
X129616300Y-98210200D02*
X130000000Y-98593900D01*
X126601600Y-94614100D02*
X126446400Y-94458900D01*
X128800000Y-88500000D02*
X126446400Y-88500000D01*
X115500000Y-101478000D02*
X115500000Y-100900000D01*
X109500000Y-85150000D02*
X109500000Y-83500000D01*
X104204200Y-89667700D02*
X104871900Y-89000000D01*
X121515500Y-101534600D02*
X121515500Y-101170700D01*
X122123000Y-84116400D02*
X122123000Y-84235400D01*
X119500000Y-101493600D02*
X118906600Y-102087000D01*
X130082200Y-97744300D02*
X130082200Y-95761400D01*
X124886100Y-87357000D02*
X124650800Y-87121700D01*
X119770700Y-101170700D02*
X121515500Y-101170700D01*
X105400000Y-98000000D02*
X105933900Y-98000000D01*
X123048400Y-103067500D02*
X121515500Y-101534600D01*
X109500000Y-81850000D02*
X109500000Y-83500000D01*
X118906600Y-102087000D02*
X116109000Y-102087000D01*
X124379400Y-103067500D02*
X123048400Y-103067500D01*
X125604800Y-94458900D02*
X125500000Y-94563700D01*
X110692100Y-87946600D02*
X109452700Y-87946600D01*
X124905300Y-97500000D02*
X124362500Y-97500000D01*
X125373700Y-88500000D02*
X125373700Y-85333200D01*
D35*
G04 #@! TO.N,REF_R_CBL*
X116557900Y-100842100D02*
X116500000Y-100900000D01*
X115309000Y-94979800D02*
X116090000Y-95760800D01*
X116355500Y-95760800D02*
X116557900Y-95963200D01*
X116557900Y-95963200D02*
X116557900Y-100842100D01*
X116090000Y-95760800D02*
X116355500Y-95760800D01*
G04 #@! TO.N,ERR_R_CBL*
X118562700Y-92527400D02*
X118348100Y-92312800D01*
X118562700Y-93115200D02*
X118562700Y-92527400D01*
X117500000Y-100900000D02*
X117819100Y-100580900D01*
X117819100Y-100580900D02*
X117819100Y-98166000D01*
D34*
G04 #@! TO.N,SPK_R*
X118500000Y-100900000D02*
X118501000Y-100899000D01*
X118501000Y-100899000D02*
X118501000Y-97644900D01*
X128800000Y-89500000D02*
X128800000Y-92828500D01*
D35*
G04 #@! TO.N,VMID_DIV*
X124362500Y-98450000D02*
X125099200Y-98450000D01*
X125490900Y-100930800D02*
X124616100Y-100930800D01*
X127588800Y-98832900D02*
X126989300Y-99432400D01*
X120522000Y-96158900D02*
X119815200Y-95452100D01*
X120739300Y-96158900D02*
X120522000Y-96158900D01*
X126989300Y-99432400D02*
X125490900Y-100930800D01*
X124616100Y-100930800D02*
X123602000Y-101944900D01*
X125692300Y-97856900D02*
X127318600Y-97856900D01*
X127588800Y-98127100D02*
X127588800Y-98832900D01*
X127318600Y-97856900D02*
X127588800Y-98127100D01*
X123602000Y-101944900D02*
X122535500Y-100878400D01*
X125099200Y-98450000D02*
X125692300Y-97856900D01*
X122535500Y-100878400D02*
X122535500Y-98199400D01*
G04 #@! TO.N,VMID_BUF*
X123417500Y-98884000D02*
X123417500Y-97109100D01*
X123970400Y-99436900D02*
X123417500Y-98884000D01*
X123976600Y-96550000D02*
X124362500Y-96550000D01*
X125089100Y-100091200D02*
X124434800Y-99436900D01*
X124434800Y-99436900D02*
X123970400Y-99436900D01*
X125089100Y-100091200D02*
X126637500Y-98542800D01*
X126637500Y-98542800D02*
X126637500Y-98450000D01*
X123417500Y-97109100D02*
X123976600Y-96550000D01*
G04 #@! TO.N,VMID*
X121971200Y-94458900D02*
X121164000Y-95266100D01*
X121164000Y-96692200D02*
X121321200Y-96535000D01*
X121164000Y-96692200D02*
X121035000Y-96821200D01*
X119792200Y-99112900D02*
X119992900Y-98912200D01*
X123315100Y-99836500D02*
X123814400Y-99836500D01*
X121035000Y-96821200D02*
X119992900Y-96821200D01*
X124054800Y-94458900D02*
X121971200Y-94458900D01*
X121304900Y-96833100D02*
X121164000Y-96692200D01*
X123814400Y-99836500D02*
X124069100Y-100091200D01*
X117165100Y-96840200D02*
X117165100Y-99112900D01*
X117506800Y-96498500D02*
X117165100Y-96840200D01*
X121321200Y-96535000D02*
X121321200Y-95423300D01*
X119992900Y-98912200D02*
X119992900Y-96821200D01*
X121321200Y-95423300D02*
X121164000Y-95266100D01*
G04 #@! TO.N,MICR_REF_P*
X105400000Y-90000000D02*
X107577000Y-90000000D01*
X107577000Y-90000000D02*
X107848800Y-90271800D01*
G04 #@! TO.N,MICR_REF_N*
X105400000Y-91000000D02*
X106714100Y-92314100D01*
X106714100Y-92314100D02*
X107889600Y-92314100D01*
G04 #@! TO.N,MICR_ERR_P*
X105400000Y-99000000D02*
X107577000Y-99000000D01*
X107577000Y-99000000D02*
X107848800Y-99271800D01*
G04 #@! TO.N,MICR_ERR_N*
X106714100Y-101314100D02*
X107889600Y-101314100D01*
X105400000Y-100000000D02*
X106714100Y-101314100D01*
G04 #@! TO.N,REFR_AP*
X107848800Y-88721800D02*
X110221000Y-91094000D01*
X110221000Y-91094000D02*
X110813900Y-91094000D01*
G04 #@! TO.N,REFR_AN*
X107889600Y-93864100D02*
X108219500Y-93864100D01*
X108219500Y-93864100D02*
X109577800Y-95222400D01*
G04 #@! TO.N,REFR_P*
X110813900Y-92114000D02*
X112100200Y-90827700D01*
X118789500Y-96821200D02*
X118972900Y-96821200D01*
X117506800Y-95538500D02*
X118789500Y-96821200D01*
X113485400Y-90827700D02*
X113825000Y-91167300D01*
X119215400Y-97063700D02*
X118972900Y-96821200D01*
X112100200Y-90827700D02*
X113485400Y-90827700D01*
X113825000Y-92558800D02*
X114411000Y-93144800D01*
X119215400Y-98320100D02*
X119215400Y-97063700D01*
X113825000Y-91862500D02*
X113825000Y-92558800D01*
X113825000Y-91167300D02*
X113825000Y-91862500D01*
X114411000Y-93144800D02*
X114569900Y-93144800D01*
G04 #@! TO.N,REFR_N*
X113175000Y-91862500D02*
X113175000Y-92961600D01*
X113175000Y-92961600D02*
X113978000Y-93764600D01*
X110597800Y-95222400D02*
X111611800Y-95222400D01*
X113318700Y-96621000D02*
X112962200Y-96621000D01*
X114107800Y-95831900D02*
X113318700Y-96621000D01*
X113978000Y-93764600D02*
X114107800Y-93894400D01*
X112962200Y-96621000D02*
X111611800Y-95270600D01*
X111611800Y-95270600D02*
X111611800Y-95222400D01*
X114107800Y-93894400D02*
X114107800Y-95831900D01*
X111611800Y-95222400D02*
X111611800Y-93789800D01*
G04 #@! TO.N,REFR_S1*
X112566300Y-95111000D02*
X112511200Y-95166100D01*
X112566300Y-93764600D02*
X112566300Y-95111000D01*
X110651800Y-93789800D02*
X111295400Y-93146200D01*
X112525000Y-93146200D02*
X112525000Y-93723300D01*
X111295400Y-93146200D02*
X112525000Y-93146200D01*
X112525000Y-93723300D02*
X112566300Y-93764600D01*
X112566300Y-93764600D02*
X112958000Y-93764600D01*
X112525000Y-91862500D02*
X112525000Y-93146200D01*
G04 #@! TO.N,REFR_SKA*
X116126800Y-90418700D02*
X116126800Y-93230600D01*
X113531200Y-95166100D02*
X113531200Y-95585400D01*
X116238400Y-90307100D02*
X116126800Y-90418700D01*
X113531200Y-95585400D02*
X113140300Y-95976300D01*
X117740300Y-90307100D02*
X116238400Y-90307100D01*
G04 #@! TO.N,REFR_SKB*
X118217900Y-89532100D02*
X118546900Y-89203100D01*
X118546900Y-88370600D02*
X116175800Y-85999500D01*
X114613000Y-85999500D02*
X114613000Y-84235400D01*
X116260200Y-89532100D02*
X118217900Y-89532100D01*
X114475000Y-86137500D02*
X114613000Y-85999500D01*
X118546900Y-89203100D02*
X118546900Y-88370600D01*
X116175800Y-85999500D02*
X114613000Y-85999500D01*
X116126800Y-89398700D02*
X116260200Y-89532100D01*
G04 #@! TO.N,REFR_OUT*
X113175000Y-86137500D02*
X113825000Y-86137500D01*
X115309000Y-93959800D02*
X115309000Y-88757100D01*
X113825000Y-87273100D02*
X115309000Y-88757100D01*
X113825000Y-86137500D02*
X113825000Y-87273100D01*
X115309000Y-88757100D02*
X117740300Y-88757100D01*
G04 #@! TO.N,ERRR_AP*
X108567600Y-97003000D02*
X107848800Y-97721800D01*
X114411200Y-97003000D02*
X108567600Y-97003000D01*
X114976400Y-96437800D02*
X114411200Y-97003000D01*
G04 #@! TO.N,ERRR_AN*
X109283000Y-102864100D02*
X114145600Y-98001500D01*
X107889600Y-102864100D02*
X109283000Y-102864100D01*
G04 #@! TO.N,ERRR_P*
X122264900Y-95347000D02*
X122264900Y-96833100D01*
X124829800Y-93984100D02*
X124032900Y-93187200D01*
X115996400Y-96437800D02*
X115996400Y-98445600D01*
X121672500Y-97425500D02*
X121317800Y-97425500D01*
X122264900Y-96833100D02*
X121672500Y-97425500D01*
X124032900Y-93187200D02*
X122958900Y-93187200D01*
X120582800Y-98160500D02*
X120582800Y-100488800D01*
X121317800Y-97425500D02*
X120582800Y-98160500D01*
X122184000Y-95266100D02*
X124475500Y-95266100D01*
X122184000Y-95266100D02*
X122264900Y-95347000D01*
X122958900Y-93187200D02*
X122325000Y-92553300D01*
X122325000Y-92553300D02*
X122325000Y-91862500D01*
X115996400Y-98445600D02*
X115218800Y-99223200D01*
X124475500Y-95266100D02*
X124829800Y-94911800D01*
X124829800Y-94911800D02*
X124829800Y-93984100D01*
G04 #@! TO.N,ERRR_N*
X114549000Y-97384900D02*
X113509300Y-97384900D01*
X121337300Y-90826900D02*
X120724200Y-90826900D01*
X121675000Y-92961600D02*
X121675000Y-91862500D01*
X120337300Y-92511600D02*
X120337300Y-93564300D01*
X121675000Y-91862500D02*
X121675000Y-91164600D01*
X115165600Y-98001500D02*
X114549000Y-97384900D01*
X120337300Y-91213800D02*
X120337300Y-92511600D01*
X113509300Y-97384900D02*
X113305300Y-97588900D01*
X121675000Y-91164600D02*
X121337300Y-90826900D01*
X120724200Y-90826900D02*
X120337300Y-91213800D01*
X120337300Y-93564300D02*
X120111800Y-93789800D01*
X122478000Y-93764600D02*
X121675000Y-92961600D01*
G04 #@! TO.N,ERRR_S1*
X121163500Y-93718400D02*
X120479100Y-94402800D01*
X121209700Y-93764600D02*
X121163500Y-93718400D01*
X119151800Y-93789800D02*
X117890400Y-93789800D01*
X121025000Y-93579900D02*
X121025000Y-91862500D01*
X121458000Y-93764600D02*
X121209700Y-93764600D01*
X121163500Y-93718400D02*
X121025000Y-93579900D01*
X117890400Y-93789800D02*
X117865900Y-93765300D01*
X119764800Y-94402800D02*
X119151800Y-93789800D01*
X120479100Y-94402800D02*
X119764800Y-94402800D01*
G04 #@! TO.N,ERRR_SKA*
X118928800Y-87713600D02*
X118354700Y-87139500D01*
X117350400Y-86135200D02*
X118354700Y-87139500D01*
X116845900Y-93765300D02*
X116845900Y-92422800D01*
X118928800Y-90339900D02*
X118928800Y-87713600D01*
X116845900Y-92422800D02*
X118928800Y-90339900D01*
X117350400Y-85519900D02*
X117350400Y-86135200D01*
G04 #@! TO.N,ERRR_SKB*
X124626600Y-86137500D02*
X124650800Y-86161700D01*
X119992800Y-87876000D02*
X119374700Y-87257900D01*
X119374700Y-87257900D02*
X119374700Y-87139500D01*
X124421500Y-86137500D02*
X124421500Y-85393600D01*
X122975000Y-86137500D02*
X124421500Y-86137500D01*
X124421500Y-86137500D02*
X124626600Y-86137500D01*
G04 #@! TO.N,ERRR_OUT*
X119368100Y-90438500D02*
X120574700Y-89231900D01*
X120235500Y-87160600D02*
X120235500Y-86855000D01*
X121675000Y-86771900D02*
X121286300Y-87160600D01*
X120574700Y-87499800D02*
X120235500Y-87160600D01*
X120235500Y-86855000D02*
X118900400Y-85519900D01*
X121675000Y-86137500D02*
X122325000Y-86137500D01*
X121286300Y-87160600D02*
X120235500Y-87160600D01*
X120574700Y-89231900D02*
X120574700Y-87499800D01*
X119368100Y-92312800D02*
X119368100Y-90438500D01*
X121675000Y-86137500D02*
X121675000Y-86771900D01*
G04 #@! TD*
G04 #@! TA.AperFunction,Conductor*
G04 #@! TO.N,GND*
G36*
X129002152Y-80300593D02*
G01*
X129405284Y-80318195D01*
X129413864Y-80318945D01*
X129811776Y-80371332D01*
X129820281Y-80372832D01*
X129931870Y-80397570D01*
X130212108Y-80459698D01*
X130220423Y-80461925D01*
X130603201Y-80582615D01*
X130611317Y-80585569D01*
X130982111Y-80739157D01*
X130989923Y-80742799D01*
X131345910Y-80928115D01*
X131353390Y-80932433D01*
X131691882Y-81148076D01*
X131698956Y-81153030D01*
X131862848Y-81278789D01*
X132017354Y-81397345D01*
X132023968Y-81402895D01*
X132319868Y-81674038D01*
X132325961Y-81680131D01*
X132505404Y-81875958D01*
X132597102Y-81976029D01*
X132602654Y-81982645D01*
X132846969Y-82301043D01*
X132851923Y-82308117D01*
X133067566Y-82646609D01*
X133071884Y-82654089D01*
X133257196Y-83010069D01*
X133260846Y-83017896D01*
X133414430Y-83388682D01*
X133417384Y-83396798D01*
X133538069Y-83779560D01*
X133540304Y-83787903D01*
X133627167Y-84179718D01*
X133628667Y-84188223D01*
X133681052Y-84586123D01*
X133681805Y-84594727D01*
X133699406Y-84997847D01*
X133699500Y-85002165D01*
X133699500Y-86312913D01*
X133680593Y-86371104D01*
X133631093Y-86407068D01*
X133569907Y-86407068D01*
X133565904Y-86405671D01*
X133432488Y-86355910D01*
X133432483Y-86355909D01*
X133432481Y-86355908D01*
X133432477Y-86355908D01*
X133401249Y-86352550D01*
X133372873Y-86349500D01*
X133372870Y-86349500D01*
X131977133Y-86349500D01*
X131977129Y-86349500D01*
X131977128Y-86349501D01*
X131972486Y-86350000D01*
X131917519Y-86355908D01*
X131917514Y-86355909D01*
X131782670Y-86406202D01*
X131667458Y-86492450D01*
X131667450Y-86492458D01*
X131581202Y-86607670D01*
X131530910Y-86742511D01*
X131530908Y-86742522D01*
X131524500Y-86802129D01*
X131524500Y-87597866D01*
X131524500Y-87597869D01*
X131524501Y-87597872D01*
X131525983Y-87611658D01*
X131530908Y-87657480D01*
X131530909Y-87657485D01*
X131581202Y-87792329D01*
X131667450Y-87907541D01*
X131667454Y-87907546D01*
X131667457Y-87907548D01*
X131667458Y-87907549D01*
X131782670Y-87993797D01*
X131917511Y-88044089D01*
X131917512Y-88044089D01*
X131917517Y-88044091D01*
X131977127Y-88050500D01*
X133372872Y-88050499D01*
X133432483Y-88044091D01*
X133565904Y-87994327D01*
X133627033Y-87991708D01*
X133678027Y-88025519D01*
X133699409Y-88082846D01*
X133699500Y-88087086D01*
X133699500Y-89912913D01*
X133680593Y-89971104D01*
X133631093Y-90007068D01*
X133569907Y-90007068D01*
X133565904Y-90005671D01*
X133432488Y-89955910D01*
X133432483Y-89955909D01*
X133432481Y-89955908D01*
X133432477Y-89955908D01*
X133401249Y-89952550D01*
X133372873Y-89949500D01*
X133372870Y-89949500D01*
X131977133Y-89949500D01*
X131977129Y-89949500D01*
X131977128Y-89949501D01*
X131969949Y-89950272D01*
X131917519Y-89955908D01*
X131917514Y-89955909D01*
X131782670Y-90006202D01*
X131667458Y-90092450D01*
X131667450Y-90092458D01*
X131581202Y-90207670D01*
X131530910Y-90342511D01*
X131530908Y-90342522D01*
X131524500Y-90402129D01*
X131524500Y-91197866D01*
X131524501Y-91197870D01*
X131530908Y-91257480D01*
X131530909Y-91257485D01*
X131581202Y-91392329D01*
X131661714Y-91499879D01*
X131667454Y-91507546D01*
X131667457Y-91507548D01*
X131667458Y-91507549D01*
X131782670Y-91593797D01*
X131917511Y-91644089D01*
X131917512Y-91644089D01*
X131917517Y-91644091D01*
X131977127Y-91650500D01*
X133372872Y-91650499D01*
X133432483Y-91644091D01*
X133565904Y-91594327D01*
X133627033Y-91591708D01*
X133678027Y-91625519D01*
X133699409Y-91682846D01*
X133699500Y-91687086D01*
X133699500Y-100997834D01*
X133699406Y-101002152D01*
X133681805Y-101405272D01*
X133681052Y-101413876D01*
X133628667Y-101811776D01*
X133627167Y-101820281D01*
X133540304Y-102212096D01*
X133538069Y-102220439D01*
X133417384Y-102603201D01*
X133414430Y-102611317D01*
X133260846Y-102982103D01*
X133257196Y-102989930D01*
X133071884Y-103345910D01*
X133067566Y-103353390D01*
X132851923Y-103691882D01*
X132846969Y-103698956D01*
X132602654Y-104017354D01*
X132597102Y-104023970D01*
X132325968Y-104319861D01*
X132319861Y-104325968D01*
X132023970Y-104597102D01*
X132017354Y-104602654D01*
X131698956Y-104846969D01*
X131691882Y-104851923D01*
X131353390Y-105067566D01*
X131345910Y-105071884D01*
X130989930Y-105257196D01*
X130982103Y-105260846D01*
X130611317Y-105414430D01*
X130603201Y-105417384D01*
X130220439Y-105538069D01*
X130212096Y-105540304D01*
X129820281Y-105627167D01*
X129811776Y-105628667D01*
X129413876Y-105681052D01*
X129405272Y-105681805D01*
X129002153Y-105699406D01*
X128997835Y-105699500D01*
X121724384Y-105699500D01*
X121666193Y-105680593D01*
X121630229Y-105631093D01*
X121630229Y-105569907D01*
X121631626Y-105565904D01*
X121641523Y-105539368D01*
X121644091Y-105532483D01*
X121650500Y-105472873D01*
X121650499Y-104077128D01*
X121644091Y-104017517D01*
X121637742Y-104000495D01*
X121593797Y-103882670D01*
X121507549Y-103767458D01*
X121507548Y-103767457D01*
X121507546Y-103767454D01*
X121507541Y-103767450D01*
X121392329Y-103681202D01*
X121257488Y-103630910D01*
X121257483Y-103630909D01*
X121257481Y-103630908D01*
X121257477Y-103630908D01*
X121226249Y-103627550D01*
X121197873Y-103624500D01*
X121197870Y-103624500D01*
X120402133Y-103624500D01*
X120402129Y-103624500D01*
X120402128Y-103624501D01*
X120394949Y-103625272D01*
X120342519Y-103630908D01*
X120342514Y-103630909D01*
X120207670Y-103681202D01*
X120092458Y-103767450D01*
X120092450Y-103767458D01*
X120006202Y-103882670D01*
X119955910Y-104017511D01*
X119955908Y-104017522D01*
X119949500Y-104077129D01*
X119949500Y-105472866D01*
X119949501Y-105472870D01*
X119955908Y-105532480D01*
X119955909Y-105532485D01*
X119968374Y-105565904D01*
X119970994Y-105627033D01*
X119937183Y-105678028D01*
X119879855Y-105699409D01*
X119875616Y-105699500D01*
X114124384Y-105699500D01*
X114066193Y-105680593D01*
X114030229Y-105631093D01*
X114030229Y-105569907D01*
X114031626Y-105565904D01*
X114041523Y-105539368D01*
X114044091Y-105532483D01*
X114050500Y-105472873D01*
X114050499Y-104077128D01*
X114044091Y-104017517D01*
X114037742Y-104000495D01*
X113993797Y-103882670D01*
X113907549Y-103767458D01*
X113907548Y-103767457D01*
X113907546Y-103767454D01*
X113907541Y-103767450D01*
X113792329Y-103681202D01*
X113657488Y-103630910D01*
X113657483Y-103630909D01*
X113657481Y-103630908D01*
X113657477Y-103630908D01*
X113626249Y-103627550D01*
X113597873Y-103624500D01*
X113597870Y-103624500D01*
X112802133Y-103624500D01*
X112802127Y-103624501D01*
X112750245Y-103630078D01*
X112690367Y-103617498D01*
X112649319Y-103572125D01*
X112642780Y-103511290D01*
X112669660Y-103461642D01*
X113352797Y-102778504D01*
X113407312Y-102750729D01*
X113467744Y-102760300D01*
X113492802Y-102778506D01*
X113701924Y-102987627D01*
X113709321Y-102995904D01*
X113732421Y-103024870D01*
X113766144Y-103047862D01*
X113780045Y-103057340D01*
X113783057Y-103059477D01*
X113829418Y-103093693D01*
X113829421Y-103093694D01*
X113835977Y-103097159D01*
X113835769Y-103097551D01*
X113837750Y-103098551D01*
X113837943Y-103098153D01*
X113844627Y-103101372D01*
X113899734Y-103118370D01*
X113903175Y-103119501D01*
X113957600Y-103138546D01*
X113957601Y-103138546D01*
X113964893Y-103139926D01*
X113964810Y-103140360D01*
X113966997Y-103140731D01*
X113967063Y-103140294D01*
X113974396Y-103141399D01*
X113974398Y-103141400D01*
X114032015Y-103141400D01*
X114035716Y-103141469D01*
X114037880Y-103141549D01*
X114093310Y-103143624D01*
X114093316Y-103143622D01*
X114100685Y-103142793D01*
X114100734Y-103143231D01*
X114114644Y-103141400D01*
X119271738Y-103141400D01*
X119309623Y-103148936D01*
X119339333Y-103161242D01*
X119339338Y-103161244D01*
X119449933Y-103175804D01*
X119496099Y-103181882D01*
X119496100Y-103181882D01*
X119496101Y-103181882D01*
X119542267Y-103175804D01*
X119652862Y-103161244D01*
X119798941Y-103100736D01*
X119924382Y-103004482D01*
X120020636Y-102879041D01*
X120081144Y-102732962D01*
X120101782Y-102576200D01*
X120081144Y-102419438D01*
X120076750Y-102408830D01*
X120020637Y-102273361D01*
X120020637Y-102273360D01*
X119924386Y-102147923D01*
X119924385Y-102147922D01*
X119924382Y-102147918D01*
X119924377Y-102147914D01*
X119924376Y-102147913D01*
X119803109Y-102054862D01*
X119768453Y-102004438D01*
X119770054Y-101943273D01*
X119807302Y-101894732D01*
X119818431Y-101888110D01*
X119888044Y-101852640D01*
X119977641Y-101763043D01*
X120035163Y-101650151D01*
X120035164Y-101650147D01*
X120050000Y-101556484D01*
X120050000Y-101050001D01*
X120049999Y-101050000D01*
X119449000Y-101050000D01*
X119390809Y-101031093D01*
X119354845Y-100981593D01*
X119350000Y-100951000D01*
X119350000Y-99875000D01*
X119318517Y-99875000D01*
X119318512Y-99875001D01*
X119224858Y-99889833D01*
X119224848Y-99889836D01*
X119111956Y-99947358D01*
X119108688Y-99949733D01*
X119050496Y-99968638D01*
X118992306Y-99949728D01*
X118956344Y-99900227D01*
X118951500Y-99869638D01*
X118951500Y-98953244D01*
X118970407Y-98895053D01*
X119019907Y-98859089D01*
X119064950Y-98857913D01*
X119065257Y-98855583D01*
X119071691Y-98856430D01*
X119169173Y-98869263D01*
X119224396Y-98895604D01*
X119253591Y-98949374D01*
X119254402Y-98980338D01*
X119236950Y-99112899D01*
X119236950Y-99112900D01*
X119255869Y-99256608D01*
X119255870Y-99256609D01*
X119310434Y-99388342D01*
X119311339Y-99390525D01*
X119399579Y-99505521D01*
X119514575Y-99593761D01*
X119648491Y-99649230D01*
X119792200Y-99668150D01*
X119935909Y-99649230D01*
X120069825Y-99593761D01*
X120073029Y-99591302D01*
X120130701Y-99570875D01*
X120189368Y-99588248D01*
X120226619Y-99636787D01*
X120232300Y-99669841D01*
X120232300Y-100015036D01*
X120213393Y-100073227D01*
X120193569Y-100093577D01*
X120190180Y-100096177D01*
X120176105Y-100114520D01*
X120125680Y-100149175D01*
X120064515Y-100147572D01*
X120015974Y-100110323D01*
X120009355Y-100099197D01*
X119977641Y-100036956D01*
X119888043Y-99947358D01*
X119775151Y-99889836D01*
X119775147Y-99889835D01*
X119681484Y-99875000D01*
X119650001Y-99875000D01*
X119650000Y-99875001D01*
X119650000Y-100749999D01*
X119650001Y-100750000D01*
X120040514Y-100750000D01*
X120098705Y-100768907D01*
X120119055Y-100788731D01*
X120190179Y-100881421D01*
X120305175Y-100969661D01*
X120439091Y-101025130D01*
X120582800Y-101044050D01*
X120726509Y-101025130D01*
X120860425Y-100969661D01*
X120975421Y-100881421D01*
X121063661Y-100766425D01*
X121119130Y-100632509D01*
X121138050Y-100488800D01*
X121119130Y-100345091D01*
X121063661Y-100211175D01*
X120975421Y-100096179D01*
X120975419Y-100096177D01*
X120975418Y-100096176D01*
X120972031Y-100093577D01*
X120937376Y-100043151D01*
X120933300Y-100015036D01*
X120933300Y-98720675D01*
X120952207Y-98662484D01*
X121001707Y-98626520D01*
X121062893Y-98626520D01*
X121102304Y-98650671D01*
X121153734Y-98702101D01*
X121269167Y-98758533D01*
X121344004Y-98769436D01*
X121365542Y-98769435D01*
X121365542Y-98148437D01*
X121384449Y-98090246D01*
X121433949Y-98054282D01*
X121464542Y-98049437D01*
X121566542Y-98049437D01*
X121624733Y-98068344D01*
X121660697Y-98117844D01*
X121665542Y-98148437D01*
X121665542Y-98769435D01*
X121665543Y-98769436D01*
X121687077Y-98769436D01*
X121687080Y-98769435D01*
X121761917Y-98758533D01*
X121877350Y-98702101D01*
X121955185Y-98624266D01*
X122009701Y-98596488D01*
X122070134Y-98606059D01*
X122095189Y-98624262D01*
X122156005Y-98685078D01*
X122183781Y-98739593D01*
X122185000Y-98755080D01*
X122185000Y-100831781D01*
X122182893Y-100852096D01*
X122180457Y-100863713D01*
X122184240Y-100894062D01*
X122185000Y-100906307D01*
X122185000Y-100907442D01*
X122188251Y-100926928D01*
X122188837Y-100930947D01*
X122194426Y-100975775D01*
X122194927Y-100979793D01*
X122197027Y-100986848D01*
X122199407Y-100993780D01*
X122222822Y-101037046D01*
X122224695Y-101040685D01*
X122246301Y-101084882D01*
X122250578Y-101090872D01*
X122255081Y-101096658D01*
X122291264Y-101129967D01*
X122294217Y-101132799D01*
X122571006Y-101409588D01*
X122822490Y-101661071D01*
X122850267Y-101715588D01*
X122851486Y-101731075D01*
X122851486Y-102467732D01*
X122851487Y-102467736D01*
X122857894Y-102527346D01*
X122857895Y-102527351D01*
X122908188Y-102662195D01*
X122965413Y-102738637D01*
X122994440Y-102777412D01*
X122994443Y-102777414D01*
X122994444Y-102777415D01*
X123109656Y-102863663D01*
X123244497Y-102913955D01*
X123244498Y-102913955D01*
X123244503Y-102913957D01*
X123304113Y-102920366D01*
X123899858Y-102920365D01*
X123959469Y-102913957D01*
X124053092Y-102879038D01*
X124094315Y-102863663D01*
X124094315Y-102863662D01*
X124094317Y-102863662D01*
X124209532Y-102777412D01*
X124295782Y-102662197D01*
X124346077Y-102527349D01*
X124352486Y-102467739D01*
X124352486Y-102467690D01*
X124751985Y-102467690D01*
X124758387Y-102527236D01*
X124758389Y-102527247D01*
X124808632Y-102661954D01*
X124808633Y-102661956D01*
X124894793Y-102777050D01*
X124894801Y-102777058D01*
X125009895Y-102863218D01*
X125009897Y-102863219D01*
X125144604Y-102913462D01*
X125144615Y-102913464D01*
X125204162Y-102919866D01*
X125351985Y-102919866D01*
X125351986Y-102919865D01*
X125651986Y-102919865D01*
X125651987Y-102919866D01*
X125799810Y-102919866D01*
X125859356Y-102913464D01*
X125859367Y-102913462D01*
X125994074Y-102863219D01*
X125994076Y-102863218D01*
X126109170Y-102777058D01*
X126109178Y-102777050D01*
X126195338Y-102661956D01*
X126195339Y-102661954D01*
X126245582Y-102527247D01*
X126245584Y-102527236D01*
X126251986Y-102467690D01*
X126251986Y-102094867D01*
X126251985Y-102094866D01*
X125651987Y-102094866D01*
X125651986Y-102094867D01*
X125651986Y-102919865D01*
X125351986Y-102919865D01*
X125351986Y-102094867D01*
X125351985Y-102094866D01*
X124751987Y-102094866D01*
X124751986Y-102094867D01*
X124751986Y-102467690D01*
X124751985Y-102467690D01*
X124352486Y-102467690D01*
X124352485Y-101731102D01*
X124371392Y-101672912D01*
X124381474Y-101661106D01*
X124582985Y-101459596D01*
X124637499Y-101431821D01*
X124697931Y-101441392D01*
X124741196Y-101484657D01*
X124751986Y-101529602D01*
X124751986Y-101794865D01*
X124751987Y-101794866D01*
X126251985Y-101794866D01*
X126251986Y-101794865D01*
X126251986Y-101422041D01*
X126245584Y-101362495D01*
X126245582Y-101362484D01*
X126195339Y-101227777D01*
X126195338Y-101227775D01*
X126109178Y-101112681D01*
X126109170Y-101112673D01*
X126026515Y-101050797D01*
X125991262Y-101000788D01*
X125992136Y-100939609D01*
X126015838Y-100901542D01*
X126902141Y-100015239D01*
X126956656Y-99987464D01*
X126985069Y-99987093D01*
X126989300Y-99987650D01*
X127133009Y-99968730D01*
X127211194Y-99936344D01*
X127272191Y-99931544D01*
X127324360Y-99963514D01*
X127347774Y-100020042D01*
X127333490Y-100079537D01*
X127319082Y-100097813D01*
X127030376Y-100386518D01*
X126975860Y-100414295D01*
X126973296Y-100414667D01*
X126886037Y-100426156D01*
X126739961Y-100486662D01*
X126739960Y-100486662D01*
X126614523Y-100582913D01*
X126614513Y-100582923D01*
X126518262Y-100708360D01*
X126518262Y-100708361D01*
X126457757Y-100854433D01*
X126457755Y-100854441D01*
X126437118Y-101011199D01*
X126437118Y-101011200D01*
X126457755Y-101167958D01*
X126457757Y-101167966D01*
X126518262Y-101314038D01*
X126518262Y-101314039D01*
X126614513Y-101439476D01*
X126614518Y-101439482D01*
X126739959Y-101535736D01*
X126739960Y-101535736D01*
X126739961Y-101535737D01*
X126857782Y-101584540D01*
X126886038Y-101596244D01*
X127003609Y-101611722D01*
X127042799Y-101616882D01*
X127042800Y-101616882D01*
X127042801Y-101616882D01*
X127074152Y-101612754D01*
X127199562Y-101596244D01*
X127345641Y-101535736D01*
X127430817Y-101470377D01*
X127488493Y-101449954D01*
X127547158Y-101467332D01*
X127584406Y-101515873D01*
X127588330Y-101567471D01*
X127564513Y-101692320D01*
X127545156Y-102000000D01*
X127564513Y-102307679D01*
X127622277Y-102610486D01*
X127622280Y-102610496D01*
X127717546Y-102903694D01*
X127848804Y-103182630D01*
X127848811Y-103182643D01*
X128013988Y-103442920D01*
X128013995Y-103442929D01*
X128163825Y-103624040D01*
X129123030Y-102664835D01*
X129164894Y-102723624D01*
X129316932Y-102868592D01*
X129333129Y-102879001D01*
X128376132Y-103835999D01*
X128435221Y-103891487D01*
X128684639Y-104072700D01*
X128954776Y-104221208D01*
X128954779Y-104221210D01*
X129241410Y-104334694D01*
X129540012Y-104411362D01*
X129845859Y-104450000D01*
X130154141Y-104450000D01*
X130459987Y-104411362D01*
X130758589Y-104334694D01*
X131045220Y-104221210D01*
X131045223Y-104221208D01*
X131315360Y-104072700D01*
X131564778Y-103891488D01*
X131623866Y-103835999D01*
X130664609Y-102876742D01*
X130762540Y-102799729D01*
X130878285Y-102666152D01*
X131836173Y-103624040D01*
X131986010Y-103442921D01*
X131986011Y-103442920D01*
X132151188Y-103182643D01*
X132151195Y-103182630D01*
X132282453Y-102903694D01*
X132377719Y-102610496D01*
X132377722Y-102610486D01*
X132435486Y-102307679D01*
X132454843Y-102000000D01*
X132435486Y-101692320D01*
X132377722Y-101389513D01*
X132377719Y-101389503D01*
X132282453Y-101096305D01*
X132151195Y-100817369D01*
X132151188Y-100817356D01*
X131986011Y-100557079D01*
X131836173Y-100375958D01*
X130876968Y-101335162D01*
X130835106Y-101276376D01*
X130683068Y-101131408D01*
X130666869Y-101120997D01*
X131623866Y-100163999D01*
X131564778Y-100108512D01*
X131315360Y-99927299D01*
X131045223Y-99778791D01*
X131045220Y-99778789D01*
X130758589Y-99665305D01*
X130459987Y-99588637D01*
X130154141Y-99550000D01*
X129845859Y-99550000D01*
X129540012Y-99588637D01*
X129241410Y-99665305D01*
X129209776Y-99677830D01*
X129148711Y-99681672D01*
X129097051Y-99648887D01*
X129074527Y-99591998D01*
X129078727Y-99556611D01*
X129083782Y-99540221D01*
X129084895Y-99536839D01*
X129103946Y-99482399D01*
X129103946Y-99482396D01*
X129103947Y-99482394D01*
X129105326Y-99475107D01*
X129105760Y-99475189D01*
X129106131Y-99473007D01*
X129105694Y-99472942D01*
X129106800Y-99465604D01*
X129106800Y-99408000D01*
X129106869Y-99404298D01*
X129107384Y-99390525D01*
X129109025Y-99346690D01*
X129109023Y-99346684D01*
X129108194Y-99339316D01*
X129108631Y-99339266D01*
X129106800Y-99325352D01*
X129106800Y-98791182D01*
X129125707Y-98732991D01*
X129175207Y-98697027D01*
X129236393Y-98697027D01*
X129250746Y-98702973D01*
X129354243Y-98755708D01*
X129354242Y-98755708D01*
X129445568Y-98770173D01*
X129466263Y-98770172D01*
X129766263Y-98770172D01*
X129766264Y-98770173D01*
X129786956Y-98770173D01*
X129878278Y-98755710D01*
X129878285Y-98755708D01*
X129988351Y-98699625D01*
X129988353Y-98699624D01*
X130075713Y-98612264D01*
X130075714Y-98612262D01*
X130131796Y-98502196D01*
X130131797Y-98502195D01*
X130146263Y-98410866D01*
X130146263Y-98360175D01*
X130146262Y-98360174D01*
X129766264Y-98360174D01*
X129766263Y-98360175D01*
X129766263Y-98770172D01*
X129466263Y-98770172D01*
X129466263Y-98060173D01*
X129766263Y-98060173D01*
X129766264Y-98060174D01*
X130146261Y-98060174D01*
X130146262Y-98060173D01*
X130146262Y-98009480D01*
X130131799Y-97918158D01*
X130131797Y-97918151D01*
X130075714Y-97808085D01*
X130075713Y-97808083D01*
X129988353Y-97720723D01*
X129988351Y-97720722D01*
X129878285Y-97664640D01*
X129878284Y-97664639D01*
X129786956Y-97650174D01*
X129766264Y-97650174D01*
X129766263Y-97650175D01*
X129766263Y-98060173D01*
X129466263Y-98060173D01*
X129466263Y-97650173D01*
X129457531Y-97641442D01*
X129426213Y-97631268D01*
X129390247Y-97581770D01*
X129385400Y-97551173D01*
X129385400Y-97361316D01*
X129404307Y-97303125D01*
X129453807Y-97267161D01*
X129473815Y-97262883D01*
X129517377Y-97258201D01*
X129600444Y-97227219D01*
X129652223Y-97207907D01*
X129652223Y-97207906D01*
X129652225Y-97207906D01*
X129767440Y-97121656D01*
X129853690Y-97006441D01*
X129855293Y-97002145D01*
X129903983Y-96871598D01*
X129903982Y-96871598D01*
X129903985Y-96871593D01*
X129910394Y-96811983D01*
X129910393Y-96216238D01*
X129903985Y-96156627D01*
X129903983Y-96156621D01*
X129853691Y-96021780D01*
X129767443Y-95906568D01*
X129767442Y-95906567D01*
X129767440Y-95906564D01*
X129767435Y-95906560D01*
X129652223Y-95820312D01*
X129517382Y-95770020D01*
X129517377Y-95770019D01*
X129517375Y-95770018D01*
X129517371Y-95770018D01*
X129485019Y-95766540D01*
X129457767Y-95763610D01*
X129457764Y-95763610D01*
X128412027Y-95763610D01*
X128412023Y-95763610D01*
X128412022Y-95763611D01*
X128404843Y-95764382D01*
X128352413Y-95770018D01*
X128352408Y-95770019D01*
X128217564Y-95820312D01*
X128102352Y-95906560D01*
X128102344Y-95906568D01*
X128016096Y-96021780D01*
X127965804Y-96156621D01*
X127965802Y-96156632D01*
X127959394Y-96216239D01*
X127959394Y-96637183D01*
X127940487Y-96695374D01*
X127890987Y-96731338D01*
X127829801Y-96731338D01*
X127790390Y-96707187D01*
X127579495Y-96496292D01*
X127551718Y-96441775D01*
X127550499Y-96426288D01*
X127550499Y-96368478D01*
X127550498Y-96368476D01*
X127535647Y-96274700D01*
X127535646Y-96274698D01*
X127535646Y-96274696D01*
X127478050Y-96161658D01*
X127388342Y-96071950D01*
X127275304Y-96014354D01*
X127275305Y-96014354D01*
X127181521Y-95999500D01*
X126093478Y-95999500D01*
X126093476Y-95999501D01*
X125999700Y-96014352D01*
X125999695Y-96014354D01*
X125886659Y-96071949D01*
X125796949Y-96161659D01*
X125739354Y-96274695D01*
X125724500Y-96368477D01*
X125724500Y-96731520D01*
X125724501Y-96731523D01*
X125739352Y-96825299D01*
X125739354Y-96825304D01*
X125796950Y-96938342D01*
X125886658Y-97028050D01*
X125999696Y-97085646D01*
X126093481Y-97100500D01*
X126868487Y-97100499D01*
X126926678Y-97119406D01*
X126938491Y-97129495D01*
X127146392Y-97337396D01*
X127174169Y-97391913D01*
X127164598Y-97452345D01*
X127121333Y-97495610D01*
X127076388Y-97506400D01*
X125738919Y-97506400D01*
X125718604Y-97504293D01*
X125706985Y-97501857D01*
X125687444Y-97504293D01*
X125676638Y-97505640D01*
X125664393Y-97506400D01*
X125663260Y-97506400D01*
X125643770Y-97509651D01*
X125639731Y-97510239D01*
X125590907Y-97516326D01*
X125583881Y-97518417D01*
X125576916Y-97520808D01*
X125533661Y-97544217D01*
X125530024Y-97546089D01*
X125485820Y-97567699D01*
X125479842Y-97571966D01*
X125474044Y-97576480D01*
X125440720Y-97612677D01*
X125437890Y-97615627D01*
X125409262Y-97644255D01*
X125354745Y-97672032D01*
X125294313Y-97662461D01*
X125277162Y-97650000D01*
X124311500Y-97650000D01*
X124253309Y-97631093D01*
X124217345Y-97581593D01*
X124212500Y-97551000D01*
X124212500Y-97449000D01*
X124231407Y-97390809D01*
X124280907Y-97354845D01*
X124311500Y-97350000D01*
X125274998Y-97350000D01*
X125274999Y-97349999D01*
X125274999Y-97318516D01*
X125274998Y-97318514D01*
X125260166Y-97224858D01*
X125260163Y-97224848D01*
X125202641Y-97111956D01*
X125186042Y-97095357D01*
X125158265Y-97040840D01*
X125167836Y-96980408D01*
X125186039Y-96955352D01*
X125203050Y-96938342D01*
X125260646Y-96825304D01*
X125275500Y-96731519D01*
X125275499Y-96368482D01*
X125275498Y-96368478D01*
X125275498Y-96368476D01*
X125260647Y-96274700D01*
X125260646Y-96274698D01*
X125260646Y-96274696D01*
X125203050Y-96161658D01*
X125113342Y-96071950D01*
X125000304Y-96014354D01*
X125000305Y-96014354D01*
X124906521Y-95999500D01*
X123818478Y-95999500D01*
X123818476Y-95999501D01*
X123724700Y-96014352D01*
X123724695Y-96014354D01*
X123611659Y-96071949D01*
X123521949Y-96161659D01*
X123464354Y-96274695D01*
X123449500Y-96368478D01*
X123449500Y-96540409D01*
X123430593Y-96598600D01*
X123420503Y-96610413D01*
X123202617Y-96828298D01*
X123186765Y-96841171D01*
X123176835Y-96847659D01*
X123176832Y-96847661D01*
X123164889Y-96863005D01*
X123158738Y-96870909D01*
X123158048Y-96871795D01*
X123149937Y-96880980D01*
X123149127Y-96881789D01*
X123149119Y-96881798D01*
X123137633Y-96897886D01*
X123135190Y-96901163D01*
X123104982Y-96939974D01*
X123101481Y-96946443D01*
X123098259Y-96953034D01*
X123084218Y-97000196D01*
X123082970Y-97004090D01*
X123067000Y-97050610D01*
X123065793Y-97057843D01*
X123064883Y-97065147D01*
X123066915Y-97114275D01*
X123067000Y-97118366D01*
X123067000Y-97626710D01*
X123048093Y-97684901D01*
X122998593Y-97720865D01*
X122937407Y-97720865D01*
X122904587Y-97700753D01*
X122904320Y-97701128D01*
X122898997Y-97697327D01*
X122897998Y-97696715D01*
X122897644Y-97696361D01*
X122782060Y-97639855D01*
X122707124Y-97628937D01*
X122363960Y-97628937D01*
X122293808Y-97639158D01*
X122289024Y-97639855D01*
X122166218Y-97699891D01*
X122105636Y-97708462D01*
X122051586Y-97679786D01*
X122024714Y-97624818D01*
X122035284Y-97564552D01*
X122052735Y-97540946D01*
X122171083Y-97422599D01*
X122225599Y-97394822D01*
X122241086Y-97393603D01*
X122435587Y-97393603D01*
X122464244Y-97389064D01*
X122527025Y-97379121D01*
X122637241Y-97322963D01*
X122724709Y-97235495D01*
X122780867Y-97125279D01*
X122795350Y-97033839D01*
X122795349Y-96632370D01*
X122795349Y-96632366D01*
X122786859Y-96578763D01*
X122780867Y-96540929D01*
X122724709Y-96430713D01*
X122644394Y-96350398D01*
X122616619Y-96295884D01*
X122615400Y-96280397D01*
X122615400Y-95740204D01*
X122633831Y-95682675D01*
X122637035Y-95678187D01*
X122637037Y-95678185D01*
X122640002Y-95672117D01*
X122682546Y-95628145D01*
X122728943Y-95616600D01*
X124428881Y-95616600D01*
X124449196Y-95618707D01*
X124451106Y-95619107D01*
X124460815Y-95621143D01*
X124491162Y-95617359D01*
X124503407Y-95616600D01*
X124504543Y-95616600D01*
X124524021Y-95613349D01*
X124528052Y-95612761D01*
X124576893Y-95606673D01*
X124576896Y-95606671D01*
X124583929Y-95604577D01*
X124590875Y-95602192D01*
X124590881Y-95602192D01*
X124634155Y-95578771D01*
X124637779Y-95576907D01*
X124681982Y-95555299D01*
X124681982Y-95555298D01*
X124681984Y-95555298D01*
X124681985Y-95555296D01*
X124687970Y-95551023D01*
X124693755Y-95546520D01*
X124693755Y-95546519D01*
X124693758Y-95546518D01*
X124727080Y-95510319D01*
X124729865Y-95507415D01*
X125044682Y-95192598D01*
X125060535Y-95179726D01*
X125070469Y-95173237D01*
X125070471Y-95173233D01*
X125076502Y-95167683D01*
X125077585Y-95168859D01*
X125120389Y-95139859D01*
X125181542Y-95141869D01*
X125182470Y-95142210D01*
X125277814Y-95177771D01*
X125277822Y-95177773D01*
X125334390Y-95183854D01*
X125454824Y-95183854D01*
X125454824Y-95183853D01*
X125754824Y-95183853D01*
X125754825Y-95183854D01*
X125875255Y-95183854D01*
X125875260Y-95183853D01*
X125931828Y-95177773D01*
X125931830Y-95177772D01*
X126059807Y-95130040D01*
X126169151Y-95048186D01*
X126169155Y-95048182D01*
X126251009Y-94938838D01*
X126261043Y-94911934D01*
X127959893Y-94911934D01*
X127966295Y-94971480D01*
X127966297Y-94971491D01*
X128016540Y-95106198D01*
X128016541Y-95106200D01*
X128102701Y-95221294D01*
X128102709Y-95221302D01*
X128217803Y-95307462D01*
X128217805Y-95307463D01*
X128352512Y-95357706D01*
X128352523Y-95357708D01*
X128412070Y-95364110D01*
X128784893Y-95364110D01*
X128784894Y-95364109D01*
X129084894Y-95364109D01*
X129084895Y-95364110D01*
X129457718Y-95364110D01*
X129517264Y-95357708D01*
X129517275Y-95357706D01*
X129651982Y-95307463D01*
X129651984Y-95307462D01*
X129767078Y-95221302D01*
X129767086Y-95221294D01*
X129853246Y-95106200D01*
X129853247Y-95106198D01*
X129903490Y-94971491D01*
X129903492Y-94971480D01*
X129909894Y-94911934D01*
X129909894Y-94764111D01*
X129909893Y-94764110D01*
X129084895Y-94764110D01*
X129084894Y-94764111D01*
X129084894Y-95364109D01*
X128784894Y-95364109D01*
X128784894Y-94764111D01*
X128784893Y-94764110D01*
X127959895Y-94764110D01*
X127959894Y-94764111D01*
X127959894Y-94911934D01*
X127959893Y-94911934D01*
X126261043Y-94911934D01*
X126298740Y-94810864D01*
X126298742Y-94810856D01*
X126304824Y-94754289D01*
X126304824Y-94608856D01*
X126304823Y-94608855D01*
X125754825Y-94608855D01*
X125754824Y-94608856D01*
X125754824Y-95183853D01*
X125454824Y-95183853D01*
X125454824Y-94464109D01*
X127959894Y-94464109D01*
X127959895Y-94464110D01*
X128784893Y-94464110D01*
X128784894Y-94464109D01*
X129084894Y-94464109D01*
X129084895Y-94464110D01*
X129909893Y-94464110D01*
X129909894Y-94464109D01*
X129909894Y-94316285D01*
X129903492Y-94256739D01*
X129903490Y-94256728D01*
X129853247Y-94122021D01*
X129853246Y-94122019D01*
X129767086Y-94006925D01*
X129767078Y-94006917D01*
X129651984Y-93920757D01*
X129651982Y-93920756D01*
X129517275Y-93870513D01*
X129517264Y-93870511D01*
X129457718Y-93864110D01*
X129084895Y-93864110D01*
X129084894Y-93864111D01*
X129084894Y-94464109D01*
X128784894Y-94464109D01*
X128784894Y-93864111D01*
X128784893Y-93864110D01*
X128412070Y-93864110D01*
X128352523Y-93870511D01*
X128352512Y-93870513D01*
X128217805Y-93920756D01*
X128217803Y-93920757D01*
X128102709Y-94006917D01*
X128102701Y-94006925D01*
X128016541Y-94122019D01*
X128016540Y-94122021D01*
X127966297Y-94256728D01*
X127966295Y-94256739D01*
X127959894Y-94316285D01*
X127959894Y-94464109D01*
X125454824Y-94464109D01*
X125454824Y-94308854D01*
X125754824Y-94308854D01*
X125754825Y-94308855D01*
X126304822Y-94308855D01*
X126304823Y-94308854D01*
X126304823Y-94163424D01*
X126304822Y-94163418D01*
X126298742Y-94106850D01*
X126298741Y-94106848D01*
X126251009Y-93978871D01*
X126169155Y-93869527D01*
X126169151Y-93869523D01*
X126059807Y-93787669D01*
X125931833Y-93739938D01*
X125931825Y-93739936D01*
X125875258Y-93733855D01*
X125754825Y-93733855D01*
X125754824Y-93733856D01*
X125754824Y-94308854D01*
X125454824Y-94308854D01*
X125454824Y-93733856D01*
X125454823Y-93733855D01*
X125334393Y-93733855D01*
X125334386Y-93733856D01*
X125277819Y-93739936D01*
X125277814Y-93739937D01*
X125195454Y-93770656D01*
X125134325Y-93773276D01*
X125093808Y-93750735D01*
X125074048Y-93732545D01*
X125071094Y-93729712D01*
X124313701Y-92972319D01*
X124300825Y-92956462D01*
X124294337Y-92946531D01*
X124279910Y-92935302D01*
X124270204Y-92927748D01*
X124261019Y-92919637D01*
X124260207Y-92918825D01*
X124244125Y-92907343D01*
X124240861Y-92904910D01*
X124202026Y-92874683D01*
X124202024Y-92874682D01*
X124195577Y-92871193D01*
X124188970Y-92867963D01*
X124188966Y-92867960D01*
X124141809Y-92853920D01*
X124137915Y-92852672D01*
X124091387Y-92836699D01*
X124084160Y-92835493D01*
X124076855Y-92834583D01*
X124076854Y-92834583D01*
X124076852Y-92834583D01*
X124027724Y-92836615D01*
X124023633Y-92836700D01*
X123458578Y-92836700D01*
X123400387Y-92817793D01*
X123364423Y-92768293D01*
X123364423Y-92707107D01*
X123369637Y-92694220D01*
X123415087Y-92601248D01*
X123425000Y-92533215D01*
X123425000Y-92012501D01*
X123424999Y-92012500D01*
X122924000Y-92012500D01*
X122865809Y-91993593D01*
X122829845Y-91944093D01*
X122825000Y-91913500D01*
X122825000Y-90877445D01*
X122773751Y-90884912D01*
X122694048Y-90923876D01*
X122633465Y-90932447D01*
X122607088Y-90923876D01*
X122526395Y-90884427D01*
X122499139Y-90880456D01*
X122478459Y-90877443D01*
X123125000Y-90877443D01*
X123125000Y-91712499D01*
X123125001Y-91712500D01*
X123424998Y-91712500D01*
X123424999Y-91712499D01*
X123424999Y-91191786D01*
X123424998Y-91191783D01*
X123415087Y-91123749D01*
X123363785Y-91018811D01*
X123281187Y-90936213D01*
X123176246Y-90884911D01*
X123125000Y-90877443D01*
X122478459Y-90877443D01*
X122458260Y-90874500D01*
X122191740Y-90874500D01*
X122157673Y-90879463D01*
X122123604Y-90884427D01*
X122043479Y-90923598D01*
X121982897Y-90932169D01*
X121956521Y-90923599D01*
X121918850Y-90905183D01*
X121892329Y-90886247D01*
X121618101Y-90612019D01*
X121605225Y-90596162D01*
X121598737Y-90586231D01*
X121582425Y-90573535D01*
X121574604Y-90567448D01*
X121565419Y-90559337D01*
X121564607Y-90558525D01*
X121548525Y-90547043D01*
X121545261Y-90544610D01*
X121506426Y-90514383D01*
X121506424Y-90514382D01*
X121499977Y-90510893D01*
X121493370Y-90507663D01*
X121493366Y-90507660D01*
X121446209Y-90493620D01*
X121442315Y-90492372D01*
X121395787Y-90476399D01*
X121388560Y-90475193D01*
X121381255Y-90474283D01*
X121381254Y-90474283D01*
X121381252Y-90474283D01*
X121332124Y-90476315D01*
X121328033Y-90476400D01*
X120770813Y-90476400D01*
X120750498Y-90474293D01*
X120738885Y-90471858D01*
X120708543Y-90475640D01*
X120696299Y-90476400D01*
X120695159Y-90476400D01*
X120675681Y-90479650D01*
X120671636Y-90480239D01*
X120622808Y-90486326D01*
X120615775Y-90488419D01*
X120608816Y-90490808D01*
X120565561Y-90514217D01*
X120561924Y-90516089D01*
X120517720Y-90537699D01*
X120511742Y-90541966D01*
X120505944Y-90546480D01*
X120472631Y-90582665D01*
X120469801Y-90585615D01*
X120122418Y-90932998D01*
X120106565Y-90945871D01*
X120096635Y-90952359D01*
X120096632Y-90952361D01*
X120087805Y-90963702D01*
X120081150Y-90972253D01*
X120077848Y-90976495D01*
X120069737Y-90985680D01*
X120068927Y-90986489D01*
X120068919Y-90986498D01*
X120057433Y-91002586D01*
X120054990Y-91005863D01*
X120024782Y-91044674D01*
X120021281Y-91051143D01*
X120018059Y-91057734D01*
X120004018Y-91104896D01*
X120002770Y-91108790D01*
X119986800Y-91155310D01*
X119985593Y-91162543D01*
X119984683Y-91169847D01*
X119986715Y-91218975D01*
X119986800Y-91223066D01*
X119986800Y-91827318D01*
X119967893Y-91885509D01*
X119918393Y-91921473D01*
X119857207Y-91921473D01*
X119817796Y-91897322D01*
X119747596Y-91827122D01*
X119719819Y-91772605D01*
X119718600Y-91757118D01*
X119718600Y-90624689D01*
X119737507Y-90566498D01*
X119747590Y-90554691D01*
X120620760Y-89681520D01*
X127774500Y-89681520D01*
X127774501Y-89681523D01*
X127789352Y-89775299D01*
X127789354Y-89775304D01*
X127846950Y-89888342D01*
X127936658Y-89978050D01*
X128049696Y-90035646D01*
X128143481Y-90050500D01*
X128250500Y-90050499D01*
X128308690Y-90069406D01*
X128344654Y-90118905D01*
X128349500Y-90149499D01*
X128349500Y-92395567D01*
X128330593Y-92453758D01*
X128329042Y-92455834D01*
X128275462Y-92525660D01*
X128275462Y-92525661D01*
X128214957Y-92671733D01*
X128214955Y-92671741D01*
X128194318Y-92828499D01*
X128194318Y-92828500D01*
X128214955Y-92985258D01*
X128214957Y-92985266D01*
X128275462Y-93131338D01*
X128275462Y-93131339D01*
X128371537Y-93256546D01*
X128371718Y-93256782D01*
X128497159Y-93353036D01*
X128497160Y-93353036D01*
X128497161Y-93353037D01*
X128643233Y-93413542D01*
X128643238Y-93413544D01*
X128744923Y-93426931D01*
X128799999Y-93434182D01*
X128800000Y-93434182D01*
X128800001Y-93434182D01*
X128831352Y-93430054D01*
X128956762Y-93413544D01*
X129102841Y-93353036D01*
X129228282Y-93256782D01*
X129324536Y-93131341D01*
X129385044Y-92985262D01*
X129405682Y-92828500D01*
X129385044Y-92671738D01*
X129382964Y-92666716D01*
X129324537Y-92525661D01*
X129324537Y-92525660D01*
X129270958Y-92455834D01*
X129250534Y-92398158D01*
X129250500Y-92395567D01*
X129250500Y-90149499D01*
X129269407Y-90091308D01*
X129318907Y-90055344D01*
X129349500Y-90050499D01*
X129456521Y-90050499D01*
X129456522Y-90050498D01*
X129503411Y-90043072D01*
X129550299Y-90035647D01*
X129550299Y-90035646D01*
X129550304Y-90035646D01*
X129663342Y-89978050D01*
X129753050Y-89888342D01*
X129810646Y-89775304D01*
X129825500Y-89681519D01*
X129825499Y-89318482D01*
X129820425Y-89286441D01*
X129810647Y-89224700D01*
X129810646Y-89224698D01*
X129810646Y-89224696D01*
X129753050Y-89111658D01*
X129711040Y-89069648D01*
X129683265Y-89015134D01*
X129692836Y-88954702D01*
X129711042Y-88929643D01*
X129752641Y-88888043D01*
X129810163Y-88775151D01*
X129810164Y-88775147D01*
X129825000Y-88681484D01*
X129825000Y-88650001D01*
X129824999Y-88650000D01*
X127775002Y-88650000D01*
X127775001Y-88650001D01*
X127775001Y-88681485D01*
X127789833Y-88775141D01*
X127789836Y-88775151D01*
X127847358Y-88888043D01*
X127888958Y-88929643D01*
X127916735Y-88984160D01*
X127907164Y-89044592D01*
X127888960Y-89069647D01*
X127854707Y-89103901D01*
X127846949Y-89111659D01*
X127789354Y-89224695D01*
X127774500Y-89318477D01*
X127774500Y-89681520D01*
X120620760Y-89681520D01*
X120789584Y-89512696D01*
X120805434Y-89499826D01*
X120815369Y-89493337D01*
X120834151Y-89469203D01*
X120842277Y-89460004D01*
X120843075Y-89459207D01*
X120854586Y-89443082D01*
X120856988Y-89439862D01*
X120887217Y-89401026D01*
X120887217Y-89401023D01*
X120890723Y-89394545D01*
X120893937Y-89387971D01*
X120893937Y-89387969D01*
X120893940Y-89387966D01*
X120907987Y-89340781D01*
X120909212Y-89336954D01*
X120925200Y-89290388D01*
X120925200Y-89290383D01*
X120926409Y-89283144D01*
X120927317Y-89275854D01*
X120925285Y-89226724D01*
X120925200Y-89222633D01*
X120925200Y-88349999D01*
X127775000Y-88349999D01*
X127775001Y-88350000D01*
X128649999Y-88350000D01*
X128650000Y-88349999D01*
X128950000Y-88349999D01*
X128950001Y-88350000D01*
X129824998Y-88350000D01*
X129824999Y-88349999D01*
X129824999Y-88318516D01*
X129824998Y-88318514D01*
X129810166Y-88224858D01*
X129810163Y-88224848D01*
X129752641Y-88111956D01*
X129663043Y-88022358D01*
X129550151Y-87964836D01*
X129550147Y-87964835D01*
X129456484Y-87950000D01*
X128950001Y-87950000D01*
X128950000Y-87950001D01*
X128950000Y-88349999D01*
X128650000Y-88349999D01*
X128650000Y-87950001D01*
X128649999Y-87950000D01*
X128143516Y-87950000D01*
X128143514Y-87950001D01*
X128049858Y-87964833D01*
X128049848Y-87964836D01*
X127936956Y-88022358D01*
X127847358Y-88111956D01*
X127789836Y-88224848D01*
X127789835Y-88224852D01*
X127775000Y-88318515D01*
X127775000Y-88349999D01*
X120925200Y-88349999D01*
X120925200Y-87610100D01*
X120944107Y-87551909D01*
X120993607Y-87515945D01*
X121024200Y-87511100D01*
X121239681Y-87511100D01*
X121259996Y-87513207D01*
X121261906Y-87513607D01*
X121271615Y-87515643D01*
X121301962Y-87511859D01*
X121314207Y-87511100D01*
X121315343Y-87511100D01*
X121334821Y-87507849D01*
X121338852Y-87507261D01*
X121387693Y-87501173D01*
X121387696Y-87501171D01*
X121394729Y-87499077D01*
X121401675Y-87496692D01*
X121401681Y-87496692D01*
X121444955Y-87473271D01*
X121448579Y-87471407D01*
X121492782Y-87449799D01*
X121492782Y-87449798D01*
X121492784Y-87449798D01*
X121492785Y-87449796D01*
X121498770Y-87445523D01*
X121504555Y-87441020D01*
X121504555Y-87441019D01*
X121504558Y-87441018D01*
X121537892Y-87404806D01*
X121540676Y-87401904D01*
X121650214Y-87292366D01*
X124090801Y-87292366D01*
X124105264Y-87383688D01*
X124105266Y-87383695D01*
X124161349Y-87493761D01*
X124161350Y-87493763D01*
X124248710Y-87581123D01*
X124248712Y-87581124D01*
X124358778Y-87637206D01*
X124358779Y-87637207D01*
X124450107Y-87651672D01*
X124500801Y-87651671D01*
X124800801Y-87651671D01*
X124800802Y-87651672D01*
X124851494Y-87651672D01*
X124942816Y-87637209D01*
X124942823Y-87637207D01*
X125052889Y-87581124D01*
X125052891Y-87581123D01*
X125140251Y-87493763D01*
X125140252Y-87493761D01*
X125196334Y-87383695D01*
X125196335Y-87383694D01*
X125210801Y-87292365D01*
X125210801Y-87271674D01*
X125210800Y-87271673D01*
X124800802Y-87271673D01*
X124800801Y-87271674D01*
X124800801Y-87651671D01*
X124500801Y-87651671D01*
X124500801Y-87271674D01*
X124500800Y-87271673D01*
X124090803Y-87271673D01*
X124090802Y-87271674D01*
X124090802Y-87292366D01*
X124090801Y-87292366D01*
X121650214Y-87292366D01*
X121795359Y-87147220D01*
X121849874Y-87119444D01*
X121851010Y-87119271D01*
X121876393Y-87115573D01*
X121956519Y-87076401D01*
X122017101Y-87067830D01*
X122043480Y-87076401D01*
X122123607Y-87115573D01*
X122191740Y-87125500D01*
X122191743Y-87125500D01*
X122458257Y-87125500D01*
X122458260Y-87125500D01*
X122526393Y-87115573D01*
X122606519Y-87076401D01*
X122667101Y-87067830D01*
X122693480Y-87076401D01*
X122773607Y-87115573D01*
X122841740Y-87125500D01*
X122841743Y-87125500D01*
X123108257Y-87125500D01*
X123108260Y-87125500D01*
X123176393Y-87115573D01*
X123281483Y-87064198D01*
X123364198Y-86981483D01*
X123415573Y-86876393D01*
X123425500Y-86808260D01*
X123425500Y-86587000D01*
X123444407Y-86528809D01*
X123493907Y-86492845D01*
X123524500Y-86488000D01*
X124077031Y-86488000D01*
X124135222Y-86506907D01*
X124157122Y-86528806D01*
X124160940Y-86534061D01*
X124160942Y-86534064D01*
X124198902Y-86572024D01*
X124226678Y-86626539D01*
X124217107Y-86686971D01*
X124198902Y-86712028D01*
X124161353Y-86749578D01*
X124161349Y-86749584D01*
X124105267Y-86859650D01*
X124105266Y-86859651D01*
X124090801Y-86950980D01*
X124090801Y-86971672D01*
X124090802Y-86971673D01*
X125210799Y-86971673D01*
X125210800Y-86971672D01*
X125210800Y-86950979D01*
X125196337Y-86859657D01*
X125196335Y-86859650D01*
X125140252Y-86749584D01*
X125140251Y-86749582D01*
X125102700Y-86712031D01*
X125074923Y-86657514D01*
X125084494Y-86597082D01*
X125102697Y-86572026D01*
X125140660Y-86534064D01*
X125196818Y-86423848D01*
X125211301Y-86332408D01*
X125211300Y-85990939D01*
X125211300Y-85990935D01*
X125204816Y-85950000D01*
X125196818Y-85899498D01*
X125140660Y-85789282D01*
X125053192Y-85701814D01*
X124999721Y-85674569D01*
X124956458Y-85631306D01*
X124946887Y-85570874D01*
X124953202Y-85548480D01*
X124957830Y-85537309D01*
X124976750Y-85393600D01*
X124957830Y-85249891D01*
X124902361Y-85115975D01*
X124814121Y-85000979D01*
X124699125Y-84912739D01*
X124699121Y-84912737D01*
X124565209Y-84857270D01*
X124565208Y-84857269D01*
X124421500Y-84838350D01*
X124277791Y-84857269D01*
X124277790Y-84857270D01*
X124143878Y-84912737D01*
X124143874Y-84912739D01*
X124028881Y-85000977D01*
X124028877Y-85000981D01*
X123940639Y-85115974D01*
X123940637Y-85115978D01*
X123885170Y-85249890D01*
X123885169Y-85249891D01*
X123866250Y-85393599D01*
X123866250Y-85393600D01*
X123885169Y-85537308D01*
X123885170Y-85537309D01*
X123931895Y-85650115D01*
X123936695Y-85711112D01*
X123904726Y-85763281D01*
X123848198Y-85786695D01*
X123840431Y-85787000D01*
X123524500Y-85787000D01*
X123466309Y-85768093D01*
X123430345Y-85718593D01*
X123425500Y-85688000D01*
X123425500Y-85466743D01*
X123425500Y-85466740D01*
X123415573Y-85398607D01*
X123413125Y-85393600D01*
X123380266Y-85326385D01*
X123364198Y-85293517D01*
X123281483Y-85210802D01*
X123259590Y-85200099D01*
X123176395Y-85159427D01*
X123149139Y-85155456D01*
X123108260Y-85149500D01*
X122841740Y-85149500D01*
X122807673Y-85154463D01*
X122773604Y-85159427D01*
X122693480Y-85198598D01*
X122632898Y-85207169D01*
X122606520Y-85198598D01*
X122526395Y-85159427D01*
X122499139Y-85155456D01*
X122458260Y-85149500D01*
X122191740Y-85149500D01*
X122157673Y-85154463D01*
X122123604Y-85159427D01*
X122043480Y-85198598D01*
X121982898Y-85207169D01*
X121956520Y-85198598D01*
X121876395Y-85159427D01*
X121849139Y-85155456D01*
X121808260Y-85149500D01*
X121574500Y-85149500D01*
X121516309Y-85130593D01*
X121480345Y-85081093D01*
X121475500Y-85050500D01*
X121475500Y-84816445D01*
X121494407Y-84758254D01*
X121529558Y-84728234D01*
X121531181Y-84727406D01*
X121535424Y-84725245D01*
X121573385Y-84687283D01*
X121627900Y-84659508D01*
X121688332Y-84669079D01*
X121713391Y-84687285D01*
X121750942Y-84724836D01*
X121750944Y-84724837D01*
X121861010Y-84780919D01*
X121861012Y-84780920D01*
X121952338Y-84795385D01*
X121973033Y-84795384D01*
X122273033Y-84795384D01*
X122273034Y-84795385D01*
X122293726Y-84795385D01*
X122385048Y-84780922D01*
X122385055Y-84780920D01*
X122495121Y-84724837D01*
X122495123Y-84724836D01*
X122582483Y-84637476D01*
X122582484Y-84637474D01*
X122638566Y-84527408D01*
X122638567Y-84527407D01*
X122653033Y-84436078D01*
X122653033Y-84385387D01*
X122653032Y-84385386D01*
X122273034Y-84385386D01*
X122273033Y-84385387D01*
X122273033Y-84795384D01*
X121973033Y-84795384D01*
X121973033Y-84085385D01*
X122273033Y-84085385D01*
X122273034Y-84085386D01*
X122653031Y-84085386D01*
X122653032Y-84085385D01*
X122653032Y-84034692D01*
X122638569Y-83943370D01*
X122638567Y-83943363D01*
X122582484Y-83833297D01*
X122582483Y-83833295D01*
X122495123Y-83745935D01*
X122495121Y-83745934D01*
X122385055Y-83689852D01*
X122385054Y-83689851D01*
X122293726Y-83675386D01*
X122273034Y-83675386D01*
X122273033Y-83675387D01*
X122273033Y-84085385D01*
X121973033Y-84085385D01*
X121973033Y-83675385D01*
X121952340Y-83675386D01*
X121952336Y-83675387D01*
X121861017Y-83689849D01*
X121861010Y-83689851D01*
X121750944Y-83745934D01*
X121750938Y-83745938D01*
X121713388Y-83783487D01*
X121658871Y-83811264D01*
X121598439Y-83801691D01*
X121573385Y-83783488D01*
X121535424Y-83745527D01*
X121425208Y-83689369D01*
X121425209Y-83689369D01*
X121333770Y-83674886D01*
X121004597Y-83674886D01*
X120946406Y-83655979D01*
X120934593Y-83645890D01*
X120517066Y-83228363D01*
X120509678Y-83220095D01*
X120486579Y-83191130D01*
X120438958Y-83158662D01*
X120435941Y-83156521D01*
X120389581Y-83122306D01*
X120383022Y-83118840D01*
X120383226Y-83118452D01*
X120381244Y-83117452D01*
X120381055Y-83117846D01*
X120374370Y-83114626D01*
X120319296Y-83097638D01*
X120315782Y-83096482D01*
X120261402Y-83077455D01*
X120261401Y-83077454D01*
X120261399Y-83077454D01*
X120261396Y-83077453D01*
X120254114Y-83076076D01*
X120254195Y-83075644D01*
X120252002Y-83075271D01*
X120251937Y-83075705D01*
X120244603Y-83074600D01*
X120244602Y-83074600D01*
X120186984Y-83074600D01*
X120183283Y-83074531D01*
X120147898Y-83073207D01*
X120125690Y-83072376D01*
X120125689Y-83072376D01*
X120118315Y-83073207D01*
X120118265Y-83072768D01*
X120104356Y-83074600D01*
X114298764Y-83074600D01*
X114287681Y-83073978D01*
X114250866Y-83069830D01*
X114250865Y-83069830D01*
X114194204Y-83080549D01*
X114190591Y-83081163D01*
X114133614Y-83089751D01*
X114126532Y-83091936D01*
X114126403Y-83091518D01*
X114124286Y-83092214D01*
X114124431Y-83092626D01*
X114117424Y-83095077D01*
X114066457Y-83122014D01*
X114063156Y-83123681D01*
X114011256Y-83148675D01*
X114005129Y-83152853D01*
X114004884Y-83152493D01*
X114003068Y-83153781D01*
X114003327Y-83154132D01*
X113997358Y-83158537D01*
X113956620Y-83199275D01*
X113953956Y-83201842D01*
X113911702Y-83241048D01*
X113907079Y-83246846D01*
X113906735Y-83246572D01*
X113898197Y-83257697D01*
X112228265Y-84927630D01*
X112219988Y-84935026D01*
X112191030Y-84958119D01*
X112191029Y-84958120D01*
X112158556Y-85005748D01*
X112156416Y-85008764D01*
X112122207Y-85055116D01*
X112118742Y-85061674D01*
X112118353Y-85061468D01*
X112117350Y-85063455D01*
X112117746Y-85063646D01*
X112114526Y-85070332D01*
X112097536Y-85125410D01*
X112096380Y-85128923D01*
X112077355Y-85183295D01*
X112075976Y-85190587D01*
X112075544Y-85190505D01*
X112075171Y-85192700D01*
X112075605Y-85192766D01*
X112074500Y-85200099D01*
X112074500Y-85257715D01*
X112074431Y-85261416D01*
X112072276Y-85319010D01*
X112073107Y-85326385D01*
X112072668Y-85326434D01*
X112074500Y-85340344D01*
X112074500Y-85909889D01*
X112055593Y-85968080D01*
X112045504Y-85979893D01*
X111444493Y-86580904D01*
X111389976Y-86608681D01*
X111374489Y-86609900D01*
X111210499Y-86609900D01*
X111165554Y-86599109D01*
X111058054Y-86544335D01*
X111058055Y-86544335D01*
X110966615Y-86529852D01*
X110565141Y-86529852D01*
X110473704Y-86544335D01*
X110473700Y-86544336D01*
X110419365Y-86572022D01*
X110366203Y-86599109D01*
X110321259Y-86609900D01*
X106370464Y-86609900D01*
X106359381Y-86609278D01*
X106322566Y-86605130D01*
X106322565Y-86605130D01*
X106303797Y-86608681D01*
X106265937Y-86615844D01*
X106262290Y-86616463D01*
X106205313Y-86625051D01*
X106198228Y-86627237D01*
X106198098Y-86626816D01*
X106195989Y-86627510D01*
X106196134Y-86627925D01*
X106189130Y-86630376D01*
X106138162Y-86657312D01*
X106134862Y-86658978D01*
X106082956Y-86683975D01*
X106076829Y-86688153D01*
X106076584Y-86687793D01*
X106074768Y-86689081D01*
X106075027Y-86689432D01*
X106069058Y-86693837D01*
X106028320Y-86734575D01*
X106025656Y-86737142D01*
X105983402Y-86776348D01*
X105978779Y-86782146D01*
X105978435Y-86781872D01*
X105969897Y-86792997D01*
X105342391Y-87420504D01*
X105287874Y-87448281D01*
X105272387Y-87449500D01*
X104743479Y-87449500D01*
X104743476Y-87449501D01*
X104649700Y-87464352D01*
X104649695Y-87464354D01*
X104536659Y-87521949D01*
X104446949Y-87611659D01*
X104389354Y-87724694D01*
X104378964Y-87790292D01*
X104351187Y-87844808D01*
X103325565Y-88870430D01*
X103317288Y-88877826D01*
X103288330Y-88900919D01*
X103288329Y-88900920D01*
X103255856Y-88948548D01*
X103253716Y-88951564D01*
X103219507Y-88997916D01*
X103216042Y-89004474D01*
X103215653Y-89004268D01*
X103214650Y-89006255D01*
X103215046Y-89006446D01*
X103211826Y-89013132D01*
X103194836Y-89068210D01*
X103193680Y-89071723D01*
X103174655Y-89126095D01*
X103173276Y-89133387D01*
X103172844Y-89133305D01*
X103172471Y-89135500D01*
X103172905Y-89135566D01*
X103171800Y-89142899D01*
X103171800Y-89200515D01*
X103171731Y-89204216D01*
X103169576Y-89261810D01*
X103170407Y-89269185D01*
X103169968Y-89269234D01*
X103171800Y-89283144D01*
X103171800Y-96387236D01*
X103171178Y-96398319D01*
X103167030Y-96435133D01*
X103167030Y-96435138D01*
X103177744Y-96491764D01*
X103178364Y-96495412D01*
X103186952Y-96552387D01*
X103189140Y-96559481D01*
X103188717Y-96559611D01*
X103189409Y-96561713D01*
X103189826Y-96561568D01*
X103192275Y-96568568D01*
X103219206Y-96619524D01*
X103220874Y-96622828D01*
X103245874Y-96674741D01*
X103250053Y-96680870D01*
X103249689Y-96681117D01*
X103250977Y-96682931D01*
X103251330Y-96682671D01*
X103255734Y-96688638D01*
X103296499Y-96729404D01*
X103299068Y-96732071D01*
X103338244Y-96774294D01*
X103344043Y-96778918D01*
X103343767Y-96779263D01*
X103354901Y-96787805D01*
X103547504Y-96980408D01*
X103724703Y-97157606D01*
X103752481Y-97212123D01*
X103753700Y-97227610D01*
X103753700Y-100553936D01*
X103753078Y-100565019D01*
X103748930Y-100601833D01*
X103748930Y-100601838D01*
X103759644Y-100658464D01*
X103760264Y-100662112D01*
X103768852Y-100719087D01*
X103771040Y-100726181D01*
X103770617Y-100726311D01*
X103771309Y-100728413D01*
X103771726Y-100728268D01*
X103774175Y-100735268D01*
X103774176Y-100735271D01*
X103774177Y-100735272D01*
X103781961Y-100750000D01*
X103801106Y-100786224D01*
X103802774Y-100789528D01*
X103827774Y-100841441D01*
X103831953Y-100847570D01*
X103831589Y-100847817D01*
X103832877Y-100849631D01*
X103833230Y-100849371D01*
X103837634Y-100855338D01*
X103878399Y-100896104D01*
X103880968Y-100898771D01*
X103920144Y-100940994D01*
X103925943Y-100945618D01*
X103925667Y-100945963D01*
X103936800Y-100954504D01*
X107012129Y-104029832D01*
X107019525Y-104038109D01*
X107042621Y-104067070D01*
X107057381Y-104077133D01*
X107090245Y-104099540D01*
X107093257Y-104101677D01*
X107139618Y-104135893D01*
X107139621Y-104135894D01*
X107146177Y-104139359D01*
X107145969Y-104139751D01*
X107147950Y-104140751D01*
X107148143Y-104140353D01*
X107154827Y-104143572D01*
X107209907Y-104160561D01*
X107213409Y-104161713D01*
X107267801Y-104180746D01*
X107267802Y-104180746D01*
X107275093Y-104182126D01*
X107275010Y-104182560D01*
X107277197Y-104182931D01*
X107277263Y-104182494D01*
X107284596Y-104183599D01*
X107284598Y-104183600D01*
X107342200Y-104183600D01*
X107345902Y-104183669D01*
X107347268Y-104183720D01*
X107403510Y-104185825D01*
X107403516Y-104185823D01*
X107410884Y-104184994D01*
X107410933Y-104185432D01*
X107424847Y-104183600D01*
X111730236Y-104183600D01*
X111741319Y-104184222D01*
X111743695Y-104184489D01*
X111778135Y-104188370D01*
X111834784Y-104177650D01*
X111838367Y-104177041D01*
X111895387Y-104168448D01*
X111895396Y-104168443D01*
X111902481Y-104166259D01*
X111902612Y-104166684D01*
X111904713Y-104165992D01*
X111904567Y-104165573D01*
X111911563Y-104163124D01*
X111911572Y-104163123D01*
X111962544Y-104136182D01*
X111965840Y-104134519D01*
X111975777Y-104129733D01*
X112017742Y-104109525D01*
X112017746Y-104109521D01*
X112023878Y-104105342D01*
X112024128Y-104105709D01*
X112025932Y-104104429D01*
X112025668Y-104104071D01*
X112031625Y-104099672D01*
X112031638Y-104099666D01*
X112072416Y-104058886D01*
X112075027Y-104056371D01*
X112117294Y-104017155D01*
X112117297Y-104017148D01*
X112121920Y-104011353D01*
X112122266Y-104011629D01*
X112130803Y-104000499D01*
X112186641Y-103944661D01*
X112241157Y-103916885D01*
X112301589Y-103926456D01*
X112344854Y-103969721D01*
X112355077Y-104025247D01*
X112349500Y-104077127D01*
X112349500Y-105472866D01*
X112349501Y-105472870D01*
X112355908Y-105532480D01*
X112355909Y-105532485D01*
X112368374Y-105565904D01*
X112370994Y-105627033D01*
X112337183Y-105678028D01*
X112279855Y-105699409D01*
X112275616Y-105699500D01*
X105002165Y-105699500D01*
X104997847Y-105699406D01*
X104594727Y-105681805D01*
X104586123Y-105681052D01*
X104188223Y-105628667D01*
X104179718Y-105627167D01*
X103787903Y-105540304D01*
X103779560Y-105538069D01*
X103396798Y-105417384D01*
X103388682Y-105414430D01*
X103017896Y-105260846D01*
X103010069Y-105257196D01*
X102654089Y-105071884D01*
X102646609Y-105067566D01*
X102308117Y-104851923D01*
X102301043Y-104846969D01*
X101982645Y-104602654D01*
X101976029Y-104597102D01*
X101680131Y-104325961D01*
X101674038Y-104319868D01*
X101402895Y-104023968D01*
X101397345Y-104017354D01*
X101293998Y-103882670D01*
X101153030Y-103698956D01*
X101148076Y-103691882D01*
X100932433Y-103353390D01*
X100928115Y-103345910D01*
X100894523Y-103281381D01*
X100742799Y-102989923D01*
X100739153Y-102982103D01*
X100716917Y-102928421D01*
X100585569Y-102611317D01*
X100582615Y-102603201D01*
X100561725Y-102536946D01*
X100461925Y-102220423D01*
X100459701Y-102212123D01*
X100451630Y-102175715D01*
X100457496Y-102114814D01*
X100498039Y-102068990D01*
X100557774Y-102055748D01*
X100607613Y-102075039D01*
X100632670Y-102093797D01*
X100767511Y-102144089D01*
X100767512Y-102144089D01*
X100767517Y-102144091D01*
X100827127Y-102150500D01*
X102222872Y-102150499D01*
X102282483Y-102144091D01*
X102360979Y-102114814D01*
X102417329Y-102093797D01*
X102417329Y-102093796D01*
X102417331Y-102093796D01*
X102532546Y-102007546D01*
X102618796Y-101892331D01*
X102618832Y-101892236D01*
X102669089Y-101757488D01*
X102669088Y-101757488D01*
X102669091Y-101757483D01*
X102675500Y-101697873D01*
X102675499Y-100902128D01*
X102669091Y-100842517D01*
X102669044Y-100842391D01*
X102618797Y-100707670D01*
X102532549Y-100592458D01*
X102532548Y-100592457D01*
X102532546Y-100592454D01*
X102521102Y-100583887D01*
X102417329Y-100506202D01*
X102282488Y-100455910D01*
X102282483Y-100455909D01*
X102282481Y-100455908D01*
X102282477Y-100455908D01*
X102251249Y-100452550D01*
X102222873Y-100449500D01*
X102222870Y-100449500D01*
X100827133Y-100449500D01*
X100827129Y-100449500D01*
X100827128Y-100449501D01*
X100819949Y-100450272D01*
X100767519Y-100455908D01*
X100767514Y-100455909D01*
X100632670Y-100506202D01*
X100517458Y-100592450D01*
X100517450Y-100592458D01*
X100478753Y-100644151D01*
X100428744Y-100679404D01*
X100367565Y-100678530D01*
X100318584Y-100641862D01*
X100300500Y-100584822D01*
X100300500Y-96415177D01*
X100319407Y-96356986D01*
X100368907Y-96321022D01*
X100430093Y-96321022D01*
X100478753Y-96355848D01*
X100510546Y-96398319D01*
X100517454Y-96407546D01*
X100517457Y-96407548D01*
X100517458Y-96407549D01*
X100632670Y-96493797D01*
X100767511Y-96544089D01*
X100767512Y-96544089D01*
X100767517Y-96544091D01*
X100827127Y-96550500D01*
X102222872Y-96550499D01*
X102282483Y-96544091D01*
X102410639Y-96496292D01*
X102417329Y-96493797D01*
X102417329Y-96493796D01*
X102417331Y-96493796D01*
X102532546Y-96407546D01*
X102618796Y-96292331D01*
X102623285Y-96280297D01*
X102669089Y-96157488D01*
X102669088Y-96157488D01*
X102669091Y-96157483D01*
X102675500Y-96097873D01*
X102675499Y-95302128D01*
X102669091Y-95242517D01*
X102667615Y-95238559D01*
X102618797Y-95107670D01*
X102532549Y-94992458D01*
X102532548Y-94992457D01*
X102532546Y-94992454D01*
X102522351Y-94984822D01*
X102417329Y-94906202D01*
X102282488Y-94855910D01*
X102282483Y-94855909D01*
X102282481Y-94855908D01*
X102282477Y-94855908D01*
X102251249Y-94852550D01*
X102222873Y-94849500D01*
X102222870Y-94849500D01*
X100827133Y-94849500D01*
X100827129Y-94849500D01*
X100827128Y-94849501D01*
X100819949Y-94850272D01*
X100767519Y-94855908D01*
X100767514Y-94855909D01*
X100632670Y-94906202D01*
X100517458Y-94992450D01*
X100517450Y-94992458D01*
X100478753Y-95044151D01*
X100428744Y-95079404D01*
X100367565Y-95078530D01*
X100318584Y-95041862D01*
X100300500Y-94984822D01*
X100300500Y-93015177D01*
X100319407Y-92956986D01*
X100368907Y-92921022D01*
X100430093Y-92921022D01*
X100478752Y-92955847D01*
X100482374Y-92960685D01*
X100508194Y-92995177D01*
X100517454Y-93007546D01*
X100517457Y-93007548D01*
X100517458Y-93007549D01*
X100632670Y-93093797D01*
X100767511Y-93144089D01*
X100767512Y-93144089D01*
X100767517Y-93144091D01*
X100827127Y-93150500D01*
X102222872Y-93150499D01*
X102282483Y-93144091D01*
X102377358Y-93108705D01*
X102417329Y-93093797D01*
X102417329Y-93093796D01*
X102417331Y-93093796D01*
X102532546Y-93007546D01*
X102618796Y-92892331D01*
X102622182Y-92883254D01*
X102669089Y-92757488D01*
X102669088Y-92757488D01*
X102669091Y-92757483D01*
X102675500Y-92697873D01*
X102675499Y-91902128D01*
X102669091Y-91842517D01*
X102656843Y-91809678D01*
X102618797Y-91707670D01*
X102532549Y-91592458D01*
X102532548Y-91592457D01*
X102532546Y-91592454D01*
X102532541Y-91592450D01*
X102417329Y-91506202D01*
X102282488Y-91455910D01*
X102282483Y-91455909D01*
X102282481Y-91455908D01*
X102282477Y-91455908D01*
X102251249Y-91452550D01*
X102222873Y-91449500D01*
X102222870Y-91449500D01*
X100827133Y-91449500D01*
X100827129Y-91449500D01*
X100827128Y-91449501D01*
X100819949Y-91450272D01*
X100767519Y-91455908D01*
X100767514Y-91455909D01*
X100632670Y-91506202D01*
X100517458Y-91592450D01*
X100517450Y-91592458D01*
X100478753Y-91644151D01*
X100428744Y-91679404D01*
X100367565Y-91678530D01*
X100318584Y-91641862D01*
X100300500Y-91584822D01*
X100300500Y-87415177D01*
X100319407Y-87356986D01*
X100368907Y-87321022D01*
X100430093Y-87321022D01*
X100478753Y-87355848D01*
X100514292Y-87403323D01*
X100517454Y-87407546D01*
X100517457Y-87407548D01*
X100517458Y-87407549D01*
X100632670Y-87493797D01*
X100767511Y-87544089D01*
X100767512Y-87544089D01*
X100767517Y-87544091D01*
X100827127Y-87550500D01*
X102222872Y-87550499D01*
X102282483Y-87544091D01*
X102358756Y-87515643D01*
X102417329Y-87493797D01*
X102417329Y-87493796D01*
X102417331Y-87493796D01*
X102532546Y-87407546D01*
X102618796Y-87292331D01*
X102635780Y-87246796D01*
X102669089Y-87157488D01*
X102669088Y-87157488D01*
X102669091Y-87157483D01*
X102675500Y-87097873D01*
X102675499Y-86302128D01*
X102669091Y-86242517D01*
X102667910Y-86239351D01*
X102618797Y-86107670D01*
X102532549Y-85992458D01*
X102532548Y-85992457D01*
X102532546Y-85992454D01*
X102532541Y-85992450D01*
X102417329Y-85906202D01*
X102282488Y-85855910D01*
X102282483Y-85855909D01*
X102282481Y-85855908D01*
X102282477Y-85855908D01*
X102251249Y-85852550D01*
X102222873Y-85849500D01*
X102222870Y-85849500D01*
X100827133Y-85849500D01*
X100827129Y-85849500D01*
X100827128Y-85849501D01*
X100819949Y-85850272D01*
X100767519Y-85855908D01*
X100767514Y-85855909D01*
X100632670Y-85906202D01*
X100517458Y-85992450D01*
X100517450Y-85992458D01*
X100478753Y-86044151D01*
X100428744Y-86079404D01*
X100367565Y-86078530D01*
X100318584Y-86041862D01*
X100300500Y-85984822D01*
X100300500Y-85002165D01*
X100300594Y-84997847D01*
X100302328Y-84958121D01*
X100318195Y-84594713D01*
X100318945Y-84586137D01*
X100371332Y-84188220D01*
X100372832Y-84179718D01*
X100401035Y-84052502D01*
X100459699Y-83787886D01*
X100461924Y-83779581D01*
X100550075Y-83500000D01*
X107045156Y-83500000D01*
X107064513Y-83807679D01*
X107122277Y-84110486D01*
X107122280Y-84110496D01*
X107217546Y-84403694D01*
X107348804Y-84682630D01*
X107348811Y-84682643D01*
X107513988Y-84942920D01*
X107513995Y-84942929D01*
X107663825Y-85124040D01*
X108623030Y-84164834D01*
X108664894Y-84223624D01*
X108816932Y-84368592D01*
X108833129Y-84379001D01*
X107876132Y-85335999D01*
X107935221Y-85391487D01*
X108184639Y-85572700D01*
X108454776Y-85721208D01*
X108454779Y-85721210D01*
X108741410Y-85834694D01*
X109040012Y-85911362D01*
X109345859Y-85950000D01*
X109654141Y-85950000D01*
X109959987Y-85911362D01*
X110258589Y-85834694D01*
X110545220Y-85721210D01*
X110545223Y-85721208D01*
X110815360Y-85572700D01*
X111064778Y-85391488D01*
X111123866Y-85335999D01*
X110164609Y-84376742D01*
X110262540Y-84299729D01*
X110378285Y-84166152D01*
X111336173Y-85124040D01*
X111486010Y-84942921D01*
X111486011Y-84942920D01*
X111651188Y-84682643D01*
X111651195Y-84682630D01*
X111782453Y-84403694D01*
X111877719Y-84110496D01*
X111877722Y-84110486D01*
X111935486Y-83807679D01*
X111954843Y-83500000D01*
X111935486Y-83192320D01*
X111877722Y-82889513D01*
X111877719Y-82889503D01*
X111782453Y-82596305D01*
X111651195Y-82317369D01*
X111651188Y-82317356D01*
X111486011Y-82057079D01*
X111336173Y-81875958D01*
X110376968Y-82835162D01*
X110335106Y-82776376D01*
X110183068Y-82631408D01*
X110166868Y-82620996D01*
X111123866Y-81663999D01*
X111064778Y-81608512D01*
X110815360Y-81427299D01*
X110545223Y-81278791D01*
X110545220Y-81278789D01*
X110258589Y-81165305D01*
X109959987Y-81088637D01*
X109654141Y-81050000D01*
X109345859Y-81050000D01*
X109040012Y-81088637D01*
X108741410Y-81165305D01*
X108454779Y-81278789D01*
X108454776Y-81278791D01*
X108184639Y-81427299D01*
X107935221Y-81608511D01*
X107876132Y-81663999D01*
X108835390Y-82623257D01*
X108737460Y-82700271D01*
X108621714Y-82833847D01*
X107663825Y-81875958D01*
X107513988Y-82057079D01*
X107348811Y-82317356D01*
X107348804Y-82317369D01*
X107217546Y-82596305D01*
X107122280Y-82889503D01*
X107122277Y-82889513D01*
X107064513Y-83192320D01*
X107045156Y-83500000D01*
X100550075Y-83500000D01*
X100582617Y-83396791D01*
X100585569Y-83388682D01*
X100604598Y-83342742D01*
X100739160Y-83017879D01*
X100742795Y-83010085D01*
X100928120Y-82654079D01*
X100932427Y-82646618D01*
X101148083Y-82308105D01*
X101153021Y-82301054D01*
X101397355Y-81982632D01*
X101402885Y-81976042D01*
X101674049Y-81680119D01*
X101680119Y-81674049D01*
X101976042Y-81402885D01*
X101982632Y-81397355D01*
X102301054Y-81153021D01*
X102308105Y-81148083D01*
X102646618Y-80932427D01*
X102654079Y-80928120D01*
X103010085Y-80742795D01*
X103017879Y-80739160D01*
X103388689Y-80585566D01*
X103396791Y-80582617D01*
X103779581Y-80461924D01*
X103787886Y-80459699D01*
X104179718Y-80372831D01*
X104188220Y-80371332D01*
X104586137Y-80318945D01*
X104594713Y-80318195D01*
X104997847Y-80300593D01*
X105002165Y-80300500D01*
X105047595Y-80300500D01*
X128952405Y-80300500D01*
X128997835Y-80300500D01*
X129002152Y-80300593D01*
G37*
G04 #@! TD.AperFunction*
G04 #@! TA.AperFunction,Conductor*
G36*
X112726345Y-97372407D02*
G01*
X112762309Y-97421907D01*
X112766306Y-97465420D01*
X112752150Y-97572950D01*
X112750050Y-97588900D01*
X112768969Y-97732608D01*
X112768970Y-97732609D01*
X112788824Y-97780543D01*
X112824439Y-97866525D01*
X112912679Y-97981521D01*
X113027675Y-98069761D01*
X113161591Y-98125230D01*
X113284736Y-98141442D01*
X113339960Y-98167783D01*
X113369155Y-98221554D01*
X113361169Y-98282216D01*
X113341817Y-98309599D01*
X109166814Y-102484604D01*
X109112297Y-102512381D01*
X109096810Y-102513600D01*
X108669085Y-102513600D01*
X108610894Y-102494693D01*
X108576327Y-102449197D01*
X108561272Y-102408833D01*
X108479331Y-102299372D01*
X108427424Y-102260515D01*
X108369872Y-102217432D01*
X108369870Y-102217431D01*
X108274384Y-102181816D01*
X108226470Y-102143764D01*
X108210073Y-102084817D01*
X108231456Y-102027489D01*
X108274380Y-101996303D01*
X108369870Y-101960687D01*
X108479331Y-101878746D01*
X108561272Y-101769285D01*
X108609056Y-101641173D01*
X108615144Y-101584544D01*
X108615143Y-101043575D01*
X108609056Y-100986945D01*
X108561272Y-100858833D01*
X108479331Y-100749372D01*
X108438875Y-100719087D01*
X108369872Y-100667432D01*
X108369870Y-100667431D01*
X108241758Y-100619647D01*
X108241757Y-100619646D01*
X108203539Y-100615538D01*
X108185129Y-100613559D01*
X108185125Y-100613559D01*
X107594165Y-100613559D01*
X107594159Y-100613560D01*
X107537532Y-100619646D01*
X107537530Y-100619647D01*
X107409418Y-100667431D01*
X107409417Y-100667431D01*
X107409416Y-100667432D01*
X107299959Y-100749370D01*
X107299955Y-100749374D01*
X107218017Y-100858830D01*
X107218015Y-100858834D01*
X107208370Y-100884693D01*
X107203632Y-100897399D01*
X107202961Y-100899197D01*
X107164910Y-100947112D01*
X107110203Y-100963600D01*
X106900290Y-100963600D01*
X106842099Y-100944693D01*
X106830286Y-100934604D01*
X106380611Y-100484929D01*
X106352834Y-100430412D01*
X106362404Y-100369982D01*
X106410646Y-100275304D01*
X106425500Y-100181519D01*
X106425499Y-99818482D01*
X106416583Y-99762183D01*
X106410647Y-99724700D01*
X106410646Y-99724698D01*
X106410646Y-99724696D01*
X106353050Y-99611658D01*
X106311393Y-99570001D01*
X106283618Y-99515487D01*
X106293189Y-99455055D01*
X106311392Y-99429999D01*
X106353050Y-99388342D01*
X106353051Y-99388339D01*
X106358559Y-99382832D01*
X106360242Y-99384515D01*
X106400399Y-99355344D01*
X106430987Y-99350500D01*
X107024325Y-99350500D01*
X107082516Y-99369407D01*
X107118480Y-99418907D01*
X107123325Y-99449500D01*
X107123325Y-99542237D01*
X107129411Y-99598864D01*
X107129411Y-99598865D01*
X107129412Y-99598867D01*
X107177196Y-99726979D01*
X107259137Y-99836440D01*
X107310649Y-99875001D01*
X107359006Y-99911201D01*
X107368598Y-99918381D01*
X107496710Y-99966165D01*
X107553339Y-99972253D01*
X108144308Y-99972252D01*
X108200938Y-99966165D01*
X108329050Y-99918381D01*
X108438511Y-99836440D01*
X108520452Y-99726979D01*
X108568236Y-99598867D01*
X108574324Y-99542238D01*
X108574323Y-99001269D01*
X108568236Y-98944639D01*
X108520452Y-98816527D01*
X108438511Y-98707066D01*
X108378956Y-98662484D01*
X108329052Y-98625126D01*
X108329050Y-98625125D01*
X108233564Y-98589510D01*
X108185650Y-98551458D01*
X108169253Y-98492511D01*
X108190636Y-98435183D01*
X108233560Y-98403997D01*
X108329050Y-98368381D01*
X108438511Y-98286440D01*
X108520452Y-98176979D01*
X108568236Y-98048867D01*
X108574324Y-97992238D01*
X108574323Y-97532964D01*
X108593230Y-97474774D01*
X108603320Y-97462961D01*
X108683786Y-97382496D01*
X108738303Y-97354719D01*
X108753789Y-97353500D01*
X112668154Y-97353500D01*
X112726345Y-97372407D01*
G37*
G04 #@! TD.AperFunction*
G04 #@! TA.AperFunction,Conductor*
G36*
X116153345Y-98881078D02*
G01*
X116196610Y-98924343D01*
X116207400Y-98969288D01*
X116207400Y-99837499D01*
X116188493Y-99895690D01*
X116153346Y-99925708D01*
X116111660Y-99946948D01*
X116111658Y-99946949D01*
X116111658Y-99946950D01*
X116069648Y-99988959D01*
X116015134Y-100016735D01*
X115954702Y-100007164D01*
X115929643Y-99988958D01*
X115888043Y-99947358D01*
X115775151Y-99889836D01*
X115775147Y-99889835D01*
X115681484Y-99875000D01*
X115650001Y-99875000D01*
X115650000Y-99875001D01*
X115650000Y-101924998D01*
X115650001Y-101924999D01*
X115681483Y-101924999D01*
X115681485Y-101924998D01*
X115775141Y-101910166D01*
X115775151Y-101910163D01*
X115888043Y-101852641D01*
X115929643Y-101811042D01*
X115984160Y-101783265D01*
X116044592Y-101792836D01*
X116069647Y-101811039D01*
X116111658Y-101853050D01*
X116224696Y-101910646D01*
X116318481Y-101925500D01*
X116681518Y-101925499D01*
X116681520Y-101925499D01*
X116681521Y-101925498D01*
X116728411Y-101918072D01*
X116775299Y-101910647D01*
X116775299Y-101910646D01*
X116775304Y-101910646D01*
X116888342Y-101853050D01*
X116929998Y-101811393D01*
X116984513Y-101783618D01*
X117044945Y-101793189D01*
X117070000Y-101811392D01*
X117111658Y-101853050D01*
X117224696Y-101910646D01*
X117318481Y-101925500D01*
X117681518Y-101925499D01*
X117681520Y-101925499D01*
X117681521Y-101925498D01*
X117728411Y-101918072D01*
X117775299Y-101910647D01*
X117775299Y-101910646D01*
X117775304Y-101910646D01*
X117888342Y-101853050D01*
X117929998Y-101811393D01*
X117984513Y-101783618D01*
X118044945Y-101793189D01*
X118070000Y-101811392D01*
X118111658Y-101853050D01*
X118224696Y-101910646D01*
X118318481Y-101925500D01*
X118681518Y-101925499D01*
X118681520Y-101925499D01*
X118681521Y-101925498D01*
X118728411Y-101918072D01*
X118775299Y-101910647D01*
X118775299Y-101910646D01*
X118775304Y-101910646D01*
X118888342Y-101853050D01*
X118930351Y-101811040D01*
X118984866Y-101783265D01*
X119045298Y-101792836D01*
X119070357Y-101811042D01*
X119111957Y-101852642D01*
X119176881Y-101885723D01*
X119220146Y-101928987D01*
X119229717Y-101989419D01*
X119201939Y-102043936D01*
X119192203Y-102052474D01*
X119067823Y-102147913D01*
X119067813Y-102147923D01*
X119026575Y-102201667D01*
X118976151Y-102236323D01*
X118948033Y-102240400D01*
X114269911Y-102240400D01*
X114211720Y-102221493D01*
X114199907Y-102211404D01*
X114082807Y-102094304D01*
X114055030Y-102039787D01*
X114064601Y-101979355D01*
X114082806Y-101954298D01*
X114108755Y-101928348D01*
X114163271Y-101900569D01*
X114217010Y-101909079D01*
X114217284Y-101908238D01*
X114222594Y-101909963D01*
X114223700Y-101910138D01*
X114224696Y-101910646D01*
X114318481Y-101925500D01*
X114681518Y-101925499D01*
X114681520Y-101925499D01*
X114681521Y-101925498D01*
X114728411Y-101918072D01*
X114775299Y-101910647D01*
X114775299Y-101910646D01*
X114775304Y-101910646D01*
X114888342Y-101853050D01*
X114930351Y-101811040D01*
X114984866Y-101783265D01*
X115045298Y-101792836D01*
X115070357Y-101811042D01*
X115111956Y-101852641D01*
X115224848Y-101910163D01*
X115224852Y-101910164D01*
X115318516Y-101924999D01*
X115349999Y-101924999D01*
X115350000Y-101924998D01*
X115350000Y-99849234D01*
X115349007Y-99847287D01*
X115350000Y-99841008D01*
X115350000Y-99833992D01*
X115351110Y-99833992D01*
X115358565Y-99786853D01*
X115401820Y-99743579D01*
X115408868Y-99740327D01*
X115496425Y-99704061D01*
X115611421Y-99615821D01*
X115699661Y-99500825D01*
X115755130Y-99366909D01*
X115774050Y-99223200D01*
X115773894Y-99222019D01*
X115773493Y-99218969D01*
X115784640Y-99158808D01*
X115801638Y-99136042D01*
X116038398Y-98899283D01*
X116092913Y-98871507D01*
X116153345Y-98881078D01*
G37*
G04 #@! TD.AperFunction*
G04 #@! TA.AperFunction,Conductor*
G36*
X104342780Y-89224163D02*
G01*
X104386044Y-89267428D01*
X104386666Y-89268930D01*
X104447358Y-89388043D01*
X104488958Y-89429643D01*
X104516735Y-89484160D01*
X104507164Y-89544592D01*
X104488960Y-89569647D01*
X104446950Y-89611658D01*
X104446949Y-89611659D01*
X104389354Y-89724695D01*
X104374500Y-89818477D01*
X104374500Y-90181520D01*
X104374501Y-90181523D01*
X104389352Y-90275299D01*
X104389354Y-90275304D01*
X104446950Y-90388342D01*
X104488606Y-90429998D01*
X104516382Y-90484513D01*
X104506811Y-90544945D01*
X104488607Y-90570000D01*
X104462446Y-90596162D01*
X104446949Y-90611659D01*
X104389354Y-90724695D01*
X104374500Y-90818477D01*
X104374500Y-91181520D01*
X104374501Y-91181523D01*
X104389352Y-91275299D01*
X104389354Y-91275304D01*
X104446950Y-91388342D01*
X104536658Y-91478050D01*
X104649696Y-91535646D01*
X104743481Y-91550500D01*
X105413809Y-91550499D01*
X105472000Y-91569406D01*
X105483813Y-91579495D01*
X106433299Y-92528981D01*
X106446174Y-92544837D01*
X106452663Y-92554769D01*
X106476790Y-92573548D01*
X106485977Y-92581660D01*
X106486791Y-92582474D01*
X106486795Y-92582477D01*
X106502855Y-92593943D01*
X106506139Y-92596391D01*
X106542670Y-92624824D01*
X106544974Y-92626617D01*
X106544978Y-92626618D01*
X106551454Y-92630122D01*
X106558034Y-92633340D01*
X106605202Y-92647382D01*
X106609064Y-92648620D01*
X106619411Y-92652172D01*
X106655612Y-92664600D01*
X106655614Y-92664600D01*
X106662836Y-92665805D01*
X106670139Y-92666715D01*
X106670146Y-92666717D01*
X106719276Y-92664685D01*
X106723367Y-92664600D01*
X107110234Y-92664600D01*
X107168425Y-92683507D01*
X107202990Y-92729001D01*
X107218016Y-92769285D01*
X107299957Y-92878746D01*
X107360376Y-92923975D01*
X107404810Y-92957238D01*
X107409418Y-92960687D01*
X107504904Y-92996302D01*
X107552817Y-93034352D01*
X107569214Y-93093300D01*
X107547832Y-93150627D01*
X107504904Y-93181815D01*
X107428303Y-93210387D01*
X107409415Y-93217432D01*
X107299959Y-93299370D01*
X107299955Y-93299374D01*
X107218017Y-93408830D01*
X107170231Y-93536946D01*
X107168118Y-93556607D01*
X107164630Y-93589060D01*
X107164144Y-93593577D01*
X107164144Y-94134537D01*
X107164145Y-94134543D01*
X107170231Y-94191170D01*
X107170231Y-94191171D01*
X107170232Y-94191173D01*
X107218016Y-94319285D01*
X107299957Y-94428746D01*
X107358624Y-94472663D01*
X107409110Y-94510457D01*
X107409418Y-94510687D01*
X107537530Y-94558471D01*
X107594159Y-94564559D01*
X108185128Y-94564558D01*
X108241758Y-94558471D01*
X108310648Y-94532775D01*
X108371776Y-94530156D01*
X108415248Y-94555530D01*
X109028273Y-95168555D01*
X109056050Y-95223072D01*
X109057269Y-95238559D01*
X109057269Y-95443985D01*
X109068187Y-95518921D01*
X109124693Y-95634505D01*
X109215667Y-95725479D01*
X109331251Y-95781985D01*
X109406187Y-95792903D01*
X109406190Y-95792903D01*
X109749347Y-95792903D01*
X109749351Y-95792903D01*
X109824287Y-95781985D01*
X109939871Y-95725479D01*
X110017767Y-95647582D01*
X110072282Y-95619807D01*
X110132714Y-95629378D01*
X110157769Y-95647581D01*
X110235667Y-95725479D01*
X110351251Y-95781985D01*
X110426187Y-95792903D01*
X110426190Y-95792903D01*
X110769347Y-95792903D01*
X110769351Y-95792903D01*
X110844287Y-95781985D01*
X110959871Y-95725479D01*
X111050845Y-95634505D01*
X111052832Y-95630439D01*
X111053821Y-95628418D01*
X111096365Y-95584445D01*
X111142761Y-95572900D01*
X111377410Y-95572900D01*
X111435601Y-95591807D01*
X111447414Y-95601896D01*
X112329014Y-96483496D01*
X112356791Y-96538013D01*
X112347220Y-96598445D01*
X112303955Y-96641710D01*
X112259010Y-96652500D01*
X108614219Y-96652500D01*
X108593904Y-96650393D01*
X108582285Y-96647957D01*
X108562744Y-96650393D01*
X108551938Y-96651740D01*
X108539693Y-96652500D01*
X108538560Y-96652500D01*
X108519070Y-96655751D01*
X108515031Y-96656339D01*
X108466207Y-96662426D01*
X108459175Y-96664519D01*
X108452219Y-96666907D01*
X108408944Y-96690325D01*
X108405313Y-96692194D01*
X108369487Y-96709710D01*
X108361117Y-96713802D01*
X108361115Y-96713803D01*
X108355129Y-96718077D01*
X108349342Y-96722582D01*
X108316021Y-96758776D01*
X108313191Y-96761726D01*
X108082660Y-96992257D01*
X108028143Y-97020034D01*
X108012656Y-97021253D01*
X107553345Y-97021253D01*
X107553339Y-97021254D01*
X107496712Y-97027340D01*
X107496710Y-97027341D01*
X107368598Y-97075125D01*
X107368597Y-97075125D01*
X107368596Y-97075126D01*
X107259139Y-97157064D01*
X107259135Y-97157068D01*
X107177197Y-97266524D01*
X107129411Y-97394640D01*
X107126406Y-97422599D01*
X107123978Y-97445191D01*
X107123324Y-97451271D01*
X107123324Y-97992231D01*
X107123325Y-97992237D01*
X107129411Y-98048864D01*
X107129411Y-98048865D01*
X107129412Y-98048867D01*
X107177196Y-98176979D01*
X107259137Y-98286440D01*
X107299747Y-98316840D01*
X107357634Y-98360174D01*
X107368598Y-98368381D01*
X107464084Y-98403996D01*
X107511997Y-98442046D01*
X107528394Y-98500994D01*
X107507012Y-98558321D01*
X107464082Y-98589510D01*
X107445376Y-98596488D01*
X107368599Y-98625124D01*
X107368594Y-98625127D01*
X107362417Y-98629752D01*
X107304503Y-98649490D01*
X107303087Y-98649500D01*
X106430987Y-98649500D01*
X106372796Y-98630593D01*
X106358964Y-98616762D01*
X106358559Y-98617168D01*
X106353051Y-98611660D01*
X106353050Y-98611658D01*
X106311040Y-98569648D01*
X106283265Y-98515134D01*
X106292836Y-98454702D01*
X106311042Y-98429643D01*
X106352641Y-98388043D01*
X106410163Y-98275151D01*
X106410164Y-98275147D01*
X106425000Y-98181484D01*
X106425000Y-98150001D01*
X106424999Y-98150000D01*
X105349000Y-98150000D01*
X105290809Y-98131093D01*
X105254845Y-98081593D01*
X105250000Y-98051000D01*
X105250000Y-97949000D01*
X105268907Y-97890809D01*
X105318407Y-97854845D01*
X105349000Y-97850000D01*
X106424998Y-97850000D01*
X106424999Y-97849999D01*
X106424999Y-97818516D01*
X106424998Y-97818514D01*
X106410166Y-97724858D01*
X106410163Y-97724848D01*
X106352641Y-97611956D01*
X106311042Y-97570357D01*
X106283265Y-97515840D01*
X106292836Y-97455408D01*
X106311039Y-97430352D01*
X106353050Y-97388342D01*
X106410646Y-97275304D01*
X106425500Y-97181519D01*
X106425499Y-96818482D01*
X106418501Y-96774294D01*
X106410647Y-96724700D01*
X106410646Y-96724698D01*
X106410646Y-96724696D01*
X106353050Y-96611658D01*
X106263342Y-96521950D01*
X106150304Y-96464354D01*
X106150305Y-96464354D01*
X106056521Y-96449500D01*
X104743478Y-96449500D01*
X104743476Y-96449501D01*
X104649700Y-96464352D01*
X104649695Y-96464354D01*
X104536658Y-96521950D01*
X104530353Y-96526531D01*
X104529251Y-96525014D01*
X104483588Y-96548281D01*
X104468101Y-96549500D01*
X104431812Y-96549500D01*
X104373621Y-96530593D01*
X104361808Y-96520504D01*
X104101796Y-96260492D01*
X104074019Y-96205975D01*
X104072800Y-96190488D01*
X104072800Y-89438409D01*
X104091707Y-89380218D01*
X104101790Y-89368412D01*
X104227834Y-89242368D01*
X104282348Y-89214592D01*
X104342780Y-89224163D01*
G37*
G04 #@! TD.AperFunction*
G04 #@! TA.AperFunction,Conductor*
G36*
X112893480Y-87076401D02*
G01*
X112973607Y-87115573D01*
X113041740Y-87125500D01*
X113041743Y-87125500D01*
X113308256Y-87125500D01*
X113308260Y-87125500D01*
X113361228Y-87117782D01*
X113421535Y-87128102D01*
X113464260Y-87171899D01*
X113474500Y-87215748D01*
X113474500Y-87226481D01*
X113472393Y-87246796D01*
X113469957Y-87258413D01*
X113473740Y-87288762D01*
X113474500Y-87301007D01*
X113474500Y-87302142D01*
X113477751Y-87321628D01*
X113478337Y-87325647D01*
X113484427Y-87374493D01*
X113486527Y-87381548D01*
X113488907Y-87388480D01*
X113512322Y-87431746D01*
X113514195Y-87435385D01*
X113535801Y-87479582D01*
X113540078Y-87485572D01*
X113544581Y-87491358D01*
X113580764Y-87524667D01*
X113583717Y-87527499D01*
X114929504Y-88873285D01*
X114957281Y-88927802D01*
X114958500Y-88943289D01*
X114958500Y-90874518D01*
X114939593Y-90932709D01*
X114890093Y-90968673D01*
X114828907Y-90968673D01*
X114789496Y-90944522D01*
X114781187Y-90936213D01*
X114676246Y-90884911D01*
X114625000Y-90877443D01*
X114625000Y-91913500D01*
X114606093Y-91971691D01*
X114556593Y-92007655D01*
X114526000Y-92012500D01*
X114424000Y-92012500D01*
X114365809Y-91993593D01*
X114329845Y-91944093D01*
X114325000Y-91913500D01*
X114325000Y-90877445D01*
X114273751Y-90884912D01*
X114194048Y-90923876D01*
X114133465Y-90932447D01*
X114107086Y-90923875D01*
X114063567Y-90902599D01*
X114037045Y-90883663D01*
X113766201Y-90612819D01*
X113753325Y-90596962D01*
X113746837Y-90587031D01*
X113742271Y-90583477D01*
X113722704Y-90568248D01*
X113713519Y-90560137D01*
X113712707Y-90559325D01*
X113696625Y-90547843D01*
X113693361Y-90545410D01*
X113654526Y-90515183D01*
X113654524Y-90515182D01*
X113648077Y-90511693D01*
X113641470Y-90508463D01*
X113641466Y-90508460D01*
X113594309Y-90494420D01*
X113590415Y-90493172D01*
X113543887Y-90477199D01*
X113536660Y-90475993D01*
X113529355Y-90475083D01*
X113529354Y-90475083D01*
X113529352Y-90475083D01*
X113480224Y-90477115D01*
X113476133Y-90477200D01*
X112146819Y-90477200D01*
X112126504Y-90475093D01*
X112114885Y-90472657D01*
X112085541Y-90476315D01*
X112084538Y-90476440D01*
X112072293Y-90477200D01*
X112071160Y-90477200D01*
X112051670Y-90480451D01*
X112047631Y-90481039D01*
X111998807Y-90487126D01*
X111991781Y-90489217D01*
X111984816Y-90491608D01*
X111941561Y-90515017D01*
X111937924Y-90516889D01*
X111893720Y-90538499D01*
X111887742Y-90542766D01*
X111881944Y-90547280D01*
X111848620Y-90583477D01*
X111845790Y-90586426D01*
X111539477Y-90892740D01*
X111484960Y-90920518D01*
X111424528Y-90910947D01*
X111381263Y-90867682D01*
X111374886Y-90851964D01*
X111373512Y-90847519D01*
X111373512Y-90847517D01*
X111317006Y-90731933D01*
X111226032Y-90640959D01*
X111110448Y-90584453D01*
X111035512Y-90573535D01*
X110592348Y-90573535D01*
X110529684Y-90582665D01*
X110517412Y-90584453D01*
X110401823Y-90640961D01*
X110395148Y-90645727D01*
X110394200Y-90644399D01*
X110348211Y-90667827D01*
X110287780Y-90658249D01*
X110262730Y-90640048D01*
X108603319Y-88980637D01*
X108575542Y-88926120D01*
X108574323Y-88910633D01*
X108574323Y-88451274D01*
X108574323Y-88451271D01*
X108574323Y-88451269D01*
X108568236Y-88394639D01*
X108520452Y-88266527D01*
X108463947Y-88191045D01*
X110205879Y-88191045D01*
X110220342Y-88282367D01*
X110220344Y-88282374D01*
X110276427Y-88392440D01*
X110276428Y-88392442D01*
X110363788Y-88479802D01*
X110363790Y-88479803D01*
X110473856Y-88535885D01*
X110473857Y-88535886D01*
X110565185Y-88550351D01*
X110615879Y-88550350D01*
X110915879Y-88550350D01*
X110915880Y-88550351D01*
X110966572Y-88550351D01*
X111057894Y-88535888D01*
X111057901Y-88535886D01*
X111167967Y-88479803D01*
X111167969Y-88479802D01*
X111255329Y-88392442D01*
X111255330Y-88392440D01*
X111311412Y-88282374D01*
X111311413Y-88282373D01*
X111325879Y-88191044D01*
X111325879Y-88170353D01*
X111325878Y-88170352D01*
X110915880Y-88170352D01*
X110915879Y-88170353D01*
X110915879Y-88550350D01*
X110615879Y-88550350D01*
X110615879Y-88170353D01*
X110615878Y-88170352D01*
X110205881Y-88170352D01*
X110205880Y-88170353D01*
X110205880Y-88191045D01*
X110205879Y-88191045D01*
X108463947Y-88191045D01*
X108438511Y-88157066D01*
X108348504Y-88089688D01*
X108329052Y-88075126D01*
X108329050Y-88075125D01*
X108200938Y-88027341D01*
X108200937Y-88027340D01*
X108162719Y-88023232D01*
X108144309Y-88021253D01*
X108144305Y-88021253D01*
X107553345Y-88021253D01*
X107553339Y-88021254D01*
X107496712Y-88027340D01*
X107496710Y-88027341D01*
X107368598Y-88075125D01*
X107368597Y-88075125D01*
X107368596Y-88075126D01*
X107259139Y-88157064D01*
X107259135Y-88157068D01*
X107177197Y-88266524D01*
X107129411Y-88394640D01*
X107123324Y-88451271D01*
X107123324Y-88992231D01*
X107123325Y-88992237D01*
X107129411Y-89048864D01*
X107129411Y-89048865D01*
X107129412Y-89048867D01*
X107177196Y-89176979D01*
X107259137Y-89286440D01*
X107368598Y-89368381D01*
X107464084Y-89403996D01*
X107511997Y-89442046D01*
X107528394Y-89500994D01*
X107507012Y-89558321D01*
X107464082Y-89589510D01*
X107440270Y-89598392D01*
X107368599Y-89625124D01*
X107368594Y-89625127D01*
X107362417Y-89629752D01*
X107304503Y-89649490D01*
X107303087Y-89649500D01*
X106430987Y-89649500D01*
X106372796Y-89630593D01*
X106358964Y-89616762D01*
X106358559Y-89617168D01*
X106353051Y-89611660D01*
X106353050Y-89611658D01*
X106311040Y-89569648D01*
X106283265Y-89515134D01*
X106292836Y-89454702D01*
X106311042Y-89429643D01*
X106352641Y-89388043D01*
X106410163Y-89275151D01*
X106410164Y-89275147D01*
X106425000Y-89181484D01*
X106425000Y-89150001D01*
X106424999Y-89150000D01*
X105349000Y-89150000D01*
X105290809Y-89131093D01*
X105254845Y-89081593D01*
X105250000Y-89051000D01*
X105250000Y-88949000D01*
X105268907Y-88890809D01*
X105318407Y-88854845D01*
X105349000Y-88850000D01*
X106424998Y-88850000D01*
X106424999Y-88849999D01*
X106424999Y-88818516D01*
X106424998Y-88818514D01*
X106410166Y-88724858D01*
X106410163Y-88724848D01*
X106352641Y-88611956D01*
X106311042Y-88570357D01*
X106283265Y-88515840D01*
X106292836Y-88455408D01*
X106311039Y-88430352D01*
X106353050Y-88388342D01*
X106410646Y-88275304D01*
X106425500Y-88181519D01*
X106425499Y-87818482D01*
X106423722Y-87807263D01*
X106410647Y-87724700D01*
X106410645Y-87724694D01*
X106410140Y-87723702D01*
X106409965Y-87722602D01*
X106408239Y-87717288D01*
X106409080Y-87717014D01*
X106400569Y-87663270D01*
X106428345Y-87608756D01*
X106497208Y-87539894D01*
X106551724Y-87512119D01*
X106567210Y-87510900D01*
X110184865Y-87510900D01*
X110243056Y-87529807D01*
X110279020Y-87579307D01*
X110279020Y-87640493D01*
X110273074Y-87654846D01*
X110220344Y-87758331D01*
X110205879Y-87849659D01*
X110205879Y-87870351D01*
X110205880Y-87870352D01*
X111325877Y-87870352D01*
X111325878Y-87870351D01*
X111325878Y-87849658D01*
X111311415Y-87758336D01*
X111311413Y-87758332D01*
X111258684Y-87654846D01*
X111249112Y-87594414D01*
X111276889Y-87539897D01*
X111331405Y-87512119D01*
X111346893Y-87510900D01*
X111571236Y-87510900D01*
X111582319Y-87511522D01*
X111584695Y-87511789D01*
X111619135Y-87515670D01*
X111675784Y-87504950D01*
X111679367Y-87504341D01*
X111736387Y-87495748D01*
X111736396Y-87495743D01*
X111743481Y-87493559D01*
X111743612Y-87493984D01*
X111745713Y-87493292D01*
X111745567Y-87492873D01*
X111752563Y-87490424D01*
X111752572Y-87490423D01*
X111803544Y-87463482D01*
X111806840Y-87461819D01*
X111816777Y-87457033D01*
X111858742Y-87436825D01*
X111858746Y-87436821D01*
X111864878Y-87432642D01*
X111865128Y-87433009D01*
X111866932Y-87431729D01*
X111866668Y-87431371D01*
X111872625Y-87426972D01*
X111872638Y-87426966D01*
X111913416Y-87386186D01*
X111916027Y-87383671D01*
X111958294Y-87344455D01*
X111958297Y-87344448D01*
X111962920Y-87338653D01*
X111963266Y-87338929D01*
X111971803Y-87327799D01*
X112179880Y-87119722D01*
X112234395Y-87091947D01*
X112293361Y-87100787D01*
X112321699Y-87114640D01*
X112323607Y-87115573D01*
X112391740Y-87125500D01*
X112391743Y-87125500D01*
X112658257Y-87125500D01*
X112658260Y-87125500D01*
X112726393Y-87115573D01*
X112806519Y-87076401D01*
X112867101Y-87067830D01*
X112893480Y-87076401D01*
G37*
G04 #@! TD.AperFunction*
G04 #@! TA.AperFunction,Conductor*
G36*
X120007279Y-83994507D02*
G01*
X120019092Y-84004596D01*
X120545504Y-84531008D01*
X120573281Y-84585525D01*
X120574500Y-84601012D01*
X120574500Y-86459310D01*
X120555593Y-86517501D01*
X120506093Y-86553465D01*
X120444907Y-86553465D01*
X120405496Y-86529314D01*
X119629917Y-85753735D01*
X119602140Y-85699218D01*
X119600921Y-85683731D01*
X119600921Y-85224460D01*
X119600921Y-85224457D01*
X119600921Y-85224455D01*
X119594834Y-85167825D01*
X119547050Y-85039713D01*
X119465109Y-84930252D01*
X119367615Y-84857269D01*
X119355650Y-84848312D01*
X119355648Y-84848311D01*
X119227536Y-84800527D01*
X119227535Y-84800526D01*
X119189317Y-84796418D01*
X119170907Y-84794439D01*
X119170903Y-84794439D01*
X118629943Y-84794439D01*
X118629937Y-84794440D01*
X118573310Y-84800526D01*
X118573308Y-84800527D01*
X118445196Y-84848311D01*
X118445195Y-84848311D01*
X118445194Y-84848312D01*
X118335737Y-84930250D01*
X118335733Y-84930254D01*
X118253794Y-85039712D01*
X118218178Y-85135199D01*
X118180127Y-85183112D01*
X118121179Y-85199509D01*
X118063852Y-85178126D01*
X118032665Y-85135200D01*
X117997050Y-85039713D01*
X117915109Y-84930252D01*
X117817615Y-84857269D01*
X117805650Y-84848312D01*
X117805648Y-84848311D01*
X117677536Y-84800527D01*
X117677535Y-84800526D01*
X117639317Y-84796418D01*
X117620907Y-84794439D01*
X117620903Y-84794439D01*
X117079943Y-84794439D01*
X117079937Y-84794440D01*
X117023310Y-84800526D01*
X117023308Y-84800527D01*
X116895196Y-84848311D01*
X116895195Y-84848311D01*
X116895194Y-84848312D01*
X116785737Y-84930250D01*
X116785733Y-84930254D01*
X116703795Y-85039710D01*
X116656009Y-85167826D01*
X116649922Y-85224457D01*
X116649922Y-85738932D01*
X116631015Y-85797123D01*
X116581515Y-85833087D01*
X116520329Y-85833087D01*
X116480918Y-85808936D01*
X116456601Y-85784619D01*
X116443725Y-85768762D01*
X116437237Y-85758831D01*
X116413108Y-85740051D01*
X116403919Y-85731937D01*
X116403107Y-85731125D01*
X116387025Y-85719643D01*
X116383761Y-85717210D01*
X116344926Y-85686983D01*
X116344924Y-85686982D01*
X116338477Y-85683493D01*
X116331870Y-85680263D01*
X116331866Y-85680260D01*
X116284709Y-85666220D01*
X116280815Y-85664972D01*
X116234287Y-85648999D01*
X116227060Y-85647793D01*
X116219755Y-85646883D01*
X116219754Y-85646883D01*
X116219752Y-85646883D01*
X116170624Y-85648915D01*
X116166533Y-85649000D01*
X115062500Y-85649000D01*
X115004309Y-85630093D01*
X114968345Y-85580593D01*
X114963500Y-85550000D01*
X114963500Y-84788176D01*
X114982407Y-84729985D01*
X114992490Y-84718178D01*
X115023385Y-84687283D01*
X115077900Y-84659508D01*
X115138332Y-84669079D01*
X115163391Y-84687285D01*
X115200942Y-84724836D01*
X115200944Y-84724837D01*
X115311010Y-84780919D01*
X115311012Y-84780920D01*
X115402338Y-84795385D01*
X115423033Y-84795384D01*
X115723033Y-84795384D01*
X115723034Y-84795385D01*
X115743726Y-84795385D01*
X115835048Y-84780922D01*
X115835055Y-84780920D01*
X115945121Y-84724837D01*
X115945123Y-84724836D01*
X116032483Y-84637476D01*
X116032484Y-84637474D01*
X116088566Y-84527408D01*
X116088567Y-84527407D01*
X116103033Y-84436078D01*
X116103033Y-84385387D01*
X116103032Y-84385386D01*
X115723034Y-84385386D01*
X115723033Y-84385387D01*
X115723033Y-84795384D01*
X115423033Y-84795384D01*
X115423033Y-84184386D01*
X115441940Y-84126195D01*
X115491440Y-84090231D01*
X115522033Y-84085386D01*
X116103031Y-84085386D01*
X116103032Y-84085385D01*
X116103032Y-84074600D01*
X116121939Y-84016409D01*
X116171439Y-83980445D01*
X116202032Y-83975600D01*
X119949088Y-83975600D01*
X120007279Y-83994507D01*
G37*
G04 #@! TD.AperFunction*
G04 #@! TD*
M02*
