G04 #@! TF.GenerationSoftware,KiCad,Pcbnew,7.0.11+dfsg-1build4*
G04 #@! TF.CreationDate,2026-09-25T10:16:31+00:00*
G04 #@! TF.ProjectId,mic-board,6d69632d-626f-4617-9264-2e6b69636164,A*
G04 #@! TF.SameCoordinates,Original*
G04 #@! TF.FileFunction,Copper,L1,Top*
G04 #@! TF.FilePolarity,Positive*
%FSLAX46Y46*%
G04 Gerber Fmt 4.6, Leading zero omitted, Abs format (unit mm)*
G04 Created by KiCad (PCBNEW 7.0.11+dfsg-1build4) date 2026-09-25 10:16:31*
%MOMM*%
%LPD*%
G01*
G04 APERTURE LIST*
G04 Aperture macros list*
%AMRoundRect*
0 Rectangle with rounded corners*
0 $1 Rounding radius*
0 $2 $3 $4 $5 $6 $7 $8 $9 X,Y pos of 4 corners*
0 Add a 4 corners polygon primitive as box body*
4,1,4,$2,$3,$4,$5,$6,$7,$8,$9,$2,$3,0*
0 Add four circle primitives for the rounded corners*
1,1,$1+$1,$2,$3*
1,1,$1+$1,$4,$5*
1,1,$1+$1,$6,$7*
1,1,$1+$1,$8,$9*
0 Add four rect primitives between the rounded corners*
20,1,$1+$1,$2,$3,$4,$5,0*
20,1,$1+$1,$4,$5,$6,$7,0*
20,1,$1+$1,$6,$7,$8,$9,0*
20,1,$1+$1,$8,$9,$2,$3,0*%
%AMFreePoly0*
4,1,61,0.202894,1.830017,0.397991,1.770835,0.577793,1.674728,0.735391,1.545391,0.864728,1.387793,0.960835,1.207991,1.020017,1.012894,1.040000,0.810000,1.020017,0.607106,0.960835,0.412009,0.864728,0.232207,0.735391,0.074609,0.577793,-0.054728,0.397991,-0.150835,0.202894,-0.210017,0.000000,-0.230000,-0.202894,-0.210017,-0.397991,-0.150835,-0.577793,-0.054728,-0.735391,0.074609,
-0.864728,0.232207,-0.960835,0.412009,-1.020017,0.607106,-1.040000,0.810000,-0.585005,0.810000,-0.565071,0.658590,-0.506629,0.517497,-0.413661,0.396339,-0.292503,0.303371,-0.151410,0.244929,-0.015141,0.226988,0.000000,0.230000,0.015141,0.226988,0.151410,0.244929,0.292503,0.303371,0.413661,0.396339,0.506629,0.517497,0.565071,0.658590,0.585005,0.810000,0.565071,0.961410,
0.506629,1.102502,0.413661,1.223661,0.292503,1.316629,0.151410,1.375071,0.000000,1.395005,-0.151410,1.375071,-0.292502,1.316629,-0.413661,1.223661,-0.506629,1.102502,-0.565071,0.961410,-0.585005,0.810000,-1.040000,0.810000,-1.020017,1.012894,-0.960835,1.207991,-0.864728,1.387793,-0.735391,1.545391,-0.577793,1.674728,-0.397991,1.770835,-0.202894,1.830017,0.000000,1.850000,
0.202894,1.830017,0.202894,1.830017,$1*%
G04 Aperture macros list end*
G04 #@! TA.AperFunction,SMDPad,CuDef*
%ADD10RoundRect,0.150000X-0.150000X-0.625000X0.150000X-0.625000X0.150000X0.625000X-0.150000X0.625000X0*%
G04 #@! TD*
G04 #@! TA.AperFunction,SMDPad,CuDef*
%ADD11RoundRect,0.250000X-0.350000X-0.650000X0.350000X-0.650000X0.350000X0.650000X-0.350000X0.650000X0*%
G04 #@! TD*
G04 #@! TA.AperFunction,SMDPad,CuDef*
%ADD12RoundRect,0.140000X0.140000X0.170000X-0.140000X0.170000X-0.140000X-0.170000X0.140000X-0.170000X0*%
G04 #@! TD*
G04 #@! TA.AperFunction,SMDPad,CuDef*
%ADD13RoundRect,0.140000X-0.170000X0.140000X-0.170000X-0.140000X0.170000X-0.140000X0.170000X0.140000X0*%
G04 #@! TD*
G04 #@! TA.AperFunction,SMDPad,CuDef*
%ADD14RoundRect,0.112500X-0.112500X0.262500X-0.112500X-0.262500X0.112500X-0.262500X0.112500X0.262500X0*%
G04 #@! TD*
G04 #@! TA.AperFunction,SMDPad,CuDef*
%ADD15FreePoly0,270.000000*%
G04 #@! TD*
G04 #@! TA.AperFunction,ViaPad*
%ADD16C,0.600000*%
G04 #@! TD*
G04 #@! TA.AperFunction,Conductor*
%ADD17C,0.150000*%
G04 #@! TD*
G04 #@! TA.AperFunction,Conductor*
%ADD18C,0.400000*%
G04 #@! TD*
G04 #@! TA.AperFunction,Conductor*
%ADD19C,0.250000*%
G04 #@! TD*
G04 APERTURE END LIST*
D10*
G04 #@! TO.P,J1,1*
G04 #@! TO.N,VDD*
X104000000Y-87650000D03*
G04 #@! TO.P,J1,2*
G04 #@! TO.N,GND*
X105000000Y-87650000D03*
G04 #@! TO.P,J1,3*
G04 #@! TO.N,OUT_P*
X106000000Y-87650000D03*
G04 #@! TO.P,J1,4*
G04 #@! TO.N,OUT_N*
X107000000Y-87650000D03*
D11*
G04 #@! TO.P,J1,MP*
G04 #@! TO.N,N/C*
X102700000Y-91525000D03*
X108300000Y-91525000D03*
G04 #@! TD*
D12*
G04 #@! TO.P,C2,1*
G04 #@! TO.N,VDD*
X101893184Y-81792306D03*
G04 #@! TO.P,C2,2*
G04 #@! TO.N,GND*
X100933184Y-81792306D03*
G04 #@! TD*
D13*
G04 #@! TO.P,C1,1*
G04 #@! TO.N,VDD*
X102088490Y-83131695D03*
G04 #@! TO.P,C1,2*
G04 #@! TO.N,GND*
X102088490Y-84091695D03*
G04 #@! TD*
D14*
G04 #@! TO.P,MK1,1*
G04 #@! TO.N,OUT_P*
X104000000Y-82750000D03*
G04 #@! TO.P,MK1,2*
G04 #@! TO.N,VDD*
X104700000Y-82750000D03*
G04 #@! TO.P,MK1,3*
G04 #@! TO.N,OUT_N*
X104000000Y-84450000D03*
G04 #@! TO.P,MK1,4*
G04 #@! TO.N,GND*
X104700000Y-84450000D03*
D15*
G04 #@! TO.P,MK1,5*
X105370000Y-83600000D03*
G04 #@! TD*
D16*
G04 #@! TO.N,OUT_P*
X105062000Y-86198200D03*
X103118000Y-83269800D03*
G04 #@! TO.N,GND*
X108800000Y-82400000D03*
X108800000Y-85600000D03*
X108800000Y-84000000D03*
G04 #@! TD*
D17*
G04 #@! TO.N,OUT_P*
X106000000Y-87135700D02*
X106000000Y-87650000D01*
X105062000Y-86198200D02*
X106000000Y-87135700D01*
X103638000Y-82750000D02*
X103118000Y-83269800D01*
X104000000Y-82750000D02*
X103638000Y-82750000D01*
D18*
G04 #@! TO.N,VDD*
X104647000Y-88842200D02*
X104000000Y-88195400D01*
X102088000Y-82784900D02*
X101893000Y-82589400D01*
X107709000Y-83106300D02*
X107709000Y-88512600D01*
X104373000Y-81966200D02*
X103254000Y-81966200D01*
X104861000Y-82131700D02*
X106734000Y-82131700D01*
X104700000Y-82292800D02*
X104373000Y-81966200D01*
X101893200Y-82190600D02*
X101893200Y-81792300D01*
X101893000Y-81792300D02*
X101893000Y-82190800D01*
X102088000Y-83131700D02*
X102088000Y-82784900D01*
X103254000Y-81966200D02*
X102088000Y-83131700D01*
X101893000Y-82936400D02*
X101893000Y-82589400D01*
X104700000Y-82750000D02*
X104700000Y-82292800D01*
X107709000Y-88512600D02*
X107379000Y-88842200D01*
X104700000Y-82292800D02*
X104861000Y-82131700D01*
X102088000Y-83131700D02*
X101893000Y-82936400D01*
X101893000Y-82190800D02*
X101893200Y-82190600D01*
X107379000Y-88842200D02*
X104647000Y-88842200D01*
X106734000Y-82131700D02*
X107709000Y-83106300D01*
X104000000Y-88195400D02*
X104000000Y-87650000D01*
X102088500Y-83131700D02*
X102088000Y-83131700D01*
X101893000Y-82190800D02*
X101893000Y-82589400D01*
D17*
G04 #@! TO.N,OUT_N*
X104000000Y-84726000D02*
X104000000Y-84450000D01*
X107000000Y-87650000D02*
X107000000Y-87315500D01*
X107000000Y-87315500D02*
X105356000Y-85671300D01*
X104945000Y-85671300D02*
X104000000Y-84726000D01*
X105356000Y-85671300D02*
X104945000Y-85671300D01*
D18*
G04 #@! TO.N,GND*
X104700000Y-84155900D02*
X104700000Y-84253900D01*
X101944000Y-84091700D02*
X100933000Y-83081100D01*
X100933000Y-82436700D02*
X100933000Y-82114500D01*
X103393000Y-85492600D02*
X105000000Y-87099900D01*
X103695000Y-83660900D02*
X104303000Y-83660900D01*
X100933000Y-83081100D02*
X100933000Y-82758900D01*
X104700000Y-84057900D02*
X104700000Y-84155900D01*
X104539000Y-83896500D02*
X104619000Y-83977200D01*
X100933000Y-82758900D02*
X100933000Y-82758700D01*
X100933000Y-82758700D02*
X100933000Y-82436700D01*
X100933200Y-82114300D02*
X100933200Y-81792300D01*
X103393000Y-84091700D02*
X103393000Y-85492600D01*
X100933000Y-82114500D02*
X100933200Y-82114300D01*
X104619000Y-83977200D02*
X104700000Y-84057900D01*
X103393000Y-83963100D02*
X103695000Y-83660900D01*
D19*
X105370000Y-83600000D02*
X104700000Y-84450000D01*
D18*
X100933000Y-82758700D02*
X100933000Y-82436700D01*
X105000000Y-87099900D02*
X105000000Y-87650000D01*
X103393000Y-84091700D02*
X103393000Y-83963100D01*
X100933000Y-82114500D02*
X100933000Y-81792300D01*
X104303000Y-83660900D02*
X104539000Y-83896500D01*
X100933000Y-82758900D02*
X100933000Y-82758700D01*
X102088500Y-84091700D02*
X101944000Y-84091700D01*
X104700000Y-84253900D02*
X104700000Y-84450000D01*
X103393000Y-84091700D02*
X102088500Y-84091700D01*
G04 #@! TD*
G04 #@! TA.AperFunction,Conductor*
G04 #@! TO.N,GND*
G36*
X109503874Y-80300805D02*
G01*
X109531912Y-80303011D01*
X109679881Y-80314657D01*
X109695210Y-80317084D01*
X109863095Y-80357390D01*
X109877865Y-80362190D01*
X110037369Y-80428258D01*
X110051201Y-80435306D01*
X110198408Y-80525515D01*
X110210967Y-80534639D01*
X110342254Y-80646768D01*
X110353231Y-80657745D01*
X110465356Y-80789027D01*
X110474487Y-80801595D01*
X110564689Y-80948791D01*
X110571742Y-80962633D01*
X110637809Y-81122134D01*
X110642610Y-81136908D01*
X110682913Y-81304781D01*
X110685343Y-81320124D01*
X110699195Y-81496124D01*
X110699500Y-81503892D01*
X110699500Y-91696107D01*
X110699195Y-91703875D01*
X110685343Y-91879875D01*
X110682913Y-91895218D01*
X110642610Y-92063091D01*
X110637809Y-92077865D01*
X110571742Y-92237366D01*
X110564689Y-92251208D01*
X110474487Y-92398404D01*
X110465356Y-92410972D01*
X110353235Y-92542250D01*
X110342250Y-92553235D01*
X110210972Y-92665356D01*
X110198404Y-92674487D01*
X110051208Y-92764689D01*
X110037366Y-92771742D01*
X109877865Y-92837809D01*
X109863091Y-92842610D01*
X109695218Y-92882913D01*
X109679875Y-92885343D01*
X109503875Y-92899195D01*
X109496107Y-92899500D01*
X101503893Y-92899500D01*
X101496125Y-92899195D01*
X101320124Y-92885343D01*
X101304781Y-92882913D01*
X101136908Y-92842610D01*
X101122134Y-92837809D01*
X100962633Y-92771742D01*
X100948791Y-92764689D01*
X100847226Y-92702450D01*
X100801593Y-92674485D01*
X100789027Y-92665356D01*
X100734512Y-92618796D01*
X100657745Y-92553231D01*
X100646768Y-92542254D01*
X100534639Y-92410967D01*
X100525515Y-92398408D01*
X100435306Y-92251201D01*
X100428257Y-92237366D01*
X100422253Y-92222872D01*
X100422251Y-92222866D01*
X101849500Y-92222866D01*
X101849501Y-92222870D01*
X101855908Y-92282480D01*
X101855909Y-92282485D01*
X101906202Y-92417329D01*
X101992450Y-92532541D01*
X101992454Y-92532546D01*
X101992457Y-92532548D01*
X101992458Y-92532549D01*
X102107670Y-92618797D01*
X102242511Y-92669089D01*
X102242512Y-92669089D01*
X102242517Y-92669091D01*
X102302127Y-92675500D01*
X103097872Y-92675499D01*
X103157483Y-92669091D01*
X103224907Y-92643943D01*
X103292329Y-92618797D01*
X103292329Y-92618796D01*
X103292331Y-92618796D01*
X103407546Y-92532546D01*
X103493796Y-92417331D01*
X103500856Y-92398404D01*
X103544089Y-92282488D01*
X103544090Y-92282485D01*
X103544091Y-92282483D01*
X103550500Y-92222873D01*
X103550500Y-92222866D01*
X107449500Y-92222866D01*
X107449501Y-92222870D01*
X107455908Y-92282480D01*
X107455909Y-92282485D01*
X107506202Y-92417329D01*
X107592450Y-92532541D01*
X107592454Y-92532546D01*
X107592457Y-92532548D01*
X107592458Y-92532549D01*
X107707670Y-92618797D01*
X107842511Y-92669089D01*
X107842512Y-92669089D01*
X107842517Y-92669091D01*
X107902127Y-92675500D01*
X108697872Y-92675499D01*
X108757483Y-92669091D01*
X108824907Y-92643943D01*
X108892329Y-92618797D01*
X108892329Y-92618796D01*
X108892331Y-92618796D01*
X109007546Y-92532546D01*
X109093796Y-92417331D01*
X109100856Y-92398404D01*
X109144089Y-92282488D01*
X109144090Y-92282485D01*
X109144091Y-92282483D01*
X109150500Y-92222873D01*
X109150499Y-90827128D01*
X109144091Y-90767517D01*
X109144089Y-90767511D01*
X109093797Y-90632670D01*
X109007549Y-90517458D01*
X109007548Y-90517457D01*
X109007546Y-90517454D01*
X109007541Y-90517450D01*
X108892329Y-90431202D01*
X108757488Y-90380910D01*
X108757483Y-90380909D01*
X108757481Y-90380908D01*
X108757477Y-90380908D01*
X108726249Y-90377550D01*
X108697873Y-90374500D01*
X108697870Y-90374500D01*
X107902133Y-90374500D01*
X107902129Y-90374500D01*
X107902128Y-90374501D01*
X107894949Y-90375272D01*
X107842519Y-90380908D01*
X107842514Y-90380909D01*
X107707670Y-90431202D01*
X107592458Y-90517450D01*
X107592450Y-90517458D01*
X107506202Y-90632670D01*
X107455910Y-90767511D01*
X107455908Y-90767522D01*
X107449500Y-90827129D01*
X107449500Y-92222866D01*
X103550500Y-92222866D01*
X103550499Y-90827128D01*
X103544091Y-90767517D01*
X103544089Y-90767511D01*
X103493797Y-90632670D01*
X103407549Y-90517458D01*
X103407548Y-90517457D01*
X103407546Y-90517454D01*
X103407541Y-90517450D01*
X103292329Y-90431202D01*
X103157488Y-90380910D01*
X103157483Y-90380909D01*
X103157481Y-90380908D01*
X103157477Y-90380908D01*
X103126249Y-90377550D01*
X103097873Y-90374500D01*
X103097870Y-90374500D01*
X102302133Y-90374500D01*
X102302129Y-90374500D01*
X102302128Y-90374501D01*
X102294949Y-90375272D01*
X102242519Y-90380908D01*
X102242514Y-90380909D01*
X102107670Y-90431202D01*
X101992458Y-90517450D01*
X101992450Y-90517458D01*
X101906202Y-90632670D01*
X101855910Y-90767511D01*
X101855908Y-90767522D01*
X101849500Y-90827129D01*
X101849500Y-92222866D01*
X100422251Y-92222866D01*
X100362190Y-92077865D01*
X100357389Y-92063091D01*
X100354730Y-92052014D01*
X100317084Y-91895210D01*
X100314657Y-91879881D01*
X100300805Y-91703874D01*
X100300500Y-91696107D01*
X100300500Y-81993043D01*
X101362684Y-81993043D01*
X101377167Y-82084480D01*
X101377167Y-82084482D01*
X101429759Y-82187698D01*
X101440480Y-82236338D01*
X101440275Y-82241805D01*
X101441107Y-82249184D01*
X101440668Y-82249233D01*
X101442500Y-82263144D01*
X101442500Y-82558190D01*
X101441863Y-82569399D01*
X101437709Y-82605849D01*
X101437709Y-82605855D01*
X101440798Y-82622294D01*
X101442500Y-82640574D01*
X101442500Y-82905327D01*
X101441869Y-82916486D01*
X101437717Y-82953083D01*
X101437717Y-82953089D01*
X101448427Y-83009930D01*
X101449033Y-83013505D01*
X101457651Y-83070687D01*
X101459837Y-83077773D01*
X101459385Y-83077912D01*
X101459971Y-83079694D01*
X101460417Y-83079539D01*
X101462862Y-83086543D01*
X101489848Y-83137698D01*
X101491480Y-83140935D01*
X101518185Y-83196387D01*
X101527990Y-83239341D01*
X101527990Y-83302431D01*
X101542473Y-83393869D01*
X101542474Y-83393873D01*
X101589897Y-83486944D01*
X101598631Y-83504086D01*
X101686099Y-83591554D01*
X101796315Y-83647712D01*
X101887755Y-83662195D01*
X102289224Y-83662194D01*
X102289227Y-83662194D01*
X102315822Y-83657981D01*
X102380665Y-83647712D01*
X102490881Y-83591554D01*
X102512973Y-83569461D01*
X102567487Y-83541684D01*
X102627919Y-83551255D01*
X102661517Y-83579197D01*
X102725373Y-83662414D01*
X102725375Y-83662416D01*
X102725379Y-83662421D01*
X102840375Y-83750661D01*
X102974291Y-83806130D01*
X103118000Y-83825050D01*
X103261709Y-83806130D01*
X103395625Y-83750661D01*
X103510621Y-83662421D01*
X103598861Y-83547425D01*
X103652236Y-83418562D01*
X103691970Y-83372041D01*
X103751464Y-83357757D01*
X103774782Y-83364124D01*
X103775146Y-83362950D01*
X103782488Y-83365218D01*
X103782491Y-83365220D01*
X103853051Y-83375500D01*
X104146948Y-83375499D01*
X104194542Y-83368565D01*
X104217504Y-83365221D01*
X104217505Y-83365220D01*
X104217509Y-83365220D01*
X104306520Y-83321704D01*
X104367100Y-83313133D01*
X104393472Y-83321701D01*
X104482491Y-83365220D01*
X104553051Y-83375500D01*
X104791717Y-83375499D01*
X104849907Y-83394406D01*
X104885871Y-83443906D01*
X104890240Y-83484202D01*
X104881297Y-83575007D01*
X104881297Y-83624991D01*
X104901376Y-83828859D01*
X104901377Y-83828865D01*
X104911127Y-83877874D01*
X104911128Y-83877880D01*
X104970592Y-84073904D01*
X104989709Y-84120058D01*
X104989725Y-84120092D01*
X105086280Y-84300734D01*
X105114048Y-84342294D01*
X105244007Y-84500649D01*
X105279350Y-84535992D01*
X105437705Y-84665951D01*
X105479265Y-84693719D01*
X105659907Y-84790274D01*
X105659941Y-84790290D01*
X105706095Y-84809407D01*
X105902119Y-84868871D01*
X105902125Y-84868872D01*
X105951134Y-84878622D01*
X105951140Y-84878623D01*
X106155008Y-84898703D01*
X106204992Y-84898703D01*
X106408859Y-84878623D01*
X106408865Y-84878622D01*
X106457874Y-84868872D01*
X106457880Y-84868871D01*
X106653904Y-84809407D01*
X106700058Y-84790290D01*
X106700092Y-84790274D01*
X106880734Y-84693719D01*
X106922294Y-84665951D01*
X107080649Y-84535992D01*
X107089496Y-84527146D01*
X107144013Y-84499369D01*
X107204445Y-84508940D01*
X107247710Y-84552205D01*
X107258500Y-84597150D01*
X107258500Y-86525500D01*
X107239593Y-86583691D01*
X107190093Y-86619655D01*
X107159500Y-86624500D01*
X106818483Y-86624500D01*
X106818458Y-86624503D01*
X106818449Y-86624500D01*
X106814593Y-86624501D01*
X106814593Y-86623574D01*
X106758964Y-86610213D01*
X106740692Y-86595806D01*
X106728578Y-86583691D01*
X105599269Y-85454243D01*
X105593439Y-85447880D01*
X105568455Y-85418105D01*
X105534809Y-85398679D01*
X105527525Y-85394038D01*
X105495702Y-85371754D01*
X105495703Y-85371754D01*
X105494231Y-85371360D01*
X105470364Y-85361473D01*
X105469046Y-85360712D01*
X105430781Y-85353964D01*
X105422354Y-85352095D01*
X105384827Y-85342038D01*
X105384825Y-85342038D01*
X105346094Y-85345424D01*
X105337473Y-85345800D01*
X105120874Y-85345800D01*
X105062683Y-85326893D01*
X105050859Y-85316792D01*
X104504484Y-84770244D01*
X104476715Y-84715724D01*
X104475499Y-84700252D01*
X104475499Y-84153056D01*
X104475498Y-84153051D01*
X104465220Y-84082491D01*
X104465219Y-84082489D01*
X104465218Y-84082485D01*
X104412014Y-83973656D01*
X104412012Y-83973654D01*
X104412012Y-83973653D01*
X104326347Y-83887988D01*
X104217509Y-83834780D01*
X104146949Y-83824500D01*
X104146945Y-83824500D01*
X103853056Y-83824500D01*
X103853048Y-83824501D01*
X103782495Y-83834778D01*
X103782485Y-83834781D01*
X103673656Y-83887985D01*
X103587987Y-83973654D01*
X103585238Y-83979278D01*
X103534780Y-84082491D01*
X103524501Y-84153048D01*
X103524500Y-84153054D01*
X103524500Y-84746943D01*
X103524501Y-84746951D01*
X103534778Y-84817504D01*
X103534781Y-84817514D01*
X103587985Y-84926343D01*
X103587987Y-84926345D01*
X103587988Y-84926347D01*
X103673653Y-85012012D01*
X103782491Y-85065220D01*
X103853051Y-85075500D01*
X103853058Y-85075499D01*
X103853059Y-85075500D01*
X103855164Y-85075653D01*
X103855754Y-85075893D01*
X103856597Y-85076016D01*
X103856566Y-85076223D01*
X103911837Y-85098713D01*
X103918029Y-85104402D01*
X104586122Y-85772708D01*
X104613891Y-85827229D01*
X104604309Y-85887659D01*
X104594651Y-85902965D01*
X104581139Y-85920575D01*
X104581137Y-85920578D01*
X104525670Y-86054490D01*
X104525669Y-86054491D01*
X104506750Y-86198199D01*
X104506750Y-86198200D01*
X104525669Y-86341908D01*
X104525670Y-86341909D01*
X104581139Y-86475825D01*
X104669379Y-86590821D01*
X104784375Y-86679061D01*
X104918291Y-86734530D01*
X105062000Y-86753450D01*
X105097641Y-86748757D01*
X105157800Y-86759906D01*
X105180545Y-86776886D01*
X105420485Y-87016697D01*
X105448277Y-87071206D01*
X105449500Y-87086719D01*
X105449501Y-88292700D01*
X105430594Y-88350891D01*
X105381094Y-88386855D01*
X105350501Y-88391700D01*
X104874560Y-88391700D01*
X104816369Y-88372793D01*
X104804567Y-88362714D01*
X104579506Y-88137722D01*
X104551720Y-88083210D01*
X104550499Y-88067708D01*
X104550499Y-86993478D01*
X104550498Y-86993476D01*
X104535647Y-86899700D01*
X104535646Y-86899698D01*
X104535646Y-86899696D01*
X104478050Y-86786658D01*
X104388342Y-86696950D01*
X104275304Y-86639354D01*
X104275305Y-86639354D01*
X104181522Y-86624500D01*
X103818479Y-86624500D01*
X103818476Y-86624501D01*
X103724700Y-86639352D01*
X103724695Y-86639354D01*
X103611659Y-86696949D01*
X103521949Y-86786659D01*
X103464354Y-86899695D01*
X103449500Y-86993478D01*
X103449500Y-88306521D01*
X103449501Y-88306523D01*
X103464352Y-88400299D01*
X103464354Y-88400304D01*
X103521950Y-88513342D01*
X103611658Y-88603050D01*
X103724696Y-88660646D01*
X103784292Y-88670085D01*
X103815909Y-88675093D01*
X103870415Y-88702860D01*
X104306641Y-89138952D01*
X104314049Y-89147239D01*
X104328661Y-89165562D01*
X104337123Y-89176172D01*
X104337122Y-89176172D01*
X104384773Y-89208661D01*
X104387778Y-89210792D01*
X104434178Y-89245025D01*
X104440740Y-89248491D01*
X104440528Y-89248890D01*
X104442445Y-89249857D01*
X104442641Y-89249452D01*
X104449329Y-89252673D01*
X104475458Y-89260732D01*
X104504456Y-89269676D01*
X104507904Y-89270810D01*
X104562370Y-89289859D01*
X104562373Y-89289859D01*
X104569666Y-89291238D01*
X104569582Y-89291682D01*
X104571691Y-89292040D01*
X104571759Y-89291594D01*
X104579096Y-89292700D01*
X104579098Y-89292700D01*
X104636760Y-89292700D01*
X104640446Y-89292768D01*
X104655473Y-89293329D01*
X104698079Y-89294917D01*
X104698079Y-89294916D01*
X104698080Y-89294917D01*
X104698080Y-89294916D01*
X104705448Y-89294086D01*
X104705498Y-89294529D01*
X104719390Y-89292700D01*
X107347973Y-89292700D01*
X107359117Y-89293329D01*
X107395759Y-89297480D01*
X107452597Y-89286761D01*
X107456130Y-89286162D01*
X107513287Y-89277548D01*
X107513290Y-89277546D01*
X107520381Y-89275360D01*
X107520519Y-89275809D01*
X107522355Y-89275206D01*
X107522201Y-89274763D01*
X107529208Y-89272315D01*
X107529211Y-89272315D01*
X107580357Y-89245321D01*
X107583587Y-89243692D01*
X107635642Y-89218625D01*
X107635644Y-89218622D01*
X107641774Y-89214444D01*
X107642040Y-89214835D01*
X107643620Y-89213714D01*
X107643340Y-89213334D01*
X107649311Y-89208931D01*
X107649315Y-89208930D01*
X107690239Y-89168053D01*
X107692783Y-89165605D01*
X107735194Y-89126255D01*
X107735197Y-89126249D01*
X107739821Y-89120452D01*
X107740187Y-89120744D01*
X107748664Y-89109700D01*
X108005647Y-88853027D01*
X108013870Y-88845684D01*
X108042970Y-88822479D01*
X108075368Y-88774959D01*
X108077495Y-88771963D01*
X108111664Y-88725726D01*
X108111666Y-88725721D01*
X108115136Y-88719166D01*
X108115506Y-88719362D01*
X108116627Y-88717143D01*
X108116250Y-88716962D01*
X108119466Y-88710280D01*
X108119472Y-88710273D01*
X108136414Y-88655342D01*
X108137581Y-88651800D01*
X108156595Y-88597571D01*
X108156595Y-88597569D01*
X108156596Y-88597567D01*
X108157980Y-88590277D01*
X108158389Y-88590354D01*
X108158807Y-88587902D01*
X108158394Y-88587840D01*
X108159500Y-88580504D01*
X108159500Y-88523064D01*
X108159571Y-88519304D01*
X108159798Y-88513340D01*
X108161755Y-88461864D01*
X108161754Y-88461859D01*
X108160929Y-88454491D01*
X108161340Y-88454444D01*
X108159500Y-88440425D01*
X108159500Y-83137100D01*
X108160120Y-83126036D01*
X108161079Y-83117509D01*
X108164266Y-83089171D01*
X108153544Y-83032569D01*
X108152933Y-83028975D01*
X108144348Y-82972013D01*
X108144345Y-82972007D01*
X108142160Y-82964920D01*
X108142572Y-82964792D01*
X108141851Y-82962600D01*
X108141444Y-82962743D01*
X108138992Y-82955741D01*
X108138992Y-82955740D01*
X108112069Y-82904825D01*
X108110393Y-82901505D01*
X108085425Y-82849657D01*
X108081246Y-82843528D01*
X108081602Y-82843284D01*
X108080264Y-82841399D01*
X108079917Y-82841656D01*
X108075510Y-82835687D01*
X108034782Y-82794975D01*
X108032227Y-82792324D01*
X107993055Y-82750106D01*
X107993054Y-82750105D01*
X107993053Y-82750104D01*
X107987250Y-82745476D01*
X107987519Y-82745138D01*
X107976359Y-82736577D01*
X107965384Y-82725607D01*
X107442659Y-82203096D01*
X107074351Y-81834939D01*
X107066938Y-81826645D01*
X107043880Y-81797731D01*
X107043877Y-81797727D01*
X106996199Y-81765220D01*
X106993198Y-81763092D01*
X106946795Y-81728860D01*
X106940239Y-81725397D01*
X106940448Y-81725001D01*
X106938556Y-81724046D01*
X106938363Y-81724449D01*
X106931677Y-81721229D01*
X106876530Y-81704219D01*
X106873033Y-81703068D01*
X106818610Y-81684037D01*
X106811322Y-81682660D01*
X106811405Y-81682218D01*
X106809305Y-81681862D01*
X106809239Y-81682306D01*
X106801903Y-81681200D01*
X106801902Y-81681200D01*
X106801900Y-81681200D01*
X106744237Y-81681200D01*
X106740556Y-81681132D01*
X106738788Y-81681066D01*
X106682897Y-81678986D01*
X106682896Y-81678986D01*
X106675522Y-81679819D01*
X106675471Y-81679372D01*
X106661597Y-81681200D01*
X104891778Y-81681200D01*
X104880725Y-81680581D01*
X104843825Y-81676435D01*
X104843822Y-81676435D01*
X104793262Y-81686017D01*
X104732569Y-81678275D01*
X104697427Y-81650473D01*
X104682879Y-81632230D01*
X104635108Y-81599659D01*
X104632139Y-81597553D01*
X104585635Y-81563275D01*
X104579076Y-81559814D01*
X104579294Y-81559400D01*
X104577558Y-81558524D01*
X104577356Y-81558946D01*
X104570671Y-81555726D01*
X104515425Y-81538685D01*
X104511967Y-81537549D01*
X104457425Y-81518501D01*
X104450138Y-81517128D01*
X104450224Y-81516671D01*
X104448308Y-81516346D01*
X104448239Y-81516806D01*
X104440903Y-81515700D01*
X104440902Y-81515700D01*
X104440900Y-81515700D01*
X104383117Y-81515700D01*
X104379476Y-81515633D01*
X104321713Y-81513506D01*
X104314345Y-81514342D01*
X104314292Y-81513878D01*
X104300485Y-81515700D01*
X103284911Y-81515700D01*
X103273807Y-81515075D01*
X103259908Y-81513506D01*
X103237063Y-81510927D01*
X103237055Y-81510927D01*
X103180389Y-81521636D01*
X103176764Y-81522252D01*
X103119710Y-81530852D01*
X103112623Y-81533039D01*
X103112490Y-81532610D01*
X103110471Y-81533274D01*
X103110619Y-81533698D01*
X103103617Y-81536145D01*
X103052621Y-81563084D01*
X103049338Y-81564741D01*
X102997362Y-81589772D01*
X102991234Y-81593951D01*
X102990982Y-81593582D01*
X102989242Y-81594816D01*
X102989507Y-81595176D01*
X102983538Y-81599579D01*
X102942765Y-81640333D01*
X102940118Y-81642883D01*
X102897803Y-81682147D01*
X102893179Y-81687946D01*
X102892828Y-81687666D01*
X102884311Y-81698762D01*
X102592672Y-81990276D01*
X102538149Y-82018041D01*
X102477719Y-82008457D01*
X102434464Y-81965183D01*
X102423683Y-81920260D01*
X102423683Y-81591572D01*
X102423683Y-81591569D01*
X102423683Y-81591568D01*
X102415307Y-81538685D01*
X102409201Y-81500131D01*
X102353043Y-81389915D01*
X102265575Y-81302447D01*
X102155359Y-81246289D01*
X102155360Y-81246289D01*
X102063920Y-81231806D01*
X101722446Y-81231806D01*
X101631009Y-81246289D01*
X101631005Y-81246290D01*
X101520794Y-81302446D01*
X101433324Y-81389916D01*
X101377167Y-81500129D01*
X101362684Y-81591569D01*
X101362684Y-81993043D01*
X100300500Y-81993043D01*
X100300500Y-81503892D01*
X100300805Y-81496125D01*
X100309164Y-81389915D01*
X100314657Y-81320116D01*
X100317084Y-81304791D01*
X100357391Y-81136900D01*
X100362190Y-81122134D01*
X100428260Y-80962625D01*
X100435303Y-80948803D01*
X100525519Y-80801584D01*
X100534635Y-80789037D01*
X100646774Y-80657738D01*
X100657738Y-80646774D01*
X100789037Y-80534635D01*
X100801584Y-80525519D01*
X100948803Y-80435303D01*
X100962625Y-80428260D01*
X101122137Y-80362188D01*
X101136900Y-80357391D01*
X101304791Y-80317084D01*
X101320116Y-80314657D01*
X101471053Y-80302778D01*
X101496126Y-80300805D01*
X101503893Y-80300500D01*
X101547595Y-80300500D01*
X109452405Y-80300500D01*
X109496107Y-80300500D01*
X109503874Y-80300805D01*
G37*
G04 #@! TD.AperFunction*
G04 #@! TD*
M02*
