G04 #@! TF.GenerationSoftware,KiCad,Pcbnew,7.0.11+dfsg-1build4*
G04 #@! TF.CreationDate,2026-09-25T10:12:30+00:00*
G04 #@! TF.ProjectId,satellite-board,73617465-6c6c-4697-9465-2d626f617264,A*
G04 #@! TF.SameCoordinates,Original*
G04 #@! TF.FileFunction,Copper,L2,Bot*
G04 #@! TF.FilePolarity,Positive*
%FSLAX46Y46*%
G04 Gerber Fmt 4.6, Leading zero omitted, Abs format (unit mm)*
G04 Created by KiCad (PCBNEW 7.0.11+dfsg-1build4) date 2026-09-25 10:12:30*
%MOMM*%
%LPD*%
G01*
G04 APERTURE LIST*
G04 #@! TA.AperFunction,ComponentPad*
%ADD10C,0.700000*%
G04 #@! TD*
G04 #@! TA.AperFunction,ComponentPad*
%ADD11C,4.400000*%
G04 #@! TD*
G04 #@! TA.AperFunction,ViaPad*
%ADD12C,0.700000*%
G04 #@! TD*
G04 #@! TA.AperFunction,ViaPad*
%ADD13C,0.600000*%
G04 #@! TD*
G04 #@! TA.AperFunction,Conductor*
%ADD14C,0.400000*%
G04 #@! TD*
G04 #@! TA.AperFunction,Conductor*
%ADD15C,0.200000*%
G04 #@! TD*
G04 APERTURE END LIST*
D10*
G04 #@! TO.P,H1,1*
G04 #@! TO.N,GND*
X107850000Y-83500000D03*
X108333274Y-82333274D03*
X108333274Y-84666726D03*
X109500000Y-81850000D03*
D11*
X109500000Y-83500000D03*
D10*
X109500000Y-85150000D03*
X110666726Y-82333274D03*
X110666726Y-84666726D03*
X111150000Y-83500000D03*
G04 #@! TD*
G04 #@! TO.P,H2,1*
G04 #@! TO.N,GND*
X128350000Y-102000000D03*
X128833274Y-100833274D03*
X128833274Y-103166726D03*
X130000000Y-100350000D03*
D11*
X130000000Y-102000000D03*
D10*
X130000000Y-103650000D03*
X131166726Y-100833274D03*
X131166726Y-103166726D03*
X131650000Y-102000000D03*
G04 #@! TD*
D12*
G04 #@! TO.N,2V8A*
X127042800Y-101011200D03*
X116584500Y-95128900D03*
X119496100Y-102576200D03*
G04 #@! TO.N,GND*
X109452700Y-87946600D03*
D13*
X123750000Y-81250000D03*
X118750000Y-81250000D03*
X131250000Y-98750000D03*
X126250000Y-86250000D03*
X103750000Y-83750000D03*
X113750000Y-81250000D03*
X131250000Y-96250000D03*
X121250000Y-81250000D03*
X126250000Y-81250000D03*
X126250000Y-103750000D03*
X103750000Y-103750000D03*
X128750000Y-83750000D03*
D12*
X115573000Y-85133700D03*
D13*
X111250000Y-98750000D03*
X106250000Y-83750000D03*
X128750000Y-81250000D03*
X131250000Y-83750000D03*
X106250000Y-81250000D03*
X126250000Y-83750000D03*
X116250000Y-81250000D03*
X131250000Y-93750000D03*
G04 #@! TO.N,ERR_R_CBL*
X118562700Y-93115200D03*
X117819100Y-98166000D03*
D12*
G04 #@! TO.N,SPK_R*
X118501000Y-97644900D03*
X128800000Y-92828500D03*
D13*
G04 #@! TO.N,VMID_DIV*
X126989300Y-99432400D03*
X120739300Y-96158900D03*
G04 #@! TO.N,VMID*
X123315100Y-99836500D03*
X117165100Y-99112900D03*
X119792200Y-99112900D03*
G04 #@! TO.N,REFR_P*
X119215400Y-98320100D03*
X114569900Y-93144800D03*
G04 #@! TO.N,REFR_SKA*
X116126800Y-93230600D03*
X113140300Y-95976300D03*
G04 #@! TO.N,ERRR_P*
X120582800Y-100488800D03*
X115218800Y-99223200D03*
G04 #@! TO.N,ERRR_N*
X120337300Y-92511600D03*
X113305300Y-97588900D03*
G04 #@! TO.N,ERRR_SKB*
X124421500Y-85393600D03*
X119992800Y-87876000D03*
G04 #@! TD*
D14*
G04 #@! TO.N,2V8A*
X119496100Y-102576200D02*
X125477800Y-102576200D01*
X114536900Y-99549600D02*
X114536900Y-97176500D01*
X117563500Y-102576200D02*
X114536900Y-99549600D01*
X114536900Y-97176500D02*
X116584500Y-95128900D01*
X125477800Y-102576200D02*
X127042800Y-101011200D01*
X119496100Y-102576200D02*
X117563500Y-102576200D01*
G04 #@! TO.N,GND*
X109500000Y-85150000D02*
X109452700Y-85197300D01*
X130483300Y-100833300D02*
X130000000Y-100350000D01*
X111133700Y-85133700D02*
X115573000Y-85133700D01*
X130825000Y-103166700D02*
X130483300Y-103166700D01*
X109452700Y-85197300D02*
X109452700Y-87946600D01*
X131650000Y-102000000D02*
X130000000Y-102000000D01*
X109500000Y-83500000D02*
X107850000Y-83500000D01*
X130825000Y-100833300D02*
X130483300Y-100833300D01*
X131166700Y-103166700D02*
X130825000Y-103166700D01*
X111150000Y-83500000D02*
X109500000Y-83500000D01*
X130825000Y-100833300D02*
X128833300Y-100833300D01*
X130000000Y-102000000D02*
X128350000Y-102000000D01*
X130825000Y-103166700D02*
X128833300Y-103166700D01*
X110666700Y-84666700D02*
X109983300Y-84666700D01*
X110666700Y-84666700D02*
X111133700Y-85133700D01*
X130483300Y-103166700D02*
X130000000Y-103650000D01*
X109983300Y-84666700D02*
X109500000Y-85150000D01*
X110325000Y-82333300D02*
X108333300Y-82333300D01*
X110325000Y-82333300D02*
X109983300Y-82333300D01*
X109983300Y-82333300D02*
X109500000Y-81850000D01*
X131166700Y-100833300D02*
X130825000Y-100833300D01*
X110666700Y-82333300D02*
X110325000Y-82333300D01*
D15*
G04 #@! TO.N,ERR_R_CBL*
X117819100Y-93858800D02*
X118562700Y-93115200D01*
X117819100Y-98166000D02*
X117819100Y-93858800D01*
D14*
G04 #@! TO.N,SPK_R*
X128800000Y-92828500D02*
X123105500Y-92828500D01*
X123105500Y-92828500D02*
X118501000Y-97433000D01*
X118501000Y-97433000D02*
X118501000Y-97644900D01*
D15*
G04 #@! TO.N,VMID_DIV*
X123715800Y-96158900D02*
X126989300Y-99432400D01*
X120739300Y-96158900D02*
X123715800Y-96158900D01*
G04 #@! TO.N,VMID*
X119792200Y-99112900D02*
X122591500Y-99112900D01*
X122591500Y-99112900D02*
X123315100Y-99836500D01*
X119792200Y-99112900D02*
X117165100Y-99112900D01*
G04 #@! TO.N,REFR_P*
X119215400Y-98320100D02*
X124028200Y-98320100D01*
X115800800Y-91913900D02*
X114569900Y-93144800D01*
X125740500Y-100032400D02*
X127243000Y-100032400D01*
X124028200Y-98320100D02*
X125740500Y-100032400D01*
X127243000Y-100032400D02*
X129476900Y-97798500D01*
X129476900Y-97798500D02*
X129476900Y-92567300D01*
X128823500Y-91913900D02*
X115800800Y-91913900D01*
X129476900Y-92567300D02*
X128823500Y-91913900D01*
G04 #@! TO.N,REFR_SKA*
X113381100Y-95976300D02*
X113140300Y-95976300D01*
X116126800Y-93230600D02*
X113381100Y-95976300D01*
G04 #@! TO.N,ERRR_P*
X120582800Y-100488800D02*
X116484400Y-100488800D01*
X116484400Y-100488800D02*
X115218800Y-99223200D01*
G04 #@! TO.N,ERRR_N*
X118295300Y-92511600D02*
X113305300Y-97501600D01*
X120337300Y-92511600D02*
X118295300Y-92511600D01*
X113305300Y-97501600D02*
X113305300Y-97588900D01*
G04 #@! TO.N,ERRR_SKB*
X121939100Y-87876000D02*
X124421500Y-85393600D01*
X119992800Y-87876000D02*
X121939100Y-87876000D01*
G04 #@! TD*
G04 #@! TA.AperFunction,Conductor*
G04 #@! TO.N,GND*
G36*
X129002152Y-80300593D02*
G01*
X129405284Y-80318195D01*
X129413864Y-80318945D01*
X129811776Y-80371332D01*
X129820281Y-80372832D01*
X129931870Y-80397570D01*
X130212108Y-80459698D01*
X130220423Y-80461925D01*
X130603201Y-80582615D01*
X130611317Y-80585569D01*
X130982111Y-80739157D01*
X130989923Y-80742799D01*
X131345910Y-80928115D01*
X131353390Y-80932433D01*
X131691882Y-81148076D01*
X131698956Y-81153030D01*
X131862848Y-81278789D01*
X132017354Y-81397345D01*
X132023968Y-81402895D01*
X132319868Y-81674038D01*
X132325961Y-81680131D01*
X132505404Y-81875958D01*
X132597102Y-81976029D01*
X132602654Y-81982645D01*
X132846969Y-82301043D01*
X132851923Y-82308117D01*
X133067566Y-82646609D01*
X133071884Y-82654089D01*
X133257196Y-83010069D01*
X133260846Y-83017896D01*
X133414430Y-83388682D01*
X133417384Y-83396798D01*
X133538069Y-83779560D01*
X133540304Y-83787903D01*
X133627167Y-84179718D01*
X133628667Y-84188223D01*
X133681052Y-84586123D01*
X133681805Y-84594727D01*
X133699406Y-84997847D01*
X133699500Y-85002165D01*
X133699500Y-100997834D01*
X133699406Y-101002152D01*
X133681805Y-101405272D01*
X133681052Y-101413876D01*
X133628667Y-101811776D01*
X133627167Y-101820281D01*
X133540304Y-102212096D01*
X133538069Y-102220439D01*
X133417384Y-102603201D01*
X133414430Y-102611317D01*
X133260846Y-102982103D01*
X133257196Y-102989930D01*
X133071884Y-103345910D01*
X133067566Y-103353390D01*
X132851923Y-103691882D01*
X132846969Y-103698956D01*
X132602654Y-104017354D01*
X132597102Y-104023970D01*
X132325968Y-104319861D01*
X132319861Y-104325968D01*
X132023970Y-104597102D01*
X132017354Y-104602654D01*
X131698956Y-104846969D01*
X131691882Y-104851923D01*
X131353390Y-105067566D01*
X131345910Y-105071884D01*
X130989930Y-105257196D01*
X130982103Y-105260846D01*
X130611317Y-105414430D01*
X130603201Y-105417384D01*
X130220439Y-105538069D01*
X130212096Y-105540304D01*
X129820281Y-105627167D01*
X129811776Y-105628667D01*
X129413876Y-105681052D01*
X129405272Y-105681805D01*
X129002153Y-105699406D01*
X128997835Y-105699500D01*
X105002165Y-105699500D01*
X104997847Y-105699406D01*
X104594727Y-105681805D01*
X104586123Y-105681052D01*
X104188223Y-105628667D01*
X104179718Y-105627167D01*
X103787903Y-105540304D01*
X103779560Y-105538069D01*
X103396798Y-105417384D01*
X103388682Y-105414430D01*
X103017896Y-105260846D01*
X103010069Y-105257196D01*
X102654089Y-105071884D01*
X102646609Y-105067566D01*
X102308117Y-104851923D01*
X102301043Y-104846969D01*
X101982645Y-104602654D01*
X101976029Y-104597102D01*
X101680131Y-104325961D01*
X101674038Y-104319868D01*
X101402895Y-104023968D01*
X101397345Y-104017354D01*
X101153030Y-103698956D01*
X101148076Y-103691882D01*
X100932433Y-103353390D01*
X100928115Y-103345910D01*
X100919808Y-103329952D01*
X100742799Y-102989923D01*
X100739153Y-102982103D01*
X100737865Y-102978994D01*
X100585569Y-102611317D01*
X100582615Y-102603201D01*
X100554401Y-102513718D01*
X100461925Y-102220423D01*
X100459698Y-102212108D01*
X100372832Y-101820281D01*
X100371332Y-101811776D01*
X100350849Y-101656193D01*
X100318945Y-101413864D01*
X100318195Y-101405284D01*
X100300594Y-101002152D01*
X100300500Y-100997834D01*
X100300500Y-95976300D01*
X112585050Y-95976300D01*
X112603969Y-96120008D01*
X112603970Y-96120009D01*
X112659439Y-96253925D01*
X112747679Y-96368921D01*
X112862675Y-96457161D01*
X112996591Y-96512630D01*
X113140300Y-96531550D01*
X113284009Y-96512630D01*
X113417925Y-96457161D01*
X113532921Y-96368921D01*
X113621161Y-96253925D01*
X113629181Y-96234559D01*
X113650640Y-96202440D01*
X116039641Y-93813439D01*
X116094156Y-93785664D01*
X116122569Y-93785293D01*
X116126800Y-93785850D01*
X116270509Y-93766930D01*
X116278056Y-93763803D01*
X116339051Y-93759002D01*
X116391221Y-93790970D01*
X116414637Y-93847498D01*
X116400354Y-93906993D01*
X116385946Y-93925271D01*
X113297125Y-97014091D01*
X113242608Y-97041868D01*
X113240045Y-97042240D01*
X113161589Y-97052570D01*
X113027678Y-97108037D01*
X113027674Y-97108039D01*
X112912681Y-97196277D01*
X112912677Y-97196281D01*
X112824439Y-97311274D01*
X112824437Y-97311278D01*
X112768970Y-97445190D01*
X112768969Y-97445191D01*
X112750050Y-97588899D01*
X112750050Y-97588900D01*
X112768969Y-97732608D01*
X112768970Y-97732609D01*
X112820488Y-97856988D01*
X112824439Y-97866525D01*
X112912679Y-97981521D01*
X113027675Y-98069761D01*
X113161591Y-98125230D01*
X113305300Y-98144150D01*
X113449009Y-98125230D01*
X113582925Y-98069761D01*
X113697921Y-97981521D01*
X113786161Y-97866525D01*
X113841630Y-97732609D01*
X113860550Y-97588900D01*
X113849835Y-97507520D01*
X113860984Y-97447363D01*
X113877985Y-97424596D01*
X113917397Y-97385185D01*
X113971914Y-97357408D01*
X114032346Y-97366980D01*
X114075610Y-97410245D01*
X114086400Y-97455189D01*
X114086400Y-99518736D01*
X114085778Y-99529819D01*
X114081630Y-99566633D01*
X114081630Y-99566638D01*
X114092344Y-99623264D01*
X114092964Y-99626912D01*
X114101552Y-99683887D01*
X114103740Y-99690981D01*
X114103317Y-99691111D01*
X114104009Y-99693213D01*
X114104426Y-99693068D01*
X114106875Y-99700068D01*
X114133806Y-99751024D01*
X114135474Y-99754328D01*
X114160474Y-99806241D01*
X114164653Y-99812370D01*
X114164289Y-99812617D01*
X114165577Y-99814431D01*
X114165930Y-99814171D01*
X114170334Y-99820138D01*
X114211099Y-99860904D01*
X114213668Y-99863571D01*
X114252844Y-99905794D01*
X114258643Y-99910418D01*
X114258367Y-99910763D01*
X114269500Y-99919304D01*
X117223129Y-102872932D01*
X117230525Y-102881209D01*
X117253621Y-102910170D01*
X117287344Y-102933162D01*
X117301245Y-102942640D01*
X117304257Y-102944777D01*
X117350618Y-102978993D01*
X117350621Y-102978994D01*
X117357177Y-102982459D01*
X117356969Y-102982851D01*
X117358950Y-102983851D01*
X117359143Y-102983453D01*
X117365827Y-102986672D01*
X117420907Y-103003661D01*
X117424409Y-103004813D01*
X117478801Y-103023846D01*
X117478802Y-103023846D01*
X117486093Y-103025226D01*
X117486010Y-103025660D01*
X117488197Y-103026031D01*
X117488263Y-103025594D01*
X117495596Y-103026699D01*
X117495598Y-103026700D01*
X117553200Y-103026700D01*
X117556902Y-103026769D01*
X117558268Y-103026820D01*
X117614510Y-103028925D01*
X117614516Y-103028923D01*
X117621884Y-103028094D01*
X117621933Y-103028532D01*
X117635847Y-103026700D01*
X119063168Y-103026700D01*
X119121359Y-103045607D01*
X119123415Y-103047143D01*
X119193259Y-103100736D01*
X119339338Y-103161244D01*
X119456909Y-103176722D01*
X119496099Y-103181882D01*
X119496100Y-103181882D01*
X119496101Y-103181882D01*
X119527452Y-103177754D01*
X119652862Y-103161244D01*
X119798941Y-103100736D01*
X119868765Y-103047157D01*
X119926441Y-103026734D01*
X119929032Y-103026700D01*
X125446936Y-103026700D01*
X125458019Y-103027322D01*
X125460395Y-103027589D01*
X125494835Y-103031470D01*
X125551484Y-103020750D01*
X125555067Y-103020141D01*
X125612087Y-103011548D01*
X125612096Y-103011543D01*
X125619181Y-103009359D01*
X125619312Y-103009784D01*
X125621413Y-103009092D01*
X125621267Y-103008673D01*
X125628263Y-103006224D01*
X125628272Y-103006223D01*
X125679244Y-102979282D01*
X125682540Y-102977619D01*
X125692477Y-102972833D01*
X125734442Y-102952625D01*
X125734446Y-102952621D01*
X125740578Y-102948442D01*
X125740828Y-102948809D01*
X125742632Y-102947529D01*
X125742368Y-102947171D01*
X125748325Y-102942772D01*
X125748338Y-102942766D01*
X125789116Y-102901986D01*
X125791727Y-102899471D01*
X125833994Y-102860255D01*
X125833997Y-102860248D01*
X125838620Y-102854453D01*
X125838966Y-102854729D01*
X125847503Y-102843599D01*
X127055224Y-101635878D01*
X127109739Y-101608103D01*
X127112274Y-101607735D01*
X127199562Y-101596244D01*
X127345641Y-101535736D01*
X127430817Y-101470377D01*
X127488493Y-101449954D01*
X127547158Y-101467332D01*
X127584406Y-101515873D01*
X127588330Y-101567471D01*
X127564513Y-101692320D01*
X127545156Y-102000000D01*
X127564513Y-102307679D01*
X127622277Y-102610486D01*
X127622280Y-102610496D01*
X127717546Y-102903694D01*
X127848804Y-103182630D01*
X127848811Y-103182643D01*
X128013988Y-103442920D01*
X128013995Y-103442929D01*
X128163825Y-103624040D01*
X129123030Y-102664834D01*
X129164894Y-102723624D01*
X129316932Y-102868592D01*
X129333129Y-102879001D01*
X128376132Y-103835999D01*
X128435221Y-103891487D01*
X128684639Y-104072700D01*
X128954776Y-104221208D01*
X128954779Y-104221210D01*
X129241410Y-104334694D01*
X129540012Y-104411362D01*
X129845859Y-104450000D01*
X130154141Y-104450000D01*
X130459987Y-104411362D01*
X130758589Y-104334694D01*
X131045220Y-104221210D01*
X131045223Y-104221208D01*
X131315360Y-104072700D01*
X131564778Y-103891488D01*
X131623866Y-103835999D01*
X130664609Y-102876742D01*
X130762540Y-102799729D01*
X130878285Y-102666152D01*
X131836173Y-103624040D01*
X131986010Y-103442921D01*
X131986011Y-103442920D01*
X132151188Y-103182643D01*
X132151195Y-103182630D01*
X132282453Y-102903694D01*
X132377719Y-102610496D01*
X132377722Y-102610486D01*
X132435486Y-102307679D01*
X132454843Y-102000000D01*
X132435486Y-101692320D01*
X132377722Y-101389513D01*
X132377719Y-101389503D01*
X132282453Y-101096305D01*
X132151195Y-100817369D01*
X132151188Y-100817356D01*
X131986011Y-100557079D01*
X131836173Y-100375958D01*
X130876968Y-101335162D01*
X130835106Y-101276376D01*
X130683068Y-101131408D01*
X130666868Y-101120996D01*
X131623866Y-100163999D01*
X131564778Y-100108512D01*
X131315360Y-99927299D01*
X131045223Y-99778791D01*
X131045220Y-99778789D01*
X130758589Y-99665305D01*
X130459987Y-99588637D01*
X130154141Y-99550000D01*
X129845859Y-99550000D01*
X129540012Y-99588637D01*
X129241410Y-99665305D01*
X128954779Y-99778789D01*
X128954776Y-99778791D01*
X128684639Y-99927299D01*
X128435221Y-100108511D01*
X128376132Y-100163999D01*
X129335390Y-101123257D01*
X129237460Y-101200271D01*
X129121714Y-101333847D01*
X128163825Y-100375958D01*
X128013988Y-100557079D01*
X127848811Y-100817356D01*
X127848807Y-100817363D01*
X127816019Y-100887042D01*
X127774134Y-100931644D01*
X127714032Y-100943108D01*
X127658670Y-100917056D01*
X127629194Y-100863439D01*
X127628288Y-100857811D01*
X127627844Y-100854441D01*
X127627844Y-100854438D01*
X127621574Y-100839300D01*
X127567337Y-100708361D01*
X127567337Y-100708360D01*
X127471086Y-100582923D01*
X127471085Y-100582922D01*
X127471082Y-100582918D01*
X127471077Y-100582914D01*
X127471076Y-100582913D01*
X127381725Y-100514352D01*
X127347069Y-100463928D01*
X127348670Y-100402763D01*
X127385918Y-100354222D01*
X127394863Y-100348747D01*
X127401656Y-100345071D01*
X127405279Y-100343207D01*
X127449482Y-100321599D01*
X127449482Y-100321598D01*
X127449484Y-100321598D01*
X127449485Y-100321596D01*
X127455470Y-100317323D01*
X127461255Y-100312820D01*
X127461255Y-100312819D01*
X127461258Y-100312818D01*
X127494579Y-100276620D01*
X127497364Y-100273716D01*
X129691784Y-98079296D01*
X129707634Y-98066426D01*
X129717569Y-98059937D01*
X129736351Y-98035803D01*
X129744477Y-98026604D01*
X129745276Y-98025806D01*
X129756775Y-98009698D01*
X129759209Y-98006436D01*
X129789417Y-97967626D01*
X129789418Y-97967622D01*
X129792922Y-97961150D01*
X129796137Y-97954571D01*
X129796137Y-97954569D01*
X129796140Y-97954566D01*
X129810187Y-97907381D01*
X129811412Y-97903554D01*
X129827400Y-97856988D01*
X129827400Y-97856983D01*
X129828607Y-97849751D01*
X129829517Y-97842455D01*
X129827485Y-97793313D01*
X129827400Y-97789223D01*
X129827400Y-92613913D01*
X129829507Y-92593597D01*
X129830317Y-92589735D01*
X129831942Y-92581985D01*
X129828160Y-92551642D01*
X129827400Y-92539398D01*
X129827400Y-92538259D01*
X129826833Y-92534865D01*
X129824143Y-92518747D01*
X129823558Y-92514729D01*
X129822374Y-92505229D01*
X129817473Y-92465907D01*
X129817471Y-92465904D01*
X129815377Y-92458869D01*
X129812991Y-92451916D01*
X129789587Y-92408671D01*
X129787713Y-92405030D01*
X129766099Y-92360817D01*
X129761848Y-92354862D01*
X129757319Y-92349043D01*
X129739682Y-92332807D01*
X129721121Y-92315720D01*
X129718194Y-92312912D01*
X129104301Y-91699019D01*
X129091425Y-91683162D01*
X129084937Y-91673231D01*
X129060808Y-91654451D01*
X129051619Y-91646337D01*
X129050807Y-91645525D01*
X129034725Y-91634043D01*
X129031461Y-91631610D01*
X128992626Y-91601383D01*
X128992624Y-91601382D01*
X128986177Y-91597893D01*
X128979570Y-91594663D01*
X128979566Y-91594660D01*
X128932409Y-91580620D01*
X128928515Y-91579372D01*
X128881987Y-91563399D01*
X128874760Y-91562193D01*
X128867455Y-91561283D01*
X128867454Y-91561283D01*
X128867452Y-91561283D01*
X128818324Y-91563315D01*
X128814233Y-91563400D01*
X115847413Y-91563400D01*
X115827098Y-91561293D01*
X115815485Y-91558858D01*
X115785143Y-91562640D01*
X115772899Y-91563400D01*
X115771759Y-91563400D01*
X115752281Y-91566650D01*
X115748236Y-91567239D01*
X115699408Y-91573326D01*
X115692375Y-91575419D01*
X115685416Y-91577808D01*
X115642161Y-91601217D01*
X115638524Y-91603089D01*
X115594320Y-91624699D01*
X115588342Y-91628966D01*
X115582544Y-91633480D01*
X115549231Y-91669665D01*
X115546401Y-91672615D01*
X114657058Y-92561958D01*
X114602541Y-92589735D01*
X114574133Y-92590107D01*
X114569902Y-92589550D01*
X114569900Y-92589550D01*
X114426191Y-92608469D01*
X114426190Y-92608470D01*
X114292278Y-92663937D01*
X114292274Y-92663939D01*
X114177281Y-92752177D01*
X114177277Y-92752181D01*
X114089039Y-92867174D01*
X114089037Y-92867178D01*
X114033570Y-93001090D01*
X114033569Y-93001091D01*
X114014650Y-93144799D01*
X114014650Y-93144800D01*
X114033569Y-93288508D01*
X114033570Y-93288509D01*
X114085359Y-93413542D01*
X114089039Y-93422425D01*
X114177279Y-93537421D01*
X114292275Y-93625661D01*
X114426191Y-93681130D01*
X114569900Y-93700050D01*
X114713609Y-93681130D01*
X114847525Y-93625661D01*
X114962521Y-93537421D01*
X115050761Y-93422425D01*
X115106230Y-93288509D01*
X115125150Y-93144800D01*
X115124593Y-93140570D01*
X115135739Y-93080410D01*
X115152742Y-93057639D01*
X115916987Y-92293396D01*
X115971503Y-92265619D01*
X115986990Y-92264400D01*
X117807810Y-92264400D01*
X117866001Y-92283307D01*
X117901965Y-92332807D01*
X117901965Y-92393993D01*
X117877814Y-92433404D01*
X116821471Y-93489746D01*
X116766954Y-93517523D01*
X116706522Y-93507952D01*
X116663257Y-93464687D01*
X116653686Y-93404255D01*
X116660004Y-93381855D01*
X116663130Y-93374309D01*
X116682050Y-93230600D01*
X116663130Y-93086891D01*
X116607661Y-92952975D01*
X116519421Y-92837979D01*
X116404425Y-92749739D01*
X116404421Y-92749737D01*
X116270509Y-92694270D01*
X116270508Y-92694269D01*
X116126800Y-92675350D01*
X115983091Y-92694269D01*
X115983090Y-92694270D01*
X115849178Y-92749737D01*
X115849174Y-92749739D01*
X115734181Y-92837977D01*
X115734177Y-92837981D01*
X115645939Y-92952974D01*
X115645937Y-92952978D01*
X115590470Y-93086890D01*
X115590469Y-93086891D01*
X115571550Y-93230599D01*
X115571550Y-93230601D01*
X115572107Y-93234833D01*
X115560957Y-93294993D01*
X115543958Y-93317758D01*
X113428179Y-95433537D01*
X113373662Y-95461314D01*
X113320292Y-95454998D01*
X113298353Y-95445911D01*
X113284009Y-95439970D01*
X113284008Y-95439969D01*
X113140300Y-95421050D01*
X112996591Y-95439969D01*
X112996590Y-95439970D01*
X112862678Y-95495437D01*
X112862674Y-95495439D01*
X112747681Y-95583677D01*
X112747677Y-95583681D01*
X112659439Y-95698674D01*
X112659437Y-95698678D01*
X112603970Y-95832590D01*
X112603969Y-95832591D01*
X112585050Y-95976299D01*
X112585050Y-95976300D01*
X100300500Y-95976300D01*
X100300500Y-87876000D01*
X119437550Y-87876000D01*
X119456469Y-88019708D01*
X119456470Y-88019709D01*
X119498113Y-88120247D01*
X119511939Y-88153625D01*
X119600179Y-88268621D01*
X119715175Y-88356861D01*
X119849091Y-88412330D01*
X119992800Y-88431250D01*
X120136509Y-88412330D01*
X120270425Y-88356861D01*
X120385421Y-88268621D01*
X120386185Y-88267624D01*
X120388023Y-88265231D01*
X120438449Y-88230576D01*
X120466564Y-88226500D01*
X121892481Y-88226500D01*
X121912796Y-88228607D01*
X121914706Y-88229007D01*
X121924415Y-88231043D01*
X121954762Y-88227259D01*
X121967007Y-88226500D01*
X121968143Y-88226500D01*
X121987621Y-88223249D01*
X121991652Y-88222661D01*
X122040493Y-88216573D01*
X122040496Y-88216571D01*
X122047529Y-88214477D01*
X122054475Y-88212092D01*
X122054481Y-88212092D01*
X122097755Y-88188671D01*
X122101379Y-88186807D01*
X122145582Y-88165199D01*
X122145582Y-88165198D01*
X122145584Y-88165198D01*
X122145585Y-88165196D01*
X122151570Y-88160923D01*
X122157355Y-88156420D01*
X122157355Y-88156419D01*
X122157358Y-88156418D01*
X122190679Y-88120220D01*
X122193464Y-88117316D01*
X124334340Y-85976439D01*
X124388855Y-85948664D01*
X124417269Y-85948293D01*
X124421498Y-85948850D01*
X124421500Y-85948850D01*
X124565209Y-85929930D01*
X124699125Y-85874461D01*
X124814121Y-85786221D01*
X124902361Y-85671225D01*
X124957830Y-85537309D01*
X124976750Y-85393600D01*
X124957830Y-85249891D01*
X124902361Y-85115975D01*
X124814121Y-85000979D01*
X124699125Y-84912739D01*
X124699121Y-84912737D01*
X124565209Y-84857270D01*
X124565208Y-84857269D01*
X124421500Y-84838350D01*
X124277791Y-84857269D01*
X124277790Y-84857270D01*
X124143878Y-84912737D01*
X124143874Y-84912739D01*
X124028881Y-85000977D01*
X124028877Y-85000981D01*
X123940639Y-85115974D01*
X123940637Y-85115978D01*
X123885170Y-85249890D01*
X123885169Y-85249891D01*
X123866250Y-85393599D01*
X123866250Y-85393603D01*
X123866807Y-85397835D01*
X123855656Y-85457995D01*
X123838658Y-85480759D01*
X121822914Y-87496504D01*
X121768397Y-87524281D01*
X121752910Y-87525500D01*
X120466564Y-87525500D01*
X120408373Y-87506593D01*
X120388023Y-87486769D01*
X120385423Y-87483381D01*
X120385421Y-87483380D01*
X120385421Y-87483379D01*
X120270425Y-87395139D01*
X120270421Y-87395137D01*
X120136509Y-87339670D01*
X120136508Y-87339669D01*
X119992800Y-87320750D01*
X119849091Y-87339669D01*
X119849090Y-87339670D01*
X119715178Y-87395137D01*
X119715174Y-87395139D01*
X119600181Y-87483377D01*
X119600177Y-87483381D01*
X119511939Y-87598374D01*
X119511937Y-87598378D01*
X119456470Y-87732290D01*
X119456469Y-87732291D01*
X119437550Y-87875999D01*
X119437550Y-87876000D01*
X100300500Y-87876000D01*
X100300500Y-85002165D01*
X100300594Y-84997847D01*
X100301716Y-84972156D01*
X100318195Y-84594713D01*
X100318945Y-84586137D01*
X100371332Y-84188220D01*
X100372832Y-84179718D01*
X100401035Y-84052502D01*
X100459699Y-83787886D01*
X100461924Y-83779581D01*
X100550075Y-83500000D01*
X107045156Y-83500000D01*
X107064513Y-83807679D01*
X107122277Y-84110486D01*
X107122280Y-84110496D01*
X107217546Y-84403694D01*
X107348804Y-84682630D01*
X107348811Y-84682643D01*
X107513988Y-84942920D01*
X107513995Y-84942929D01*
X107663825Y-85124040D01*
X108623030Y-84164834D01*
X108664894Y-84223624D01*
X108816932Y-84368592D01*
X108833129Y-84379001D01*
X107876132Y-85335999D01*
X107935221Y-85391487D01*
X108184639Y-85572700D01*
X108454776Y-85721208D01*
X108454779Y-85721210D01*
X108741410Y-85834694D01*
X109040012Y-85911362D01*
X109345859Y-85950000D01*
X109654141Y-85950000D01*
X109959987Y-85911362D01*
X110258589Y-85834694D01*
X110545220Y-85721210D01*
X110545223Y-85721208D01*
X110815360Y-85572700D01*
X111064778Y-85391488D01*
X111123866Y-85335999D01*
X110164609Y-84376742D01*
X110262540Y-84299729D01*
X110378285Y-84166152D01*
X111336173Y-85124040D01*
X111486010Y-84942921D01*
X111486011Y-84942920D01*
X111651188Y-84682643D01*
X111651195Y-84682630D01*
X111782453Y-84403694D01*
X111877719Y-84110496D01*
X111877722Y-84110486D01*
X111935486Y-83807679D01*
X111954843Y-83500000D01*
X111935486Y-83192320D01*
X111877722Y-82889513D01*
X111877719Y-82889503D01*
X111782453Y-82596305D01*
X111651195Y-82317369D01*
X111651188Y-82317356D01*
X111486011Y-82057079D01*
X111336173Y-81875958D01*
X110376968Y-82835162D01*
X110335106Y-82776376D01*
X110183068Y-82631408D01*
X110166868Y-82620996D01*
X111123866Y-81663999D01*
X111064778Y-81608512D01*
X110815360Y-81427299D01*
X110545223Y-81278791D01*
X110545220Y-81278789D01*
X110258589Y-81165305D01*
X109959987Y-81088637D01*
X109654141Y-81050000D01*
X109345859Y-81050000D01*
X109040012Y-81088637D01*
X108741410Y-81165305D01*
X108454779Y-81278789D01*
X108454776Y-81278791D01*
X108184639Y-81427299D01*
X107935221Y-81608511D01*
X107876132Y-81663999D01*
X108835390Y-82623257D01*
X108737460Y-82700271D01*
X108621714Y-82833847D01*
X107663825Y-81875958D01*
X107513988Y-82057079D01*
X107348811Y-82317356D01*
X107348804Y-82317369D01*
X107217546Y-82596305D01*
X107122280Y-82889503D01*
X107122277Y-82889513D01*
X107064513Y-83192320D01*
X107045156Y-83500000D01*
X100550075Y-83500000D01*
X100582617Y-83396791D01*
X100585569Y-83388682D01*
X100604598Y-83342742D01*
X100739160Y-83017879D01*
X100742795Y-83010085D01*
X100928120Y-82654079D01*
X100932427Y-82646618D01*
X101148083Y-82308105D01*
X101153021Y-82301054D01*
X101397355Y-81982632D01*
X101402885Y-81976042D01*
X101674049Y-81680119D01*
X101680119Y-81674049D01*
X101976042Y-81402885D01*
X101982632Y-81397355D01*
X102301054Y-81153021D01*
X102308105Y-81148083D01*
X102646618Y-80932427D01*
X102654079Y-80928120D01*
X103010085Y-80742795D01*
X103017879Y-80739160D01*
X103388689Y-80585566D01*
X103396791Y-80582617D01*
X103779581Y-80461924D01*
X103787886Y-80459699D01*
X104179718Y-80372831D01*
X104188220Y-80371332D01*
X104586137Y-80318945D01*
X104594713Y-80318195D01*
X104997847Y-80300593D01*
X105002165Y-80300500D01*
X105047595Y-80300500D01*
X128952405Y-80300500D01*
X128997835Y-80300500D01*
X129002152Y-80300593D01*
G37*
G04 #@! TD.AperFunction*
G04 #@! TD*
M02*
