G04 #@! TF.GenerationSoftware,KiCad,Pcbnew,7.0.11+dfsg-1build4*
G04 #@! TF.CreationDate,2026-09-25T10:12:30+00:00*
G04 #@! TF.ProjectId,satellite-board,73617465-6c6c-4697-9465-2d626f617264,A*
G04 #@! TF.SameCoordinates,Original*
G04 #@! TF.FileFunction,Soldermask,Top*
G04 #@! TF.FilePolarity,Negative*
%FSLAX46Y46*%
G04 Gerber Fmt 4.6, Leading zero omitted, Abs format (unit mm)*
G04 Created by KiCad (PCBNEW 7.0.11+dfsg-1build4) date 2026-09-25 10:12:30*
%MOMM*%
%LPD*%
G01*
G04 APERTURE LIST*
G04 Aperture macros list*
%AMRoundRect*
0 Rectangle with rounded corners*
0 $1 Rounding radius*
0 $2 $3 $4 $5 $6 $7 $8 $9 X,Y pos of 4 corners*
0 Add a 4 corners polygon primitive as box body*
4,1,4,$2,$3,$4,$5,$6,$7,$8,$9,$2,$3,0*
0 Add four circle primitives for the rounded corners*
1,1,$1+$1,$2,$3*
1,1,$1+$1,$4,$5*
1,1,$1+$1,$6,$7*
1,1,$1+$1,$8,$9*
0 Add four rect primitives between the rounded corners*
20,1,$1+$1,$2,$3,$4,$5,0*
20,1,$1+$1,$4,$5,$6,$7,0*
20,1,$1+$1,$6,$7,$8,$9,0*
20,1,$1+$1,$8,$9,$2,$3,0*%
G04 Aperture macros list end*
%ADD10RoundRect,0.135000X0.135000X0.185000X-0.135000X0.185000X-0.135000X-0.185000X0.135000X-0.185000X0*%
%ADD11RoundRect,0.140000X0.140000X0.170000X-0.140000X0.170000X-0.140000X-0.170000X0.140000X-0.170000X0*%
%ADD12RoundRect,0.135000X-0.135000X-0.185000X0.135000X-0.185000X0.135000X0.185000X-0.135000X0.185000X0*%
%ADD13RoundRect,0.100000X0.100000X-0.637500X0.100000X0.637500X-0.100000X0.637500X-0.100000X-0.637500X0*%
%ADD14RoundRect,0.135000X-0.185000X0.135000X-0.185000X-0.135000X0.185000X-0.135000X0.185000X0.135000X0*%
%ADD15RoundRect,0.150000X0.625000X-0.150000X0.625000X0.150000X-0.625000X0.150000X-0.625000X-0.150000X0*%
%ADD16RoundRect,0.250000X0.650000X-0.350000X0.650000X0.350000X-0.650000X0.350000X-0.650000X-0.350000X0*%
%ADD17RoundRect,0.135000X0.185000X-0.135000X0.185000X0.135000X-0.185000X0.135000X-0.185000X-0.135000X0*%
%ADD18RoundRect,0.140000X-0.140000X-0.170000X0.140000X-0.170000X0.140000X0.170000X-0.140000X0.170000X0*%
%ADD19RoundRect,0.225000X0.250000X-0.225000X0.250000X0.225000X-0.250000X0.225000X-0.250000X-0.225000X0*%
%ADD20RoundRect,0.150000X-0.512500X-0.150000X0.512500X-0.150000X0.512500X0.150000X-0.512500X0.150000X0*%
%ADD21RoundRect,0.225000X-0.250000X0.225000X-0.250000X-0.225000X0.250000X-0.225000X0.250000X0.225000X0*%
%ADD22RoundRect,0.225000X-0.225000X-0.250000X0.225000X-0.250000X0.225000X0.250000X-0.225000X0.250000X0*%
%ADD23C,0.700000*%
%ADD24C,4.400000*%
%ADD25RoundRect,0.150000X-0.625000X0.150000X-0.625000X-0.150000X0.625000X-0.150000X0.625000X0.150000X0*%
%ADD26RoundRect,0.250000X-0.650000X0.350000X-0.650000X-0.350000X0.650000X-0.350000X0.650000X0.350000X0*%
%ADD27RoundRect,0.250000X-0.250000X-0.475000X0.250000X-0.475000X0.250000X0.475000X-0.250000X0.475000X0*%
%ADD28RoundRect,0.150000X-0.150000X-0.625000X0.150000X-0.625000X0.150000X0.625000X-0.150000X0.625000X0*%
%ADD29RoundRect,0.250000X-0.350000X-0.650000X0.350000X-0.650000X0.350000X0.650000X-0.350000X0.650000X0*%
%ADD30RoundRect,0.140000X-0.170000X0.140000X-0.170000X-0.140000X0.170000X-0.140000X0.170000X0.140000X0*%
%ADD31RoundRect,0.250000X0.475000X-0.250000X0.475000X0.250000X-0.475000X0.250000X-0.475000X-0.250000X0*%
G04 APERTURE END LIST*
D10*
G04 #@! TO.C,R14*
X122478033Y-93764613D03*
X121458033Y-93764613D03*
G04 #@! TD*
D11*
G04 #@! TO.C,C8*
X111611836Y-93789794D03*
X110651836Y-93789794D03*
G04 #@! TD*
D12*
G04 #@! TO.C,R1*
X118795208Y-95452083D03*
X119815208Y-95452083D03*
G04 #@! TD*
D13*
G04 #@! TO.C,U3*
X121025000Y-91862500D03*
X121675000Y-91862500D03*
X122325000Y-91862500D03*
X122975000Y-91862500D03*
X122975000Y-86137500D03*
X122325000Y-86137500D03*
X121675000Y-86137500D03*
X121025000Y-86137500D03*
G04 #@! TD*
D10*
G04 #@! TO.C,R13*
X122183961Y-95266083D03*
X121163961Y-95266083D03*
G04 #@! TD*
G04 #@! TO.C,R17*
X119368050Y-92312754D03*
X118348050Y-92312754D03*
G04 #@! TD*
D12*
G04 #@! TO.C,R16*
X118354721Y-87139545D03*
X119374721Y-87139545D03*
G04 #@! TD*
D11*
G04 #@! TO.C,C15*
X120111836Y-93789794D03*
X119151836Y-93789794D03*
G04 #@! TD*
D14*
G04 #@! TO.C,R10*
X115309016Y-93959806D03*
X115309016Y-94979806D03*
G04 #@! TD*
D12*
G04 #@! TO.C,R11*
X114976393Y-96437824D03*
X115996393Y-96437824D03*
G04 #@! TD*
D15*
G04 #@! TO.C,J2*
X128800000Y-89500000D03*
X128800000Y-88500000D03*
D16*
X132675000Y-90800000D03*
X132675000Y-87200000D03*
G04 #@! TD*
D17*
G04 #@! TO.C,R9*
X116126834Y-90418696D03*
X116126834Y-89398696D03*
G04 #@! TD*
D18*
G04 #@! TO.C,C10*
X114613033Y-84235386D03*
X115573033Y-84235386D03*
G04 #@! TD*
D10*
G04 #@! TO.C,R7*
X113978033Y-93764613D03*
X112958033Y-93764613D03*
G04 #@! TD*
D12*
G04 #@! TO.C,R6*
X118972867Y-96821186D03*
X119992867Y-96821186D03*
G04 #@! TD*
D10*
G04 #@! TO.C,R3*
X125089081Y-100091217D03*
X124069081Y-100091217D03*
G04 #@! TD*
D19*
G04 #@! TO.C,C12*
X107848824Y-99271753D03*
X107848824Y-97721753D03*
G04 #@! TD*
D12*
G04 #@! TO.C,R8*
X112511194Y-95166148D03*
X113531194Y-95166148D03*
G04 #@! TD*
D20*
G04 #@! TO.C,U1*
X124362500Y-96550000D03*
X124362500Y-97500000D03*
X124362500Y-98450000D03*
X126637500Y-98450000D03*
X126637500Y-96550000D03*
G04 #@! TD*
D21*
G04 #@! TO.C,C6*
X107889644Y-92314059D03*
X107889644Y-93864059D03*
G04 #@! TD*
D22*
G04 #@! TO.C,C4*
X124054824Y-94458855D03*
X125604824Y-94458855D03*
G04 #@! TD*
D14*
G04 #@! TO.C,R4*
X110813930Y-91094035D03*
X110813930Y-92114035D03*
G04 #@! TD*
D10*
G04 #@! TO.C,R15*
X117865876Y-93765283D03*
X116845876Y-93765283D03*
G04 #@! TD*
D23*
G04 #@! TO.C,H1*
X107850000Y-83500000D03*
X108333274Y-82333274D03*
X108333274Y-84666726D03*
X109500000Y-81850000D03*
D24*
X109500000Y-83500000D03*
D23*
X109500000Y-85150000D03*
X110666726Y-82333274D03*
X110666726Y-84666726D03*
X111150000Y-83500000D03*
G04 #@! TD*
D22*
G04 #@! TO.C,C16*
X117350422Y-85519939D03*
X118900422Y-85519939D03*
G04 #@! TD*
D18*
G04 #@! TO.C,C18*
X128656263Y-98210174D03*
X129616263Y-98210174D03*
G04 #@! TD*
D25*
G04 #@! TO.C,J4*
X105400000Y-97000000D03*
X105400000Y-98000000D03*
X105400000Y-99000000D03*
X105400000Y-100000000D03*
D26*
X101525000Y-95700000D03*
X101525000Y-101300000D03*
G04 #@! TD*
D10*
G04 #@! TO.C,R2*
X122535542Y-98199437D03*
X121515542Y-98199437D03*
G04 #@! TD*
D12*
G04 #@! TO.C,R12*
X114145633Y-98001514D03*
X115165633Y-98001514D03*
G04 #@! TD*
D21*
G04 #@! TO.C,C13*
X107889644Y-101314059D03*
X107889644Y-102864059D03*
G04 #@! TD*
D27*
G04 #@! TO.C,C2*
X123601986Y-101944866D03*
X125501986Y-101944866D03*
G04 #@! TD*
D25*
G04 #@! TO.C,J3*
X105400000Y-88000000D03*
X105400000Y-89000000D03*
X105400000Y-90000000D03*
X105400000Y-91000000D03*
D26*
X101525000Y-86700000D03*
X101525000Y-92300000D03*
G04 #@! TD*
D28*
G04 #@! TO.C,J1*
X114500000Y-100900000D03*
X115500000Y-100900000D03*
X116500000Y-100900000D03*
X117500000Y-100900000D03*
X118500000Y-100900000D03*
X119500000Y-100900000D03*
D29*
X113200000Y-104775000D03*
X120800000Y-104775000D03*
G04 #@! TD*
D30*
G04 #@! TO.C,C7*
X117506820Y-95538519D03*
X117506820Y-96498519D03*
G04 #@! TD*
D13*
G04 #@! TO.C,U2*
X112525000Y-91862500D03*
X113175000Y-91862500D03*
X113825000Y-91862500D03*
X114475000Y-91862500D03*
X114475000Y-86137500D03*
X113825000Y-86137500D03*
X113175000Y-86137500D03*
X112525000Y-86137500D03*
G04 #@! TD*
D11*
G04 #@! TO.C,C14*
X122264850Y-96833104D03*
X121304850Y-96833104D03*
G04 #@! TD*
D31*
G04 #@! TO.C,C1*
X128934894Y-96514110D03*
X128934894Y-94614110D03*
G04 #@! TD*
D18*
G04 #@! TO.C,C11*
X121163033Y-84235386D03*
X122123033Y-84235386D03*
G04 #@! TD*
D30*
G04 #@! TO.C,C3*
X110765879Y-87060352D03*
X110765879Y-88020352D03*
G04 #@! TD*
D23*
G04 #@! TO.C,H2*
X128350000Y-102000000D03*
X128833274Y-100833274D03*
X128833274Y-103166726D03*
X130000000Y-100350000D03*
D24*
X130000000Y-102000000D03*
D23*
X130000000Y-103650000D03*
X131166726Y-100833274D03*
X131166726Y-103166726D03*
X131650000Y-102000000D03*
G04 #@! TD*
D12*
G04 #@! TO.C,R5*
X109577769Y-95222403D03*
X110597769Y-95222403D03*
G04 #@! TD*
D30*
G04 #@! TO.C,C17*
X124650801Y-86161673D03*
X124650801Y-87121673D03*
G04 #@! TD*
D19*
G04 #@! TO.C,C5*
X107848824Y-90271753D03*
X107848824Y-88721753D03*
G04 #@! TD*
G04 #@! TO.C,C9*
X117740287Y-90307107D03*
X117740287Y-88757107D03*
G04 #@! TD*
M02*
